<svg style="opacity: 0.2" width="32" height="35" viewBox="0 0 32 35" fill="none" xmlns="http://www.w3.org/2000/svg">
  <path d="M31.9998 16.9192C31.9723 20.805 30.891 25.0435 29.1068 28.2573C27.0326 31.9953 24.2041 34.0538 21.1429 34.0538C19.656 34.0564 18.2029 33.6103 16.9736 32.7739C16.6868 32.5776 16.3474 32.4725 15.9999 32.4725C15.6524 32.4725 15.313 32.5776 15.0262 32.7739C13.7969 33.6103 12.3438 34.0564 10.8569 34.0538C7.77866 34.0538 4.94409 32.0019 2.87533 28.276C1.09994 25.0786 0.0252686 20.8479 0.000196638 16.9588C-0.0325184 11.8691 4.02107 7.6818 9.03675 7.62523C11.1775 7.60195 13.2588 8.32915 14.9192 9.68056C14.967 9.7195 15.0169 9.75577 15.0687 9.7892C15.108 9.81381 15.153 9.82792 15.1994 9.83019C15.2457 9.83245 15.2919 9.82278 15.3335 9.80212C15.375 9.78146 15.4106 9.75048 15.4368 9.71215C15.4629 9.67383 15.4788 9.62943 15.483 9.5832C15.5156 9.25284 15.5678 8.84568 15.6516 8.38517C14.667 8.34629 13.6999 8.11182 12.8068 7.69544C11.9136 7.27906 11.1123 6.68908 10.4495 5.9599C9.78664 5.23071 9.27556 4.37689 8.94602 3.44821C8.61648 2.51952 8.47507 1.53453 8.53003 0.550641C8.53779 0.410223 8.59706 0.2776 8.6965 0.178151C8.79594 0.0787025 8.92855 0.0194131 9.06897 0.0116292C10.7306 -0.0814721 12.3753 0.38653 13.739 1.34048C15.1026 2.29444 16.1062 3.67899 16.5884 5.27182C17.4313 3.35477 18.6843 1.84438 20.2686 0.854219C20.3322 0.814447 20.4031 0.787598 20.4771 0.775205C20.5511 0.762812 20.6268 0.765119 20.6999 0.781993C20.7731 0.798867 20.8421 0.829978 20.9032 0.87355C20.9643 0.917122 21.0162 0.972301 21.056 1.03594C21.0958 1.09957 21.1226 1.17042 21.135 1.24443C21.1474 1.31845 21.1451 1.39417 21.1282 1.4673C21.1114 1.54042 21.0803 1.6095 21.0367 1.6706C20.9931 1.73169 20.9379 1.78361 20.8743 1.82338C17.7142 3.7985 16.8746 7.58437 16.6518 9.4247C16.645 9.47806 16.6543 9.53223 16.6783 9.58036C16.7023 9.62848 16.7401 9.6684 16.7868 9.69507C16.8335 9.72174 16.8871 9.73397 16.9408 9.7302C16.9944 9.72644 17.0458 9.70685 17.0883 9.67391L17.0929 9.6702C18.7237 8.34734 20.7597 7.62516 22.8596 7.62466C22.8903 7.62466 22.9209 7.62482 22.9516 7.62516C27.9765 7.67587 32.0355 11.8452 31.9998 16.9192Z" fill="#000"/>
</svg>
