<svg width="32" height="32" viewBox="0 0 32 32" fill="none" xmlns="http://www.w3.org/2000/svg">
  <g>
    <g clip-path="url(#clip0)">
      <path d="M7.47809 6.48842L20.235 3.00633L19.5594 1.64081C19.1174 0.753215 18.0393 0.386679 17.1518 0.828678L5.73166 6.48842H7.47809Z" fill="#68D522"/>
      <path d="M24.1949 3.10693C24.0369 3.10693 23.8787 3.12849 23.7206 3.17162L20.7237 3.99093L11.571 6.48842H21.9598H26.4876L25.927 4.43293C25.7114 3.63158 24.9855 3.10693 24.1949 3.10693Z" fill="#68D522"/>
      <path d="M28.3598 7.74609H27.9501H27.3932H26.8362H22.5851H6.96418H4.91589H3.19102H2.8712H1.80034C1.23257 7.74609 0.725884 8.00842 0.395284 8.42167C0.244357 8.61212 0.129366 8.83133 0.0646828 9.07209C0.0251544 9.22302 0 9.38113 0 9.54284V9.75845V11.8067V29.5622C0 30.554 0.804941 31.3589 1.79674 31.3589H28.3562C29.348 31.3589 30.1529 30.554 30.1529 29.5622V24.5492H19.4911C17.8057 24.5492 16.4366 23.1801 16.4366 21.4948V19.849V19.292V18.735V17.4988C16.4366 16.6723 16.7672 15.9213 17.3026 15.3715C17.777 14.8828 18.413 14.5522 19.1245 14.4695C19.2431 14.4552 19.3653 14.4479 19.4875 14.4479H28.6581H29.215H29.772H30.1529V9.54284C30.1565 8.55103 29.3516 7.74609 28.3598 7.74609Z" fill="#68D522"/>
      <path d="M31.4144 16.1655C31.2347 16.0002 31.0227 15.8745 30.7855 15.7918C30.6022 15.7308 30.4082 15.6948 30.2034 15.6948H30.1567H30.1207H29.5638H27.555H19.4912C18.4993 15.6948 17.6944 16.4997 17.6944 17.4916V18.3863V18.9433V19.5003V21.4911C17.6944 22.4829 18.4993 23.2878 19.4912 23.2878H30.1567H30.2034C30.4082 23.2878 30.6023 23.2519 30.7855 23.1908C31.0227 23.1117 31.2347 22.9824 31.4144 22.8171C31.7738 22.4901 32.0001 22.0157 32.0001 21.4911V17.4916C32.0001 16.9669 31.7738 16.4925 31.4144 16.1655ZM23.2428 19.8489C23.2428 20.3448 22.8403 20.7472 22.3444 20.7472H21.7479C21.252 20.7472 20.8495 20.3448 20.8495 19.8489V19.2523C20.8495 18.9649 20.9825 18.7097 21.1945 18.548C21.349 18.4294 21.5395 18.354 21.7479 18.354H21.8988H22.3444C22.8403 18.354 23.2428 18.7564 23.2428 19.2523V19.8489Z" fill="#68D522"/>
    </g>
  </g>
  <defs>
    <clipPath id="clip0">
      <path d="M0 0H32V32H0V0Z" fill="white"/>
    </clipPath>
  </defs>
</svg>
