<svg width="24" height="24" viewBox="0 0 24 24" fill="none" xmlns="http://www.w3.org/2000/svg">
  <path d="M21.2632 5.61121H18.409C18.6418 5.15264 18.7111 4.58071 18.5793 3.99161C18.3739 3.07289 17.6073 2 16.1225 2C15.0284 2 13.706 2.98133 13.0151 3.56623C12.8115 3.73853 12.3862 4.11279 12 4.54058C11.6137 4.11279 11.1884 3.73853 10.9848 3.56623C10.294 2.98128 8.97157 2 7.8774 2C6.3927 2 5.62603 3.07289 5.4206 3.99161C5.28885 4.58071 5.35817 5.15264 5.59091 5.61121H2.73685C2.33055 5.61121 2 5.96467 2 6.39913V9.61643C2 10.0509 2.33055 10.4044 2.73685 10.4044H3.47827C3.6137 10.4044 3.72388 10.5222 3.72388 10.667V21.2121C3.72388 21.6465 4.05443 22 4.46073 22H19.5393C19.9456 22 20.2761 21.6465 20.2761 21.2121V10.667C20.2761 10.5222 20.3863 10.4044 20.5217 10.4044H21.2632C21.6695 10.4044 22 10.0509 22 9.61643V6.39913C22 5.96467 21.6694 5.61121 21.2632 5.61121ZM15.7504 14.6264C15.1498 15.6031 12.5642 17.9255 12.0039 17.9255C11.4552 17.9255 8.84616 15.5947 8.24951 14.6264C7.95079 14.1417 7.73883 13.6067 7.7739 12.9036C7.83629 11.659 8.7879 10.6313 9.9535 10.6313C11.1517 10.6313 11.8495 11.9983 12.0001 11.9983C12.1721 11.9983 12.8997 10.6313 14.0466 10.6313C15.2121 10.6313 16.1637 11.659 16.2261 12.9036C16.2612 13.6068 16.0499 14.1396 15.7504 14.6264Z" fill="#FF7A7A"/>
</svg>
