<svg width="32" height="32" viewBox="0 0 32 32" fill="none" xmlns="http://www.w3.org/2000/svg">
  <g opacity="0.2">
    <path d="M12.0937 5.2002C13.1823 5.2002 14.1994 4.51099 14.561 3.40991L12.6897 2.7561L16.2038 2.88574C16.2116 2.88599 16.2194 2.88599 16.2272 2.88599C16.5617 2.88599 16.8388 2.62109 16.8513 2.28418C16.864 1.93945 16.5947 1.64941 16.2497 1.63696L14.4794 1.57153C14.0586 0.593506 13.102 0 12.0918 0C10.2614 0 9.00143 1.85205 9.67574 3.5564C10.0798 4.57739 11.0586 5.2002 12.0937 5.2002Z" fill="black"/>
    <path d="M8.31348 23.1006C5.85596 23.1006 3.86353 25.0928 3.86353 27.5503C3.86353 30.0081 5.85596 32.0002 8.31348 32.0002C10.771 32.0002 12.7634 30.0081 12.7634 27.5503C12.7632 25.0928 10.771 23.1006 8.31348 23.1006ZM8.31348 29.0203C7.50171 29.0203 6.84351 28.3621 6.84351 27.5503C6.84351 26.7385 7.50171 26.0806 8.31348 26.0806C9.12524 26.0806 9.78345 26.7385 9.78345 27.5503C9.7832 28.3621 9.12524 29.0203 8.31348 29.0203Z" fill="black"/>
    <path d="M23.4783 23.1006C21.0205 23.1006 19.0283 25.0928 19.0283 27.5503C19.0283 30.0081 21.0205 32.0002 23.4783 32.0002C25.9358 32.0002 27.928 30.0081 27.928 27.5503C27.928 25.0928 25.9358 23.1006 23.4783 23.1006ZM23.4783 29.0203C22.6665 29.0203 22.0083 28.3621 22.0083 27.5503C22.0083 26.7385 22.6665 26.0806 23.4783 26.0806C24.29 26.0806 24.948 26.7385 24.948 27.5503C24.948 28.3621 24.29 29.0203 23.4783 29.0203Z" fill="black"/>
    <path d="M26.9277 19.823C27.2395 15.7258 23.4782 14.0505 23.4782 14.0505L22.5742 12.2434L22.2795 11.0686H23.4509C24.0339 11.0686 24.529 10.5916 24.518 10.0085C24.5075 9.44312 24.0459 8.98804 23.4782 8.98804H20.9465C20.83 8.98804 20.716 9.00806 20.6086 9.04517C20.8256 8.75342 20.9152 8.37036 20.8203 7.99023C20.6521 7.31738 19.9704 6.9082 19.2976 7.07666L14.8928 8.14087V7.95508C14.8928 7.00317 14.1211 6.23145 13.1691 6.23145H10.0129C9.06099 6.23145 8.28902 7.00293 8.28902 7.95508V16.7549H6.78365C7.21211 16.7549 7.55953 16.4075 7.55953 15.979V8.64331C7.55953 8.2146 7.21211 7.86719 6.78365 7.86719H1.10176C0.673052 7.86719 0.32564 8.2146 0.32564 8.64331V15.979C0.32564 16.4075 0.673052 16.7549 1.10176 16.7549H3.10909C2.78682 16.7549 2.52535 17.0164 2.52535 17.3386V19.9163C2.52535 20.2385 2.78682 20.4998 3.10909 20.4998H3.83663C1.8525 21.7622 0.47481 23.8093 0.0795465 26.1514C-0.0449653 26.8887 0.531207 27.5588 1.27901 27.5588C1.87374 27.5588 2.37642 27.1274 2.4775 26.5413C2.95723 23.7556 5.39107 21.6279 8.31343 21.6279C11.5815 21.6279 14.2409 24.2896 14.2353 27.5588H17.5564C17.5549 26.6233 17.7734 25.678 18.2363 24.7993H17.1894C17.4111 24.6499 17.5961 24.4404 17.716 24.1799L20.6359 17.8347C21.0546 16.9248 20.4865 15.8633 19.4941 15.7102L14.8928 15V12.8523C14.6333 12.7954 14.1928 12.8691 13.8486 12.4927L11.4143 9.82275L14.3244 11.7883C14.4899 11.9001 14.6796 11.9707 14.8781 11.9946C19.8903 12.5908 19.6181 12.5696 19.7607 12.5696C20.3877 12.5696 20.9294 12.1008 21.0058 11.4629C21.0881 10.7744 20.5969 10.1494 19.9082 10.0671L15.478 9.53735L12.82 7.74194L15.2775 8.65747L19.9672 9.21826C21.1264 9.35693 21.9953 10.4229 21.8476 11.5808C21.7539 12.314 21.2927 12.9111 20.6718 13.2107L22.467 20.3711C22.5832 20.8347 22.9973 21.1675 23.4753 21.1672C26.988 21.1658 29.8469 24.0198 29.853 27.5305V27.55C29.853 28.1245 30.3186 28.5903 30.893 28.5903C31.4597 28.5903 31.9204 28.1375 31.9331 27.574C31.9333 27.5632 31.9333 27.5518 31.9333 27.542C31.9333 24.1077 29.8752 21.1453 26.9277 19.823ZM15.4045 20.4998C15.7268 20.4998 15.988 20.2385 15.988 19.9163V18.2261L17.0544 18.3906L15.0869 22.6658C14.4663 21.8066 13.6862 21.0701 12.7902 20.4998H15.4045Z" fill="black"/>
  </g>
</svg>
