<svg width="32" height="32" viewBox="0 0 32 32" fill="none" xmlns="http://www.w3.org/2000/svg">
  <g>
    <g clip-path="url(#clip0)">
      <path d="M26.9092 26.1816H5.09662C4.69537 26.1816 4.37007 26.5069 4.36932 26.9082L4.36646 29.0289C4.36577 29.8222 4.67396 30.568 5.23434 31.1291C5.79541 31.6909 6.54043 31.9998 7.3338 31.9998H24.669C26.3054 31.9998 27.6364 30.6688 27.6364 29.0325V26.9089C27.6364 26.5069 27.3112 26.1816 26.9092 26.1816Z" fill="#68D522"/>
      <path d="M24 2.90912C23.5547 2.90912 23.0973 2.95384 22.6129 3.04405C20.9489 1.10366 18.5639 0 16 0C11.1876 0 7.27276 3.9148 7.27276 8.72728C7.27276 9.12853 6.94678 9.45458 6.54546 9.45458C6.14421 9.45458 5.81816 9.1286 5.81816 8.72728C5.81816 7.15269 6.18041 5.62923 6.89489 4.19959C7.02205 3.94534 6.98932 3.64064 6.81178 3.41905C6.63423 3.19889 6.34371 3.10084 6.06819 3.16834C2.49505 4.05968 0 7.24289 0 10.9091C0 13.9318 1.70455 16.6797 4.38068 18.0383L4.37284 23.9993C4.37284 24.1917 4.44887 24.3771 4.58523 24.5142C4.72228 24.6505 4.90698 24.7272 5.10014 24.7272H26.9091C27.3111 24.7272 27.6364 24.4019 27.6364 23.9999V18.0276C30.3026 16.6654 32.0001 13.9218 32.0001 10.909C32 6.49787 28.4112 2.90912 24 2.90912ZM10.6435 20.1989C10.5078 20.3097 10.3445 20.3637 10.1826 20.3637C9.97235 20.3637 9.76351 20.2728 9.61937 20.098C9.3793 19.8047 7.27276 17.1826 7.27276 15.2727C7.27276 14.8707 7.59805 14.5454 8.00005 14.5454C8.40205 14.5454 8.72735 14.8707 8.72735 15.2727C8.72735 16.3253 9.96457 18.2245 10.7444 19.1747C10.9986 19.4858 10.9538 19.9439 10.6435 20.1989ZM16.7273 19.6364C16.7273 20.0384 16.402 20.3637 16 20.3637C15.598 20.3637 15.2727 20.0384 15.2727 19.6364V15.2727C15.2727 14.8707 15.598 14.5454 16 14.5454C16.402 14.5454 16.7273 14.8707 16.7273 15.2727V19.6364H16.7273ZM22.3807 20.098C22.2365 20.2728 22.0284 20.3637 21.8182 20.3637C21.6556 20.3637 21.4922 20.3097 21.3573 20.1989C21.0469 19.9439 21.0014 19.4858 21.2557 19.1755C22.0356 18.223 23.2727 16.3218 23.2727 15.2727C23.2727 14.8707 23.598 14.5454 24 14.5454C24.402 14.5454 24.7273 14.8707 24.7273 15.2727C24.7273 17.1825 22.6208 19.8047 22.3807 20.098Z" fill="#68D522"/>
    </g>
  </g>
  <defs>
    <clipPath id="clip0">
      <path d="M0 0H32V32H0V0Z" fill="white"/>
    </clipPath>
  </defs>
</svg>
