<svg width="55" height="18" viewBox="0 0 55 18" xmlns="http://www.w3.org/2000/svg"><g fill="none" fill-rule="evenodd"><path d="M3.5 6H.8c-.1 0-.2 0-.3.1 0 .1-.1.1-.1.2v1c0 .1 0 .2.1.3.1.1.2.1.3.1h1.4v7.2c0 .7-.6 1.3-1.2 1.3H.8c-.1 0-.2 0-.3.1-.1.1-.1.2-.1.3v1c0 .1 0 .2.1.3.1.1.2.1.3.1h.1c1.6 0 2.9-1.4 2.9-3V6.3c0-.1 0-.2-.1-.3h-.2zM7 6H6c-.1 0-.1 0-.2.1s-.1.1-.1.2v7.4c0 .1 0 .2.1.3.1.1.2.1.3.1H7c.1 0 .2 0 .3-.1.1-.1.1-.2.1-.3V6.3c0-.1 0-.2-.1-.3H7zm8.6 0h-.8c-.3 0-.5.1-.5.2l-2.2 5-2.1-5c0-.2-.2-.2-.3-.2h-1c-.2 0-.3 0-.3.1-.1.1-.1.2 0 .3l3.4 7.7c.1.1.2.2.3.2h.1c.1 0 .3-.1.3-.2l3.4-7.7c.1-.1.1-.2 0-.3-.1-.1-.2-.1-.3-.1zm4.6-.2c-1.1 0-2 .4-2.8 1.3-.8.8-1.2 1.8-1.2 3s.4 2.2 1.2 3c.8.9 1.7 1.3 2.8 1.3 1.1 0 2-.4 2.8-1.3.8-.9 1.2-1.9 1.2-3 0-1.2-.4-2.2-1.2-3-.8-.9-1.8-1.3-2.8-1.3zm1.6 6.1c-.4.5-1 .8-1.6.8-.7 0-1.2-.2-1.7-.7-.4-.5-.7-1.1-.7-1.9 0-.7.2-1.4.7-1.8.4-.5 1-.7 1.7-.7s1.2.2 1.6.7c.4.5.7 1.1.7 1.8s-.3 1.3-.7 1.8zm9.6-.3c-.2-.2-.4-.1-.5 0l-.2.2-.3.3c-.1.1-.2.1-.3.2-.1.1-.3.2-.4.2-.2 0-.3.1-.5.1-.7 0-1.2-.3-1.6-.8-.4-.5-.7-1.1-.7-1.9 0-.7.2-1.4.7-1.9.5-.5 1-.7 1.7-.7.6 0 1.1.3 1.6.8.2.2.4.2.5.1l.6-.6s0-.2-.2-.4c-.7-.9-1.7-1.4-2.8-1.4-1.1 0-2 .4-2.8 1.3-.8.8-1.2 1.8-1.2 3s.4 2.2 1.2 3.1c.8.8 1.7 1.2 2.8 1.2 1.3 0 2.3-.6 3-1.7.1-.2.1-.4-.1-.6l-.5-.5zm5.8-5.8c-.8 0-1.5.3-2.3.9V2.5c0-.1 0-.2-.1-.3-.1-.1-.2-.1-.3-.1h-.9c-.1 0-.2 0-.3.1-.1.1-.1.2-.1.3v11.3c0 .1 0 .2.1.3.1.1.2.1.3.1h.9c.3 0 .4-.1.4-.4V8.7c.1-.3.4-.5.7-.8.4-.3.9-.4 1.4-.4.5 0 .9.2 1.2.6.3.4.4.9.4 1.6v4.2c0 .1 0 .2.1.3.1.1.2.1.3.1h.9c.1 0 .2 0 .3-.1.1-.1.1-.2.1-.3V9.8c-.1-2.7-1.1-4-3.1-4zm10.1 1c-.2-.4-.5-.6-.8-.8-.4-.2-.9-.3-1.5-.3-1 0-1.9.2-2.7.5-.2.1-.3.2-.3.5l.2.7c.1.3.2.4.4.3.8-.3 1.6-.4 2.2-.4.5 0 .8.1 1 .4.2.3.3.8.2 1.4l-.2-.1c-.1 0-.3-.1-.6-.1-.2.1-.4.1-.7.1-1 0-1.7.2-2.3.7-.6.5-.8 1.1-.8 1.9 0 .8.2 1.5.7 2 .5.5 1.1.7 1.8.7.9 0 1.7-.3 2.4-1l.2.6c.1.2.2.3.3.3h.6c.1 0 .2 0 .3-.1.1-.1.1-.2.1-.3V9.4c0-.6 0-1.1-.1-1.5-.1-.3-.2-.7-.4-1.1zm-1.2 5.1c-.1.2-.4.5-.7.7-.4.2-.7.3-1.1.3-.4 0-.7-.1-.9-.4-.2-.2-.3-.6-.3-.9 0-.4.1-.7.4-1 .3-.2.7-.4 1.2-.4.3 0 .6 0 .9.1.3.1.5.1.5.2v1.4zm8.3 1.4l-.3-.8c-.1-.2-.2-.3-.5-.2-.4.3-.8.4-1.2.4-.2 0-.4-.1-.5-.2-.1-.1-.2-.3-.2-.7V7.5h2.1c.1 0 .2 0 .3-.1.1-.1.1-.2.1-.3v-.8c0-.1 0-.2-.1-.3h-2.4V3.7c0-.1 0-.2-.1-.3-.1-.1-.2-.1-.3-.1h-1c-.1 0-.2 0-.3.1-.1.1-.1.2-.1.3V6H49c-.2 0-.4.1-.4.4v.7c0 .1 0 .2.1.3.1.1.2.1.3.1h.9V12c0 .8.1 1.4.4 1.8.3.4.8.6 1.5.6.4 0 .8-.1 1.2-.2.4-.1.7-.3.9-.4.5-.1.6-.3.5-.5z" fill="#3E414F"/><path d="M3.8 5.4C3.6.2.4 0 .4 0 .2 4.7 3.8 5.4 3.8 5.4z" fill="#44BB6E"/></g></svg>