<?xml version="1.0" encoding="UTF-8"?>
<!DOCTYPE svg PUBLIC "-//W3C//DTD SVG 1.1//EN" "http://www.w3.org/Graphics/SVG/1.1/DTD/svg11.dtd">
<!-- Creator: CorelDRAW X7 -->
<svg xmlns="http://www.w3.org/2000/svg" xml:space="preserve" width="50mm" height="23.1962mm" version="1.1" style="shape-rendering:geometricPrecision; text-rendering:geometricPrecision; image-rendering:optimizeQuality; fill-rule:evenodd; clip-rule:evenodd"
viewBox="0 0 4913 2279"
 xmlns:xlink="http://www.w3.org/1999/xlink">
 <defs>
  <style type="text/css">
   <![CDATA[
    .fil0 {fill:black}
   ]]>
  </style>
 </defs>
 <g id="Слой_x0020_1">
  <metadata id="CorelCorpID_0Corel-Layer"/>
  <path class="fil0" d="M4754 983l-4219 0 715 -716c62,-61 62,-160 0,-221 -61,-61 -160,-61 -221,0l-983 983c-61,61 -61,160 0,221l983 983c31,31 70,46 111,46 41,0 81,-15 112,-46 61,-61 61,-160 0,-221l-716 -716 4219 0c87,0 158,-70 158,-157 -1,-87 -72,-156 -159,-156z"/>
 </g>
</svg>
