<svg xmlns="http://www.w3.org/2000/svg" width="49" height="18"><path d="M7.35 6.347h-.942c-.095 0-.19 0-.283.095-.094.095-.094.19-.094.284v7.01c0 .096 0 .19.095.285.094.096.188.096.283.096h.942c.094 0 .188 0 .283-.095.094-.094.094-.188.094-.283v-7.01c0-.095 0-.19-.094-.285-.095 0-.19-.095-.283-.095m8.67 0h-.755c-.282 0-.47.095-.565.19l-2.167 4.737-2.073-4.737c-.095-.19-.19-.19-.377-.19H9.046c-.188 0-.283 0-.283.095-.094.095-.094.19 0 .284l3.393 7.295c.094.096.188.19.377.19h.094c.188 0 .283-.094.283-.19l3.392-7.294c.094-.094.094-.19 0-.284 0 0-.094-.095-.283-.095m4.617-.19c-1.13 0-2.073.38-2.827 1.232-.754.757-1.225 1.705-1.225 2.842 0 1.136.377 2.084 1.225 2.842.754.852 1.696 1.23 2.827 1.23 1.13 0 2.073-.378 2.827-1.23.753-.853 1.13-1.8 1.13-2.842 0-1.137-.377-2.085-1.225-2.843-.755-.758-1.697-1.232-2.733-1.232m1.602 5.874c-.473.473-1.038.758-1.698.758s-1.225-.19-1.696-.664c-.47-.473-.66-1.042-.66-1.8 0-.663.19-1.326.66-1.705.47-.473 1.037-.662 1.696-.662s1.225.19 1.696.663c.472.475.66 1.043.66 1.706s-.188 1.232-.66 1.706m8.01-1.61c-.283-.19-.565-.38-.754-.475-.283-.094-.565-.284-1.036-.473-.47-.19-.754-.38-1.037-.57-.187-.188-.376-.378-.376-.567 0-.19.094-.38.283-.474.188-.095.377-.19.754-.19.566 0 1.037.095 1.697.38.283.094.377.094.47-.19l.284-.568c.095-.19.095-.38-.188-.57-.565-.378-1.32-.567-2.26-.567-.85 0-1.51.19-1.98.663-.47.475-.66.948-.66 1.517 0 .568.19 1.042.566 1.42.377.38.848.664 1.602 1.043.565.284 1.036.474 1.32.663.28.19.376.38.376.663 0 .19-.095.38-.283.57-.188.094-.47.188-.754.188-.566 0-1.226-.19-1.98-.568-.282-.095-.377-.095-.47.095l-.378.758c-.094.19 0 .285.094.38.754.568 1.602.757 2.545.757.85 0 1.508-.19 2.074-.663.47-.474.754-.947.754-1.61 0-.38-.095-.664-.19-.948 0-.19-.187-.474-.47-.663m3.392-4.073h-.942c-.094 0-.188 0-.283.095-.094.095-.094.19-.094.284v7.01c0 .096 0 .19.095.285.095.096.19.096.283.096h.942c.095 0 .19 0 .283-.095.094-.094.094-.188.094-.283v-7.01c0-.095 0-.19-.094-.285-.094 0-.188-.095-.283-.095m6.785 6.158c-.094-.19-.283-.284-.47-.19-.378.285-.85.38-1.226.38a.718.718 0 0 1-.472-.19c-.095-.094-.19-.284-.19-.663V7.674h2.074c.094 0 .19 0 .283-.095.094 0 .094-.096.094-.19v-.664c0-.094 0-.19-.095-.284-.094-.095-.19-.095-.283-.095H38.07v-2.18c0-.093 0-.188-.095-.283-.094 0-.094-.095-.283-.095h-.942c-.094 0-.189 0-.283.094s-.094.19-.094.284v2.18h-.942c-.282 0-.376.094-.376.378v.663c0 .094 0 .19.094.284.094.094.188.094.283.094h.943v4.264c0 .757.188 1.326.47 1.705.284.38.85.568 1.51.568.376 0 .847-.095 1.224-.19.377-.094.754-.283.942-.378.188-.095.282-.284.188-.474l-.283-.758m7.35-5.305c-.66-.663-1.508-1.042-2.544-1.042-1.13 0-2.072.38-2.826 1.23-.754.76-1.13 1.707-1.13 2.844 0 1.136.376 2.084 1.13 2.936.754.758 1.696 1.137 2.827 1.137 1.226 0 2.168-.284 2.922-.947.188-.19.188-.38 0-.568l-.47-.664c-.095-.19-.284-.19-.472 0-.66.474-1.225.664-1.885.664s-1.225-.19-1.696-.664c-.472-.473-.66-.947-.66-1.515h5.37c.19 0 .377-.094.377-.378v-.57c.095-.946-.282-1.8-.942-2.462m-4.71 2.18c.093-.475.28-.948.658-1.233.377-.38.848-.473 1.414-.473.565 0 1.036.19 1.32.473.376.38.564.758.564 1.232h-3.957M3.77 6.346H1.13c-.093 0-.188 0-.282.095-.094.095-.094.19-.094.284v.948c0 .094 0 .19.094.284.094.095.19.095.283.095h1.32v6.82c0 .664-.565 1.232-1.225 1.232H1.13c-.093 0-.188 0-.282.095-.094.095-.094.19-.094.284v.948c0 .094 0 .19.094.284.094.094.19.094.283.094h.095c1.602 0 2.92-1.326 2.92-2.842V6.82c0-.094 0-.188-.093-.283-.094-.095-.094-.19-.283-.19z" fill-rule="evenodd" fill="#3e414f"/><path d="M4.146 5.78C3.958.946.754.757.754.757c-.19 4.358 3.392 5.02 3.392 5.02z" fill-rule="evenodd" fill="#44bb6e"/></svg>