<svg width="32" height="32" viewBox="0 0 32 32" fill="none" xmlns="http://www.w3.org/2000/svg">
<circle cx="16" cy="16" r="16" fill="#68D522"/>
<path fill-rule="evenodd" clip-rule="evenodd" d="M20.4701 11.0143C20.4701 11.5596 20.0292 11.9975 19.485 11.9975C18.9407 11.9975 18.5007 11.5596 18.5002 11.0148V9.98519C18.5002 9.43895 18.9402 9 19.485 9C20.0297 9 20.4701 9.43944 20.4701 9.98519V11.0143ZM21.0018 10.7041H22.9849L23 23.2L22.0007 23.2029H10.0008H9V10.6792L11.0011 10.7041V11.205C11.0011 12.0322 11.6732 12.7052 12.5009 12.7052C13.3285 12.7052 14.0011 12.0317 14.0011 11.205V10.7041H18.0028V11.205C18.0028 12.0317 18.673 12.7052 19.5021 12.7052C20.3302 12.7052 21.0018 12.0317 21.0018 11.205V10.7041ZM10.0008 22.2055H21.9997H22.0007V14.2049H10.0008V22.2055ZM12.485 11.9975C13.0293 11.9975 13.4707 11.5596 13.4707 11.0143V9.98519C13.4707 9.43895 13.0293 9 12.485 9C11.9407 9 11.5008 9.43895 11.5008 9.98519V11.0148C11.5008 11.5596 11.9402 11.9975 12.485 11.9975ZM14.0042 15.2785H15.58V16.6694H14.0042V15.2785ZM18.129 15.2785H16.5517V16.6694H18.129V15.2785ZM18.915 15.2785H20.4908V16.6694H18.915V15.2785ZM15.58 17.5883H14.0042V18.9783H15.58V17.5883ZM16.5517 17.5883H18.129V18.9783H16.5517V17.5883ZM20.4908 17.5883H18.915V18.9783H20.4908V17.5883ZM14.0042 19.944H15.58V21.334H14.0042V19.944ZM13.0757 17.5883H11.5008V18.9783H13.0757V17.5883ZM11.5008 19.944H13.0757V21.334H11.5008V19.944ZM18.129 19.944H16.5517V21.334H18.129V19.944ZM18.915 19.944H20.4908V21.334H18.915V19.944Z" fill="white"/>
</svg>
