<svg width="32" height="32" viewBox="0 0 32 32" fill="none" xmlns="http://www.w3.org/2000/svg">
<circle cx="16" cy="16" r="16" fill="#68D522"/>
<path d="M18.238 11.6789C18.238 11.2922 18.0526 10.9331 17.7474 10.7282L15.25 9.05213C15.1516 8.98604 15.0276 8.98257 14.9262 9.04298C14.8244 9.10339 14.7616 9.21818 14.7616 9.34284V13.907H18.238V11.6789Z" fill="white"/>
<path d="M19.2846 15.7846H19.0277C19.1436 15.6581 19.2158 15.4849 19.2158 15.2936C19.2158 14.9069 18.9238 14.5936 18.5639 14.5936H14.4357C14.0758 14.5936 13.7839 14.9069 13.7839 15.2936C13.7839 15.4849 13.856 15.6581 13.9719 15.7846H13.7155C13.3204 15.7846 13 16.1287 13 16.5532V22.7958C13 22.9086 13.0853 23 13.1902 23C15.9089 23 13.1285 23 19.8099 23C19.9147 23 20 22.9086 20 22.7957V16.5532C20 16.1287 19.6796 15.7846 19.2846 15.7846Z" fill="white"/>
</svg>
