<svg xmlns="http://www.w3.org/2000/svg" width="51" height="18" viewBox="0 0 51 18">
    <g fill="none" fill-rule="evenodd">
        <path fill="#323648" d="M7.059 5.888h-.993c-.098 0-.198 0-.297.1-.1.1-.1.198-.1.298v7.384c0 .1 0 .2.1.3.099.1.199.1.297.1h.993c.1 0 .199 0 .298-.1.099-.1.099-.2.099-.3V6.287c0-.1 0-.2-.099-.3-.1 0-.199-.099-.298-.099zm9.131 0h-.794c-.298 0-.496.1-.595.2l-2.283 4.988-2.184-4.989c-.1-.2-.198-.2-.397-.2H8.845c-.198 0-.297 0-.297.1-.1.1-.1.2 0 .3l3.573 7.683c.099.1.198.2.397.2h.099c.198 0 .298-.1.298-.2l3.573-7.683c.1-.1.1-.2 0-.3 0 0-.099-.099-.298-.099zm4.863-.2c-1.19 0-2.183.4-2.977 1.298-.794.798-1.29 1.795-1.29 2.993s.396 2.195 1.29 2.994c.794.897 1.787 1.296 2.977 1.296 1.191 0 2.184-.399 2.978-1.296.794-.899 1.191-1.897 1.191-2.994 0-1.197-.397-2.195-1.29-2.993-.794-.799-1.787-1.298-2.878-1.298zm1.688 6.187c-.497.498-1.092.797-1.787.797-.695 0-1.29-.2-1.787-.698-.496-.499-.695-1.098-.695-1.896 0-.698.199-1.396.695-1.796.496-.499 1.092-.699 1.787-.699.694 0 1.29.2 1.786.699.496.499.695 1.098.695 1.796 0 .699-.199 1.298-.695 1.796l.001.001zm8.436-1.697c-.299-.2-.596-.4-.796-.5-.297-.1-.595-.3-1.09-.498a5.382 5.382 0 0 1-1.092-.599c-.199-.2-.398-.399-.398-.598 0-.2.1-.4.299-.5.198-.1.397-.2.794-.2.596 0 1.091.1 1.787.4.297.1.396.1.495-.2l.299-.598c.098-.2.098-.4-.199-.599-.595-.399-1.39-.599-2.382-.599-.894 0-1.588.2-2.085.699-.496.498-.695.997-.695 1.596 0 .599.199 1.098.596 1.497.397.399.893.698 1.687 1.097.595.3 1.092.499 1.39.698.297.2.397.4.397.7 0 .2-.1.4-.298.598-.198.1-.496.2-.794.2-.595 0-1.29-.2-2.085-.6-.297-.099-.397-.099-.495.1l-.398.799c-.099.2 0 .3.1.4.794.598 1.688.797 2.68.797.893 0 1.588-.2 2.184-.698.495-.498.794-.997.794-1.695 0-.4-.1-.699-.199-.998 0-.2-.198-.5-.496-.699zm3.573-4.29h-.992c-.1 0-.199 0-.298.099-.099.1-.099.2-.099.3v7.383c0 .1 0 .2.099.3.099.1.198.1.298.1h.992c.1 0 .199 0 .298-.1.1-.1.1-.2.1-.3V6.287c0-.1 0-.2-.1-.3-.1 0-.199-.099-.297-.099h-.001zm7.147 6.486c-.1-.2-.298-.3-.496-.2-.398.3-.894.4-1.29.4a.756.756 0 0 1-.497-.2c-.099-.1-.198-.3-.198-.699V7.284h2.183c.1 0 .199 0 .298-.1.099 0 .099-.1.099-.199v-.699c0-.1 0-.2-.099-.3-.1-.098-.198-.098-.297-.098h-2.185V3.592c0-.1 0-.2-.099-.3-.1 0-.1-.1-.298-.1h-.993c-.099 0-.198 0-.297.1-.1.1-.1.2-.1.3v2.296h-.992c-.297 0-.397.1-.397.399v.698c0 .1 0 .2.1.299.099.1.197.1.297.1h.992v4.49c0 .798.199 1.397.497 1.796.297.4.893.6 1.588.6.397 0 .893-.1 1.29-.2s.794-.3.992-.399c.2-.1.299-.299.2-.498l-.298-.799zm7.741-5.589c-.695-.698-1.588-1.098-2.68-1.098-1.191 0-2.183.4-2.977 1.298-.794.798-1.19 1.796-1.19 2.994 0 1.197.396 2.195 1.19 3.093.794.798 1.786 1.197 2.978 1.197 1.29 0 2.282-.299 3.076-.998.199-.2.199-.4 0-.599l-.495-.698c-.1-.2-.298-.2-.497 0-.695.499-1.29.698-1.985.698-.695 0-1.29-.2-1.786-.698-.497-.499-.695-.998-.695-1.597h5.657c.198 0 .397-.1.397-.399V9.38c.1-.998-.297-1.896-.992-2.595h-.001zM44.676 9.08c.1-.498.298-.998.695-1.297.398-.399.894-.499 1.49-.499.595 0 1.091.2 1.39.499.396.4.595.798.595 1.298h-4.171l.002-.001zM3.288 5.888H.508c-.099 0-.198 0-.297.1-.1.1-.1.199-.1.299v.998c0 .1 0 .2.1.3.099.1.198.1.297.1h1.39v7.183c0 .699-.595 1.298-1.29 1.298h-.1c-.099 0-.198 0-.297.1-.1.1-.1.2-.1.299v.997c0 .1 0 .2.1.3.099.1.198.1.297.1h.1c1.687 0 3.076-1.398 3.076-2.994V6.386c0-.1 0-.2-.1-.299-.099-.1-.099-.2-.297-.2l.001.001z"/>
        <path fill="#18C139" d="M3.685 5.288C3.485.2.111 0 .111 0c-.198 4.59 3.574 5.288 3.574 5.288z"/>
    </g>
</svg>
