<svg width="24" height="24" viewBox="0 0 24 24" fill="none" xmlns="http://www.w3.org/2000/svg">
<g clip-path="url(#clip0)">
<path d="M14.7495 6.0027L13.0637 6C11.1698 6 9.94587 7.25572 9.94587 9.19928V10.6744H8.25088C8.10442 10.6744 7.98581 10.7931 7.98581 10.9396V13.0768C7.98581 13.2233 8.10455 13.3419 8.25088 13.3419H9.94587V18.7348C9.94587 18.8813 10.0645 18.9999 10.2109 18.9999H12.4224C12.5689 18.9999 12.6875 18.8811 12.6875 18.7348V13.3419H14.6693C14.8158 13.3419 14.9344 13.2233 14.9344 13.0768L14.9352 10.9396C14.9352 10.8693 14.9072 10.8019 14.8576 10.7521C14.808 10.7024 14.7403 10.6744 14.67 10.6744H12.6875V9.42392C12.6875 8.82291 12.8307 8.5178 13.6136 8.5178L14.7493 8.51739C14.8956 8.51739 15.0142 8.39865 15.0142 8.25232V6.26778C15.0142 6.12158 14.8957 6.00298 14.7495 6.0027Z" fill="white"/>
</g>
<defs>
<clipPath id="clip0">
<rect x="5" y="6" width="13" height="12.9999" fill="white"/>
</clipPath>
</defs>
</svg>
