<svg width="32" height="32" viewBox="0 0 32 32" fill="none" xmlns="http://www.w3.org/2000/svg">
<circle cx="16" cy="16" r="16" fill="#68D522"/>
<path d="M23.3332 15.3333H18.8106V14.7689C18.8106 14.597 18.7442 14.4348 18.6298 14.3129L20.5352 12.4076C20.7956 12.1472 20.7956 11.7251 20.5352 11.4648C20.2748 11.2044 19.8528 11.2044 19.5924 11.4648L17.4548 13.6024L16.6666 13.1483V8.66669C16.6666 8.2985 16.3681 8 15.9999 8C15.6318 8 15.3333 8.29847 15.3333 8.66669V13.1483L14.5451 13.6024L12.4075 11.4647C12.1471 11.2044 11.725 11.2044 11.4647 11.4647C11.2043 11.7251 11.2043 12.1472 11.4647 12.4075L13.3701 14.3129C13.2557 14.4348 13.1893 14.597 13.1893 14.7688V15.3333H8.66668C8.29847 15.3333 8 15.6318 8 16C8 16.3682 8.29847 16.6667 8.66668 16.6667H13.1893V17.2311C13.1893 17.403 13.2558 17.5652 13.3701 17.6871L11.4647 19.5925C11.2043 19.8528 11.2043 20.2749 11.4647 20.5353C11.5949 20.6654 11.7655 20.7305 11.9361 20.7305C12.1068 20.7305 12.2773 20.6654 12.4076 20.5353L14.5452 18.3976L15.3333 18.8517V23.3333C15.3333 23.7015 15.6318 24 16 24C16.3682 24 16.6667 23.7015 16.6667 23.3333V18.8517L17.4548 18.3976L19.5924 20.5353C19.7226 20.6654 19.8933 20.7305 20.0639 20.7305C20.2345 20.7305 20.4051 20.6654 20.5353 20.5353C20.7957 20.2749 20.7957 19.8528 20.5353 19.5925L18.6299 17.6871C18.7443 17.5652 18.8107 17.403 18.8107 17.2311V16.6667H23.3333C23.7015 16.6667 24 16.3682 24 16C23.9999 15.6318 23.7014 15.3333 23.3332 15.3333ZM14.5226 16.8458V15.1542L15.9999 14.3029L17.4772 15.1541V16.8458L15.9999 17.697L14.5226 16.8458Z" fill="white"/>
<path d="M15.9999 12.0334C15.8293 12.0334 15.6587 11.9683 15.5285 11.8381L13.5958 9.90534C13.3354 9.64497 13.3354 9.22287 13.5958 8.96253C13.8561 8.7022 14.2782 8.7022 14.5386 8.96253L15.9999 10.4239L17.4612 8.9625C17.7216 8.70216 18.1437 8.70216 18.4041 8.9625C18.6644 9.22287 18.6644 9.64494 18.4041 9.90531L16.4713 11.8381C16.3412 11.9682 16.1706 12.0334 15.9999 12.0334Z" fill="white"/>
<path d="M17.9327 23.2327C17.7621 23.2327 17.5915 23.1677 17.4613 23.0375L16 21.5761L14.5387 23.0375C14.2783 23.2978 13.8562 23.2978 13.5958 23.0375C13.3355 22.7771 13.3355 22.355 13.5958 22.0947L15.5286 20.1619C15.7889 19.9016 16.211 19.9016 16.4714 20.1619L18.4041 22.0947C18.6645 22.355 18.6645 22.7772 18.4041 23.0375C18.2739 23.1676 18.1033 23.2327 17.9327 23.2327Z" fill="white"/>
<path d="M9.43397 18.5994C9.26335 18.5994 9.09273 18.5343 8.96254 18.4042C8.7022 18.1438 8.7022 17.7217 8.96254 17.4614L10.4239 16L8.96254 14.5386C8.7022 14.2783 8.7022 13.8562 8.96254 13.5958C9.22291 13.3355 9.645 13.3355 9.90534 13.5958L11.8381 15.5286C12.0984 15.7889 12.0984 16.211 11.8381 16.4714L9.90534 18.4041C9.77519 18.5343 9.60457 18.5994 9.43397 18.5994Z" fill="white"/>
<path d="M22.566 18.5994C22.3953 18.5994 22.2247 18.5343 22.0946 18.4042L20.1618 16.4714C19.9015 16.2111 19.9015 15.789 20.1618 15.5286L22.0946 13.5959C22.3549 13.3355 22.777 13.3355 23.0374 13.5959C23.2977 13.8562 23.2977 14.2783 23.0374 14.5387L21.5761 16L23.0374 17.4614C23.2977 17.7217 23.2977 18.1438 23.0374 18.4042C22.9072 18.5343 22.7365 18.5994 22.566 18.5994Z" fill="white"/>
</svg>
