<?xml version="1.0" standalone="no"?>
<!DOCTYPE svg PUBLIC "-//W3C//DTD SVG 1.1//EN" "http://www.w3.org/Graphics/SVG/1.1/DTD/svg11.dtd" >
<svg xmlns="http://www.w3.org/2000/svg" xmlns:xlink="http://www.w3.org/1999/xlink" version="1.1">
<metadata>
Created by FontForge 20161013 at Thu Feb 20 08:22:57 2014
 By ,,,
Copyright (c) 2012 by Fontsmith Ltd. All rights reserved.
</metadata>
<defs>
<font id="FSElliotPro-Light" horiz-adv-x="576" >
  <font-face 
    font-family="FS Elliot Pro"
    font-weight="300"
    font-stretch="normal"
    units-per-em="1000"
    panose-1="2 0 5 3 4 0 0 2 0 4"
    ascent="800"
    descent="-200"
    x-height="483"
    cap-height="672"
    bbox="-170 -269 1190 890"
    underline-thickness="50"
    underline-position="-200"
    unicode-range="U+000D-FB04"
  />
<missing-glyph horiz-adv-x="500" 
d="M488 0h-476v672h476v-672zM60 580v-488l162 244zM250 292l-162 -244h324zM412 624h-324l162 -244zM440 580l-162 -244l162 -244v488z" />
    <glyph glyph-name="f_f" unicode="ff" horiz-adv-x="660" 
d="M135 444h-106v39h106v102q0 58 37 94.5t96 36.5q47 0 89 -13l-8 -39q-38 11 -72 11q-42 0 -68 -25.5t-26 -67.5v-99h252v102q0 58 37 94.5t96 36.5q47 0 89 -13l-8 -39q-38 11 -72 11q-42 0 -68 -25.5t-26 -67.5v-99h148v-39h-148v-444h-48v444h-252v-444h-48v444z" />
    <glyph glyph-name="fi" unicode="fi" horiz-adv-x="554" 
d="M135 444h-106v39h106v81q0 66 46 109t116 43q65 0 139 -25l-10 -38q-75 23 -125 23q-51 0 -84.5 -32t-33.5 -81v-80h284v-483h-48v444h-236v-444h-48v444z" />
    <glyph glyph-name="fl" unicode="fl" horiz-adv-x="602" 
d="M135 444h-106v39h106v81q0 68 45.5 110t117.5 42q56 0 169 -18v-604q0 -31 17.5 -48t47.5 -17q23 0 50 7l7 -39q-37 -9 -65 -9q-48 0 -76.5 27.5t-28.5 74.5v574q-69 12 -118 12q-53 0 -85.5 -31t-32.5 -82v-80h149v-39h-149v-444h-48v444z" />
    <glyph glyph-name="f_f_i" unicode="ffi" horiz-adv-x="854" 
d="M135 444h-106v39h106v102q0 58 37 94.5t96 36.5q47 0 89 -13l-8 -39q-38 11 -72 11q-42 0 -68 -25.5t-26 -67.5v-99h252v81q0 66 45 109q46 43 116 43q66 0 140 -25l-11 -38q-72 23 -123 23q-52 0 -85.5 -32t-33.5 -81v-80h283v-483h-48v444h-235v-444h-48v444h-252v-444
h-48v444z" />
    <glyph glyph-name="f_f_l" unicode="ffl" horiz-adv-x="902" 
d="M135 444h-106v39h106v102q0 58 37 94.5t96 36.5q47 0 89 -13l-8 -39q-38 11 -72 11q-42 0 -68 -25.5t-26 -67.5v-99h252v81q0 68 45.5 110t117.5 42q56 0 168 -18v-604q0 -30 18 -47.5t48 -17.5q23 0 50 7l7 -39q-39 -9 -66 -9q-48 0 -76.5 27.5t-28.5 74.5v574
q-68 12 -117 12q-53 0 -85.5 -31t-32.5 -82v-80h148v-39h-148v-444h-48v444h-252v-444h-48v444z" />
    <glyph glyph-name=".notdef" horiz-adv-x="500" 
d="M488 0h-476v672h476v-672zM60 580v-488l162 244zM250 292l-162 -244h324zM412 624h-324l162 -244zM440 580l-162 -244l162 -244v488z" />
    <glyph glyph-name=".null" horiz-adv-x="0" 
 />
    <glyph glyph-name="nonmarkingreturn" horiz-adv-x="333" 
 />
    <glyph glyph-name="NULL" horiz-adv-x="0" 
 />
    <glyph glyph-name="NULL" horiz-adv-x="0" 
 />
    <glyph glyph-name="CR" unicode="&#xd;" horiz-adv-x="240" 
 />
    <glyph glyph-name="space" unicode=" " horiz-adv-x="240" 
 />
    <glyph glyph-name="exclam" unicode="!" horiz-adv-x="252" 
d="M126 -9q-24 0 -33.5 18.5t0 37.5t33.5 19q23 0 32.5 -18.5t0 -37.5t-32.5 -19zM106 201l-5 471h50l-5 -471h-40z" />
    <glyph glyph-name="quotedbl" unicode="&#x22;" horiz-adv-x="378" 
d="M83 466l-5 206h47l-4 -206h-38zM257 466l-5 206h47l-4 -206h-38z" />
    <glyph glyph-name="numbersign" unicode="#" horiz-adv-x="646" 
d="M153 194h-137v39h144l40 206h-137v39h144l38 198l39 -5l-37 -193h206l38 198l38 -5l-36 -193h137v-39h-144l-40 -206h137v-39h-144l-38 -198l-39 5l36 193h-205l-38 -198l-39 5zM240 439l-40 -206h206l39 206h-205z" />
    <glyph glyph-name="dollar" unicode="$" 
d="M90 80l13 39q104 -43 182 -43q69 0 111 31t42 83q0 47 -35.5 76t-86 43t-101 30t-86 52.5t-35.5 94.5q0 63 47 103t126 45v166h42v-165q65 -4 157 -40l-13 -39q-95 39 -162 39t-108 -30t-41 -79q0 -47 35.5 -74.5t86 -41.5t101 -30.5t86 -53t35.5 -96.5
q0 -65 -48.5 -106.5t-128.5 -45.5v-166h-42v165q-79 3 -177 43z" />
    <glyph glyph-name="percent" unicode="%" horiz-adv-x="864" 
d="M50 504q0 80 45 129q45 51 114 51q70 0 115 -51q45 -49 45 -129q0 -79 -45 -130q-45 -50 -115 -50t-115 50q-44 52 -44 130zM89 504q0 -66 33.5 -106.5t86.5 -40.5q54 0 87.5 40.5t33.5 106.5q0 65 -33.5 106t-87.5 41q-53 0 -86.5 -41t-33.5 -106zM194 -11l-28 22
l504 672l28 -22zM495 168q0 79 44 129q45 51 116 51q69 0 114 -51q45 -49 45 -129q0 -79 -45 -130q-44 -50 -114 -50q-71 0 -116 50q-44 50 -44 130zM534 168q0 -66 33.5 -106.5t87.5 -40.5q53 0 86.5 40.5t33.5 106.5q0 65 -33.5 106t-86.5 41q-54 0 -87.5 -41t-33.5 -106z
" />
    <glyph glyph-name="ampersand" unicode="&#x26;" horiz-adv-x="633" 
d="M49 179q0 115 164 204q-50 51 -71 85.5t-21 74.5q0 62 44 101.5t114 39.5q64 0 107 -38q43 -37 43 -94q0 -50 -34.5 -90.5t-117.5 -87.5l198 -213q44 74 44 162h42q0 -106 -56 -194l119 -129h-56l-93 100q-92 -112 -210 -112q-94 0 -156 53q-60 54 -60 138zM94 182
q0 -69 49 -112t125 -43q105 0 180 102l-211 228q-143 -81 -143 -175zM165 542q0 -32 20 -63.5t67 -76.5q72 39 102.5 73t30.5 74q0 42 -30 69t-76 27q-51 0 -82.5 -28.5t-31.5 -74.5z" />
    <glyph glyph-name="quotesingle" unicode="'" horiz-adv-x="204" 
d="M83 466l-5 206h47l-4 -206h-38z" />
    <glyph glyph-name="parenleft" unicode="(" horiz-adv-x="329" 
d="M87 288q0 250 168 433l34 -25q-157 -166 -157 -408q0 -243 157 -408l-34 -25q-168 183 -168 433z" />
    <glyph glyph-name="parenright" unicode=")" horiz-adv-x="329" 
d="M74 -145l-35 25q157 165 157 408q0 242 -157 408l35 25q167 -179 167 -433q0 -251 -167 -433z" />
    <glyph glyph-name="asterisk" unicode="*" horiz-adv-x="486" 
d="M214 464l-165 54l12 35l164 -54v173h36v-173l164 54l12 -35l-166 -54l102 -140l-29 -21l-101 141l-102 -141l-29 21z" />
    <glyph glyph-name="plus" unicode="+" 
d="M267 267h-209v42h209v209h42v-209h209v-42h-209v-209h-42v209z" />
    <glyph glyph-name="comma" unicode="," horiz-adv-x="236" 
d="M65 -160l-17 23q74 56 74 131q-18 -2 -31 9t-13 28t11.5 28.5t28.5 11.5q21 0 33 -17t12 -45q0 -105 -98 -169z" />
    <glyph glyph-name="hyphen" unicode="-" horiz-adv-x="320" 
d="M291 228h-262v39h262v-39z" />
    <glyph glyph-name="period" unicode="." horiz-adv-x="236" 
d="M89 2q-11 12 -11 29t11 28q12 12 29 12t28 -12q12 -11 12 -28t-12 -29q-11 -11 -28 -11t-29 11z" />
    <glyph glyph-name="slash" unicode="/" horiz-adv-x="384" 
d="M60 -136l-40 13l304 835l40 -13z" />
    <glyph glyph-name="zero" unicode="0" 
d="M114 82q-65 95 -65 254q0 158 65 253t174 95t174 -95t65 -253q0 -159 -65 -254q-64 -94 -174 -94t-174 94zM94 336q0 -139 53 -224q53 -83 141 -83t141 83q53 85 53 224q0 140 -53 223q-53 84 -141 84t-141 -84q-53 -83 -53 -223z" />
    <glyph glyph-name="one" unicode="1" 
d="M132 514l-18 35l212 123h40v-672h-47v622z" />
    <glyph glyph-name="two" unicode="2" 
d="M479 0h-419v32l278 278q86 86 86 177q0 69 -44 112t-115 43q-77 0 -175 -60l-20 37q107 65 202 65q88 0 143 -54q56 -53 56 -138q0 -108 -94 -202l-250 -249h352v-41z" />
    <glyph glyph-name="three" unicode="3" 
d="M62 37l16 38q99 -46 189 -46q73 0 119 40.5t46 105.5q0 66 -54 108t-141 42h-36v38h36q79 0 129 39q51 40 51 103q0 61 -41.5 99.5t-107.5 38.5q-82 0 -174 -42l-16 38q96 45 195 45q85 0 138 -49q54 -49 54 -126q0 -60 -36.5 -103.5t-97.5 -59.5q68 -18 109 -65.5
t41 -109.5q0 -81 -58 -132q-59 -51 -150 -51q-107 0 -211 49z" />
    <glyph glyph-name="four" unicode="4" 
d="M371 167h-335v35l335 470h45v-466h111v-39h-111v-167h-45v167zM371 607l-286 -401h286v401z" />
    <glyph glyph-name="five" unicode="5" 
d="M71 45l20 37q91 -53 175 -53q82 0 131.5 45t49.5 119q0 76 -49 120.5t-136 44.5q-69 0 -149 -19v333h357v-41h-314v-249q59 13 117 13q102 0 161.5 -55t59.5 -148q0 -90 -62 -147t-163 -57t-198 57z" />
    <glyph glyph-name="six" unicode="6" 
d="M70 292q0 188 69 290t197 102q80 0 154 -38l-17 -37q-73 35 -136 35q-108 0 -165 -88.5t-56 -257.5q19 56 72.5 90.5t121.5 34.5q94 0 152 -60q59 -59 59 -154q0 -93 -63 -158q-62 -63 -154 -63q-110 0 -172 79.5t-62 224.5zM124 225q0 -86 50 -142q51 -55 129 -55
q74 0 123 52q50 53 50 128q0 79 -47.5 127t-125.5 48q-75 0 -127 -46q-52 -45 -52 -112z" />
    <glyph glyph-name="seven" unicode="7" 
d="M427 631h-354v41h408v-32l-277 -640h-50z" />
    <glyph glyph-name="eight" unicode="8" 
d="M62 168q0 67 44.5 114t124.5 62q-69 15 -111 60.5t-42 107.5q0 75 59 123q59 49 151 49t150 -49q60 -48 60 -123q0 -62 -42 -107.5t-111 -60.5q80 -15 124.5 -62t44.5 -114q0 -80 -63 -130q-62 -50 -163 -50q-99 0 -163 50q-63 50 -63 130zM110 171q0 -65 49.5 -104.5
t128.5 -39.5t128.5 39.5t49.5 104.5q0 61 -47.5 101.5t-130.5 52.5q-83 -12 -130.5 -52.5t-47.5 -101.5zM124 509q0 -58 44.5 -96t119.5 -50q75 12 119.5 50t44.5 96t-47 97t-117 39q-72 0 -118 -39t-46 -97z" />
    <glyph glyph-name="nine" unicode="9" 
d="M55 463q0 93 62 157q63 64 155 64q110 0 172 -79.5t62 -224.5q0 -189 -68.5 -290.5t-197.5 -101.5q-80 0 -154 38l17 37q73 -35 136 -35q108 0 165 88.5t56 257.5q-19 -56 -72.5 -90.5t-121.5 -34.5q-94 0 -153 59q-58 59 -58 155zM100 464q0 -79 47.5 -127t125.5 -48
q75 0 127 45q52 46 52 113q0 86 -50 142q-49 55 -129 55q-74 0 -123 -52q-50 -53 -50 -128z" />
    <glyph glyph-name="colon" unicode=":" horiz-adv-x="252" 
d="M97 2q-11 12 -11 29t11 28q12 12 29 12t28 -12q12 -11 12 -28t-12 -29q-11 -11 -28 -11t-29 11zM97 422q-11 12 -11 29t11 28q12 12 29 12t28 -12q12 -11 12 -28t-12 -29q-11 -11 -28 -11t-29 11z" />
    <glyph glyph-name="semicolon" unicode=";" horiz-adv-x="252" 
d="M73 -160l-17 23q74 56 74 131q-18 -2 -31 9t-13 28t11 28.5t29 11.5q20 0 32.5 -17t12.5 -45q0 -105 -98 -169zM97 422q-11 12 -11 29t11 28q12 12 29 12t28 -12q12 -11 12 -28t-12 -29q-11 -11 -28 -11t-29 11z" />
    <glyph glyph-name="less" unicode="&#x3c;" 
d="M505 59l-447 208v42l447 208l17 -40l-407 -189l407 -189z" />
    <glyph glyph-name="equal" unicode="=" 
d="M518 165h-460v42h460v-42zM518 369h-460v42h460v-42z" />
    <glyph glyph-name="greater" unicode="&#x3e;" 
d="M71 59l-17 40l407 189l-407 189l17 40l447 -208v-42z" />
    <glyph glyph-name="question" unicode="?" horiz-adv-x="454" 
d="M56 587l-20 36q85 61 181 61q80 0 133 -50q52 -49 52 -125q0 -40 -17.5 -75.5t-43 -61.5t-50.5 -50.5t-42.5 -53.5t-17.5 -59v-8h-40v11q0 34 17 65.5t40.5 56t47.5 49.5t41 56t17 65q0 60 -40 99t-102 39q-76 0 -156 -55zM173 30q0 23 24 33t41 -7q17 -16 7 -40.5
t-34 -24.5q-17 0 -27.5 11t-10.5 28z" />
    <glyph glyph-name="at" unicode="@" horiz-adv-x="966" 
d="M57 241q-3 192 123 320.5t315 125.5q178 3 297.5 -111.5t116.5 -284.5q0 -120 -50 -194t-131 -74q-42 0 -71 25t-33 65q-46 -90 -153 -90q-81 0 -135 61q-53 62 -53 157q0 94 53 156t135 62q102 0 146 -86l5 76h40v-308q0 -36 18.5 -58t51.5 -22q61 0 98 62.5t37 164.5
q2 156 -105 259t-267 101q-174 0 -285 -114t-111 -293q-2 -175 111.5 -292.5t284.5 -114.5q115 0 249 74l20 -34q-148 -78 -269 -78q-192 0 -315 125t-123 320zM330 241q0 -79 42 -128q44 -50 108 -50q60 0 97.5 40t37.5 103v71q0 63 -37.5 103t-97.5 40q-64 0 -108 -50
q-42 -50 -42 -129z" />
    <glyph glyph-name="A" unicode="A" horiz-adv-x="663" 
d="M81 0h-51l278 672h47l278 -672h-51l-82 200h-337zM332 613l-154 -374h307z" />
    <glyph glyph-name="B" unicode="B" horiz-adv-x="646" 
d="M384 0h-274v672h258q84 0 136 -48q53 -48 53 -123q0 -52 -29 -93.5t-80 -60.5q62 -15 97.5 -60t35.5 -108q0 -80 -56 -130q-55 -49 -141 -49zM158 326v-287h220q68 0 111 40.5t43 103.5t-43 103t-111 40h-220zM158 633v-271h205q64 0 105 38t41 97q0 60 -41 98t-105 38
h-205z" />
    <glyph glyph-name="C" unicode="C" horiz-adv-x="643" 
d="M57 336q0 154 89 251t232 97q114 0 218 -72l-22 -35q-92 65 -191 65q-124 0 -200 -85q-76 -83 -76 -221q0 -137 76 -222q77 -84 200 -84q99 0 191 65l22 -35q-104 -72 -218 -72q-142 0 -232 97q-89 98 -89 251z" />
    <glyph glyph-name="D" unicode="D" horiz-adv-x="711" 
d="M316 0h-206v672h206q151 0 244 -93q94 -93 94 -243q0 -149 -94 -243q-94 -93 -244 -93zM159 631v-590h152q129 0 211 82t82 213q0 130 -82 212q-83 83 -211 83h-152z" />
    <glyph glyph-name="E" unicode="E" horiz-adv-x="595" 
d="M537 0h-427v672h411v-40h-362v-268h330v-40h-330v-284h378v-40z" />
    <glyph glyph-name="F" unicode="F" horiz-adv-x="579" 
d="M159 0h-49v672h411v-41h-362v-291h330v-41h-330v-299z" />
    <glyph glyph-name="G" unicode="G" horiz-adv-x="695" 
d="M57 336q0 153 91.5 250.5t237.5 97.5q110 0 226 -65l-20 -36q-106 60 -201 60q-126 0 -206 -86t-80 -221q0 -134 82 -220.5t210 -86.5q95 0 178 39v227h-181v39h227v-293q-117 -53 -227 -53q-147 -2 -243 97t-94 251z" />
    <glyph glyph-name="H" unicode="H" horiz-adv-x="759" 
d="M159 0h-49v672h49v-308h441v308h49v-672h-49v324h-441v-324z" />
    <glyph glyph-name="I" unicode="I" horiz-adv-x="269" 
d="M159 0h-49v672h49v-672z" />
    <glyph glyph-name="J" unicode="J" horiz-adv-x="438" 
d="M28 5l8 40q58 -15 106 -15q60 0 98.5 38t38.5 98v506h49v-509q0 -76 -50 -126q-49 -49 -127 -49q-57 0 -123 17z" />
    <glyph glyph-name="K" unicode="K" horiz-adv-x="652" 
d="M158 0h-48v672h48v-378l377 378h60l-313 -314l328 -358h-61l-301 327l-90 -89v-238z" />
    <glyph glyph-name="L" unicode="L" horiz-adv-x="531" 
d="M502 0h-392v672h49v-631h343v-41z" />
    <glyph glyph-name="M" unicode="M" horiz-adv-x="847" 
d="M156 0h-46v672h49l265 -358l264 358h49v-672h-46v603l-252 -343h-31l-252 343v-603z" />
    <glyph glyph-name="N" unicode="N" horiz-adv-x="759" 
d="M156 0h-46v672h49l444 -603v603h46v-672h-49l-444 603v-603z" />
    <glyph glyph-name="O" unicode="O" horiz-adv-x="759" 
d="M380 684q139 2 231.5 -97.5t90.5 -250.5q2 -151 -90.5 -250.5t-231.5 -97.5q-140 -2 -232.5 97.5t-90.5 250.5q-2 151 90.5 250.5t232.5 97.5zM380 29q118 0 195 86q77 88 77 221q0 134 -77 220q-77 87 -195 87q-118 2 -196.5 -86.5t-76.5 -220.5q-2 -132 76.5 -220.5
t196.5 -86.5z" />
    <glyph glyph-name="P" unicode="P" horiz-adv-x="614" 
d="M158 0h-48v672h238q94 0 156 -57q61 -55 61 -146q0 -89 -61 -146q-62 -57 -156 -57h-190v-266zM158 631v-325h185q76 0 124 45q49 46 49 118t-49 117q-48 45 -124 45h-185z" />
    <glyph glyph-name="Q" unicode="Q" horiz-adv-x="759" 
d="M380 684q139 2 231.5 -97.5t90.5 -250.5q0 -103 -43 -183.5t-119 -122.5l176 -129l-26 -32l-192 141q-54 -22 -118 -22q-140 -2 -232.5 97.5t-90.5 250.5q-2 151 90.5 250.5t232.5 97.5zM380 29q118 0 195 86q77 88 77 221q0 134 -77 220q-77 87 -195 87
q-118 2 -196.5 -86.5t-76.5 -220.5q-2 -132 76.5 -220.5t196.5 -86.5z" />
    <glyph glyph-name="R" unicode="R" horiz-adv-x="646" 
d="M158 0h-48v672h240q91 0 149 -55q59 -54 59 -140q0 -78 -49 -130.5t-129 -59.5l204 -287h-56l-198 282h-172v-282zM158 631v-309h186q73 0 119.5 43t46.5 112q0 67 -47 111q-46 43 -119 43h-186z" />
    <glyph glyph-name="S" unicode="S" horiz-adv-x="574" 
d="M57 41l13 39q134 -51 214 -51q83 0 133.5 37.5t50.5 97.5q0 42 -22.5 71.5t-58.5 46t-79.5 29t-86.5 27t-79 34t-58.5 55t-22.5 85.5q0 78 63 124q63 48 163 48q95 0 205 -45l-13 -39q-104 43 -189 43q-81 0 -130.5 -36.5t-49.5 -94.5t41.5 -89t118.5 -55
q115 -32 157 -55q89 -51 89 -149q0 -78 -63 -128q-63 -48 -166 -48q-101 0 -230 53z" />
    <glyph glyph-name="T" unicode="T" horiz-adv-x="595" 
d="M273 631h-244v41h537v-41h-244v-631h-49v631z" />
    <glyph glyph-name="U" unicode="U" horiz-adv-x="759" 
d="M102 252v420h49v-418q0 -99 65 -162q64 -63 164 -63q99 0 163 63q65 63 65 162v418h49v-420q2 -113 -79 -189.5t-198 -74.5q-120 0 -200 74q-78 73 -78 190z" />
    <glyph glyph-name="V" unicode="V" horiz-adv-x="663" 
d="M308 0l-278 672h52l250 -609l249 609h52l-278 -672h-47z" />
    <glyph glyph-name="W" unicode="W" horiz-adv-x="999" 
d="M258 0l-216 672h50l192 -609l192 609h48l191 -609l192 609h50l-216 -672h-50l-191 609l-192 -609h-50z" />
    <glyph glyph-name="X" unicode="X" horiz-adv-x="671" 
d="M100 0h-57l261 344l-249 328h56l225 -295l224 295h56l-249 -328l261 -344h-57l-235 311z" />
    <glyph glyph-name="Y" unicode="Y" horiz-adv-x="588" 
d="M269 295l-247 377h55l217 -332l216 332h56l-248 -377v-295h-49v295z" />
    <glyph glyph-name="Z" unicode="Z" horiz-adv-x="622" 
d="M564 0h-507v30l430 601h-418v41h483v-30l-429 -601h441v-41z" />
    <glyph glyph-name="bracketleft" unicode="[" horiz-adv-x="329" 
d="M286 -131h-170v838h170v-41h-125v-756h125v-41z" />
    <glyph glyph-name="backslash" unicode="\" horiz-adv-x="384" 
d="M324 -136l-304 835l40 13l304 -835z" />
    <glyph glyph-name="bracketright" unicode="]" horiz-adv-x="329" 
d="M42 -131v41h125v756h-125v41h170v-838h-170z" />
    <glyph glyph-name="asciicircum" unicode="^" 
d="M99 206l-40 16l208 450h42l208 -450l-40 -16l-189 409z" />
    <glyph glyph-name="underscore" unicode="_" horiz-adv-x="480" 
d="M0 -148v40h480v-40h-480z" />
    <glyph glyph-name="grave" unicode="`" horiz-adv-x="240" 
d="M155 563l-164 105l24 33l159 -110z" />
    <glyph glyph-name="a" unicode="a" horiz-adv-x="529" 
d="M50 129q0 75 58 116.5t161 41.5q56 0 117 -14v64q0 53 -36 86t-94 33q-77 0 -162 -35l-13 36q93 38 179 38q76 0 124.5 -44t48.5 -114v-260q0 -23 13.5 -36.5t36.5 -13.5q15 0 28 4l5 -38q-27 -5 -43 -5q-36 0 -59 22.5t-23 59.5v18q-24 -47 -71 -73.5t-105 -26.5
q-72 0 -118 40q-47 41 -47 101zM98 131q0 -45 36.5 -75.5t89.5 -30.5q73 0 117.5 46t44.5 121v48q-60 15 -113 15q-83 0 -129 -33t-46 -91z" />
    <glyph glyph-name="b" unicode="b" horiz-adv-x="572" 
d="M126 0h-39v704h48v-311q55 102 171 102q94 0 154 -71q61 -70 61 -183q0 -112 -61 -182q-60 -71 -154 -71q-120 0 -174 104zM134 285v-87q0 -74 45 -122q47 -48 117 -48q78 0 127 60q50 61 50 153q0 93 -50 154q-49 60 -127 60q-70 0 -117 -48q-45 -48 -45 -122z" />
    <glyph glyph-name="c" unicode="c" horiz-adv-x="486" 
d="M50 241q0 112 65 183q66 71 169 71q86 0 162 -54l-21 -34q-67 47 -136 47q-83 0 -137 -60q-53 -59 -53 -153t53 -153q54 -59 137 -59q69 0 136 47l21 -35q-77 -53 -162 -53q-103 0 -169 71q-65 71 -65 182z" />
    <glyph glyph-name="d" unicode="d" horiz-adv-x="572" 
d="M50 241q0 113 60 183q62 71 156 71q118 0 170 -102v311h48v-704h-39l-6 92q-54 -104 -173 -104q-94 0 -156 71q-60 71 -60 182zM99 241q0 -94 49 -153q49 -60 127 -60q72 0 117 48t45 122v87q0 75 -45 122.5t-117 47.5q-77 0 -127 -60q-49 -59 -49 -154z" />
    <glyph glyph-name="e" unicode="e" horiz-adv-x="529" 
d="M50 241q0 113 63 183q63 71 163 71q92 0 151 -68t59 -176v-20h-388q3 -92 58 -148q56 -57 141 -57q69 0 149 42l16 -35q-87 -45 -170 -45q-106 0 -174 71t-68 182zM98 264h342q-2 86 -47 139t-117 53q-75 0 -123.5 -52.5t-54.5 -139.5z" />
    <glyph glyph-name="f" unicode="f" horiz-adv-x="361" 
d="M135 444h-106v39h106v102q0 58 37 94.5t96 36.5q47 0 89 -13l-8 -39q-38 11 -72 11q-42 0 -68 -25.5t-26 -67.5v-99h149v-39h-149v-444h-48v444z" />
    <glyph glyph-name="g" unicode="g" horiz-adv-x="572" 
d="M50 241q0 113 60 183q62 71 156 71q118 0 173 -105l6 93h39v-503q0 -88 -63 -144q-64 -56 -161 -56q-82 0 -179 41l15 38q92 -39 161 -39q79 0 128 45q51 44 51 113v112q-52 -102 -170 -102q-94 0 -156 71q-60 71 -60 182zM99 241q0 -94 49 -153q49 -60 127 -60
q72 0 117 48t45 122v87q0 75 -45 122.5t-117 47.5q-77 0 -127 -60q-49 -59 -49 -154z" />
    <glyph glyph-name="h" unicode="h" horiz-adv-x="572" 
d="M135 0h-48v704h48v-319q24 52 71 81t106 29q79 0 129 -50q51 -49 51 -126v-319h-48v313q0 62 -40.5 101.5t-102.5 39.5q-72 0 -119 -50t-47 -127v-277z" />
    <glyph glyph-name="i" unicode="i" horiz-adv-x="222" 
d="M84 610q-10 11 -10 27.5t10 26.5q10 11 26.5 11t27.5 -11q11 -10 11 -26.5t-11 -27.5q-11 -10 -27.5 -10t-26.5 10zM135 0h-48v483h48v-483z" />
    <glyph glyph-name="j" unicode="j" horiz-adv-x="230" 
d="M-79 -207l8 39q39 -11 72 -11q42 0 68 26t26 67v569h48v-572q0 -57 -37.5 -94t-95.5 -37q-44 0 -89 13zM92 610q-10 11 -10 27.5t10 26.5q11 11 27.5 11t26.5 -11q11 -10 11 -26.5t-11 -27.5q-10 -10 -26.5 -10t-27.5 10z" />
    <glyph glyph-name="k" unicode="k" horiz-adv-x="494" 
d="M134 0h-47v704h47v-482l260 261h58l-225 -226l233 -257h-58l-207 228l-61 -61v-167z" />
    <glyph glyph-name="l" unicode="l" horiz-adv-x="270" 
d="M87 90v614h48v-610q0 -30 18 -47.5t48 -17.5q24 0 49 7l7 -39q-37 -9 -65 -9q-48 0 -76.5 27.5t-28.5 74.5z" />
    <glyph glyph-name="m" unicode="m" horiz-adv-x="897" 
d="M135 0h-48v483h39l6 -97q23 52 68.5 80.5t103.5 28.5q59 0 103 -32t60 -85q24 55 71 86t107 31q76 0 124 -48q48 -47 48 -120v-327h-47v321q0 58 -38.5 95.5t-97.5 37.5q-69 0 -114 -48q-44 -47 -44 -121v-285h-48v321q0 58 -38 95.5t-97 37.5q-69 0 -114 -48
q-44 -47 -44 -121v-285z" />
    <glyph glyph-name="n" unicode="n" horiz-adv-x="572" 
d="M135 0h-48v483h39l6 -101q24 53 72 83t108 30q79 0 129 -50q51 -49 51 -126v-319h-48v313q0 62 -40.5 101.5t-102.5 39.5q-72 0 -119 -50t-47 -127v-277z" />
    <glyph glyph-name="o" unicode="o" horiz-adv-x="572" 
d="M50 241q0 113 66 183q68 71 170 71q104 0 169 -71q66 -70 66 -183q0 -111 -66 -182q-65 -71 -169 -71q-102 0 -170 71q-66 71 -66 182zM99 241q0 -95 52 -154q53 -59 135 -59q81 0 134 59q53 61 53 154t-53 154q-52 60 -134 60t-135 -60q-52 -59 -52 -154z" />
    <glyph glyph-name="p" unicode="p" horiz-adv-x="572" 
d="M135 -208h-48v691h39l6 -93q55 105 174 105q94 0 154 -71q61 -70 61 -183q0 -112 -61 -182q-60 -71 -154 -71q-116 0 -171 102v-298zM134 285v-87q0 -74 45 -122q47 -48 117 -48q78 0 127 60q50 61 50 153q0 93 -50 154q-49 60 -127 60q-70 0 -117 -48q-45 -48 -45 -122z
" />
    <glyph glyph-name="q" unicode="q" horiz-adv-x="572" 
d="M50 241q0 113 60 183q62 71 156 71q118 0 173 -105l6 93h39v-691h-48v298q-52 -102 -170 -102q-94 0 -156 71q-60 71 -60 182zM99 241q0 -94 49 -153q49 -60 127 -60q72 0 117 48t45 122v87q0 75 -45 122.5t-117 47.5q-77 0 -127 -60q-49 -59 -49 -154z" />
    <glyph glyph-name="r" unicode="r" horiz-adv-x="372" 
d="M135 0h-48v483h39l6 -102q17 51 58.5 80.5t97.5 29.5q29 0 62 -9l-7 -40q-34 8 -58 8q-66 0 -108 -51q-42 -49 -42 -130v-269z" />
    <glyph glyph-name="s" unicode="s" horiz-adv-x="441" 
d="M50 25l12 37q86 -36 155 -36q57 0 91.5 26t34.5 68q0 40 -30 63.5t-72.5 35t-84.5 24.5t-72 43.5t-30 80.5q0 57 46 92.5t120 35.5q71 0 154 -33l-12 -37q-72 31 -139 31q-54 0 -88 -24.5t-34 -64.5q0 -38 30 -61t72 -34.5t84.5 -25t72.5 -45t30 -81.5q0 -58 -47.5 -95
t-122.5 -37q-80 0 -170 37z" />
    <glyph glyph-name="t" unicode="t" horiz-adv-x="393" 
d="M135 444h-106v39h106v144h48v-144h165v-39h-165v-322q0 -41 26 -67t68 -26q33 0 72 11l8 -39q-42 -13 -89 -13q-59 0 -96 37t-37 94v325z" />
    <glyph glyph-name="u" unicode="u" horiz-adv-x="572" 
d="M79 164v319h48v-313q0 -62 40.5 -101.5t103.5 -39.5q72 0 118 49q47 50 47 128v277h48v-483h-39l-6 100q-23 -53 -71 -82.5t-108 -29.5q-80 0 -130 49q-51 49 -51 127z" />
    <glyph glyph-name="v" unicode="v" horiz-adv-x="508" 
d="M231 0l-200 483h50l173 -426l172 426h50l-200 -483h-45z" />
    <glyph glyph-name="w" unicode="w" horiz-adv-x="764" 
d="M198 0l-159 483h49l135 -424l135 424h47l135 -424l136 424h48l-159 -483h-48l-135 424l-135 -424h-49z" />
    <glyph glyph-name="x" unicode="x" horiz-adv-x="508" 
d="M92 0h-56l187 247l-179 236h55l155 -204l154 204h55l-179 -236l187 -247h-55l-162 215z" />
    <glyph glyph-name="y" unicode="y" horiz-adv-x="508" 
d="M234 3l-203 480h50l176 -426l169 426h50l-230 -567q-29 -72 -64.5 -104t-86.5 -32q-20 0 -62 8l8 40q27 -7 51 -7q38 0 63.5 24t47.5 81z" />
    <glyph glyph-name="z" unicode="z" horiz-adv-x="473" 
d="M422 0h-372v29l301 415h-293v39h356v-29l-300 -415h308v-39z" />
    <glyph glyph-name="braceleft" unicode="{" horiz-adv-x="329" 
d="M55 268h-16v40h16q40 0 65.5 26.5t25.5 68.5q0 22 -8 84q-7 55 -7 87q0 58 37 95q38 38 94 38h24v-41h-16q-41 0 -67 -27.5t-26 -71.5q0 -25 6 -82q7 -53 7 -85q0 -40 -19 -70t-54 -42q35 -12 54 -42t19 -70q0 -32 -7 -85q-6 -55 -6 -82q0 -45 26 -72t67 -27h16v-41h-24
q-56 0 -94 38q-37 37 -37 95q0 33 7 86q8 62 8 85q0 41 -25.5 68t-65.5 27z" />
    <glyph glyph-name="bar" unicode="|" horiz-adv-x="240" 
d="M141 -224h-42v960h42v-960z" />
    <glyph glyph-name="braceright" unicode="}" horiz-adv-x="329" 
d="M42 -131v41h16q42 0 68 27t26 72q0 29 -7 82t-7 85q0 40 19.5 70t54.5 42q-35 12 -54.5 42t-19.5 70q0 32 7 84q7 53 7 83q0 44 -26.5 71.5t-67.5 27.5h-16v41h25q55 0 93 -38t38 -95q0 -25 -8 -87q-7 -53 -7 -84q0 -41 25 -68t65 -27h16v-40h-16q-39 0 -64.5 -27
t-25.5 -68q0 -30 7 -85q8 -61 8 -86q0 -57 -38 -95t-93 -38h-25z" />
    <glyph glyph-name="asciitilde" unicode="~" 
d="M77 246l-25 34q61 53 137 53q36 0 101.5 -24t96.5 -24q63 0 112 45l25 -34q-61 -53 -137 -53q-35 0 -101 24t-97 24q-63 0 -112 -45z" />
    <glyph glyph-name="nbspace" unicode="&#xa0;" horiz-adv-x="240" 
 />
    <glyph glyph-name="exclamdown" unicode="&#xa1;" horiz-adv-x="252" 
d="M126 492q23 0 32.5 -19t0 -38t-32.5 -19q-24 -1 -33.5 19t0 39.5t33.5 17.5zM151 -189h-50l5 471h40z" />
    <glyph glyph-name="cent" unicode="&#xa2;" 
d="M299 587v149h42v-148q77 -1 151 -52l-22 -35q-68 48 -135 48q-85 0 -138 -60q-53 -59 -53 -153q0 -93 53 -154q53 -59 138 -59q67 0 135 48l22 -35q-73 -50 -151 -53v-147h-42v149q-91 10 -148 79q-56 70 -56 172t56 172q57 69 148 79z" />
    <glyph glyph-name="sterling" unicode="&#xa3;" 
d="M518 0h-444v40h106v284h-90v40h90v146q0 77 52 125q52 49 136 49q62 0 138 -29l-13 -38q-63 26 -118 26q-64 0 -104.5 -38t-40.5 -98v-143h198v-40h-198v-284h288v-40z" />
    <glyph glyph-name="currency" unicode="&#xa4;" 
d="M95 114l-29 29l81 82q-37 44 -37 111t37 111l-81 82l29 29l81 -82q44 38 112 38q67 0 111 -38l82 82l29 -29l-82 -82q38 -44 38 -111q0 -64 -38 -111l82 -82l-29 -29l-82 81q-45 -36 -111 -36t-111 36zM427 336q0 61 -39 100t-100 39q-60 0 -99.5 -39.5t-39.5 -100.5
q0 -60 39 -98.5t100 -38.5t100 38.5t39 99.5z" />
    <glyph glyph-name="yen" unicode="&#xa5;" 
d="M250 351l-210 321h54l194 -303l194 303h54l-210 -321h160v-36h-173v-111h173v-36h-173v-168h-50v168h-173v36h173v111h-173v36h160z" />
    <glyph glyph-name="brokenbar" unicode="&#xa6;" horiz-adv-x="240" 
d="M141 -176h-42v384h42v-384zM141 304h-42v384h42v-384z" />
    <glyph glyph-name="section" unicode="&#xa7;" horiz-adv-x="521" 
d="M53 -128l12 39q103 -42 184 -42q72 0 113.5 30.5t41.5 83.5q0 24 -10 43t-22 31t-37.5 24t-42 17.5t-51 15.5t-48.5 15q-88 31 -117 77q-19 31 -19 74t24 76.5t68 50.5q-76 40 -76 126q0 68 54 109.5t141 41.5q82 0 182 -41l-13 -39q-95 39 -166 39q-68 0 -109 -30
t-41 -80q0 -34 19 -58t49.5 -37.5t67.5 -24.5t74.5 -23.5t68 -29.5t49.5 -48.5t19 -75.5q0 -43 -23 -76.5t-64 -51.5q71 -44 71 -125q1 -70 -55 -112.5t-145 -42.5t-199 44zM105 282q0 -69 79 -104q26 -10 48 -18q67 -17 103 -32q39 14 62 42t23 64q0 69 -76 103
q-26 12 -46 18q-78 23 -100 31q-43 -11 -68 -39t-25 -65z" />
    <glyph glyph-name="dieresis" unicode="&#xa8;" horiz-adv-x="240" 
d="M20 672q22 2 31 -16.5t0 -37t-31 -16.5q-22 -2 -31.5 16.5t0 37t31.5 16.5zM195 612q-10 10 -10 25.5t10 24.5q10 10 25.5 10t25.5 -10q10 -9 10 -24.5t-10 -25.5t-25.5 -10t-25.5 10z" />
    <glyph glyph-name="copyright" unicode="&#xa9;" horiz-adv-x="832" 
d="M95 145q-47 85 -47 190q0 107 46.5 190.5t131.5 131.5q85 47 190 47t189.5 -47t131.5 -131q47 -85 47 -191q0 -105 -47 -189t-131 -131q-85 -47 -190 -47t-189.5 46.5t-131.5 130.5zM173 579q-95 -95 -95 -243t95 -243t243 -95t243 95t95 243t-95 243t-243 95t-243 -95z
M428 552q71 0 137 -45l-19 -28q-56 39 -114 39q-74 0 -120 -51q-46 -49 -46 -131t46 -132q47 -50 120 -50q58 0 114 39l19 -28q-66 -45 -137 -45q-90 0 -146 60q-56 62 -56 156t56 155q55 61 146 61z" />
    <glyph glyph-name="ordfeminine" unicode="&#xaa;" horiz-adv-x="378" 
d="M349 239h-320v31h320v-31zM42 439q0 49 39 77t107 28q29 0 77 -9v35q0 36 -23.5 58.5t-61.5 22.5q-50 0 -108 -24l-10 29q62 25 120 25q53 0 86.5 -31t33.5 -81v-163q0 -31 30 -31q2 0 20 2l3 -30q-13 -3 -31 -3q-26 0 -41 15.5t-16 42.5q-38 -58 -114 -58
q-48 0 -79.5 27t-31.5 68zM80 440q0 -29 22.5 -47.5t56.5 -18.5q46 0 76 29t30 73v33q-46 8 -75 8q-52 0 -81 -20t-29 -57z" />
    <glyph glyph-name="guillemotleft" unicode="&#xab;" horiz-adv-x="509" 
d="M228 16l-197 219v25l197 219l29 -24l-178 -208l178 -207zM437 16l-197 219v25l197 219l29 -24l-178 -208l178 -207z" />
    <glyph glyph-name="logicalnot" unicode="&#xac;" 
d="M476 267h-418v42h460v-251h-42v209z" />
    <glyph glyph-name="uni00AD" unicode="&#xad;" horiz-adv-x="320" 
d="M317 228h-262v39h262v-39z" />
    <glyph glyph-name="registered" unicode="&#xae;" horiz-adv-x="832" 
d="M95 145q-47 85 -47 190q0 107 46.5 190.5t131.5 131.5q85 47 190 47t189.5 -47t131.5 -131q47 -85 47 -191q0 -105 -47 -189t-131 -131q-85 -47 -190 -47t-189.5 46.5t-131.5 130.5zM173 579q-95 -95 -95 -243t95 -243t243 -95t243 95t95 243t-95 243t-243 95t-243 -95z
M323 128h-37v416h153q57 0 94.5 -34t37.5 -88q0 -48 -30 -80.5t-78 -38.5l122 -175h-44l-115 171h-103v-171zM323 512v-182h112q44 0 71 25t27 66q0 40 -27 65.5t-71 25.5h-112z" />
    <glyph glyph-name="overscore" unicode="&#xaf;" horiz-adv-x="240" 
d="M262 619h-284v36h284v-36z" />
    <glyph glyph-name="degree" unicode="&#xb0;" horiz-adv-x="326" 
d="M51 569q0 49 31.5 80.5t80.5 31.5t80.5 -31.5t31.5 -80.5t-31.5 -80.5t-80.5 -31.5t-80.5 31.5t-31.5 80.5zM82 569q0 -36 22.5 -58.5t58.5 -22.5t58.5 22.5t22.5 58.5q0 35 -22.5 58t-58.5 23t-58.5 -23t-22.5 -58z" />
    <glyph glyph-name="plusminus" unicode="&#xb1;" 
d="M518 0h-460v42h460v-42zM267 335h-209v42h209v209h42v-209h209v-42h-209v-209h-42v209z" />
    <glyph glyph-name="twosuperior" unicode="&#xb2;" horiz-adv-x="340" 
d="M290 384h-264v25l169 170q51 49 51 103q0 42 -25 67t-67 25q-50 0 -107 -36l-17 29q68 41 129 41q56 0 90.5 -33.5t34.5 -87.5q0 -67 -58 -124l-145 -146h209v-33z" />
    <glyph glyph-name="threesuperior" unicode="&#xb3;" horiz-adv-x="340" 
d="M29 408l15 30q57 -30 111 -30q43 0 70 24t27 62q0 39 -31.5 63.5t-82.5 24.5h-25v30h25q47 0 76 23t29 60q0 36 -24.5 58.5t-63.5 22.5q-51 0 -105 -27l-14 30q63 29 124 29q54 0 87.5 -30.5t33.5 -79.5q0 -36 -21 -63t-56 -37q40 -12 63.5 -40.5t23.5 -66.5
q0 -51 -36 -83t-95 -32q-64 0 -131 32z" />
    <glyph glyph-name="acute" unicode="&#xb4;" horiz-adv-x="240" 
d="M88 563l-20 28l160 110l24 -33z" />
    <glyph glyph-name="uni00B5" unicode="&#xb5;" horiz-adv-x="596" 
d="M135 -208h-48v691h48v-313q0 -63 40 -102t104 -39q72 0 118 49q47 50 47 128v277h48v-405q0 -22 13.5 -35.5t34.5 -13.5q13 0 28 3l6 -39q-27 -5 -42 -5q-38 0 -61.5 22.5t-23.5 59.5v21q-24 -49 -68.5 -76t-100.5 -27q-102 0 -143 72v-268z" />
    <glyph glyph-name="paragraph" unicode="&#xb6;" horiz-adv-x="572" 
d="M49 473q0 88 61 143q62 56 155 56h197v-832h-42v790h-109v-356h-46q-93 0 -155 56q-61 55 -61 143z" />
    <glyph glyph-name="middot" unicode="&#xb7;" horiz-adv-x="236" 
d="M89 218q-11 12 -11 29t11 28q12 12 29 12t28 -12q12 -11 12 -28t-12 -29q-11 -11 -28 -11t-29 11z" />
    <glyph glyph-name="cedilla" unicode="&#xb8;" horiz-adv-x="240" 
d="M23 -204l11 31q42 -14 71 -14q28 0 46.5 13.5t18.5 36.5q0 21 -19 35t-48 14h-9l16 88h36l-11 -64q32 -3 53.5 -25t21.5 -52q0 -35 -28.5 -57t-72.5 -22q-47 0 -86 16z" />
    <glyph glyph-name="onesuperior" unicode="&#xb9;" horiz-adv-x="266" 
d="M36 696l-15 27l132 77h32v-416h-38v376z" />
    <glyph glyph-name="ordmasculine" unicode="&#xba;" horiz-adv-x="402" 
d="M42 513q0 74 44 121q45 47 115 47t114 -47q45 -46 45 -121t-45 -122q-44 -47 -114 -47t-115 47q-44 47 -44 122zM356 239h-311v31h311v-31zM81 513q0 -60 33.5 -98t86.5 -38t86.5 38t33.5 98t-33.5 98t-86.5 38t-86.5 -38t-33.5 -98z" />
    <glyph glyph-name="guillemotright" unicode="&#xbb;" horiz-adv-x="509" 
d="M71 16l-29 24l179 207l-179 208l29 24l198 -219v-25zM280 16l-29 24l179 207l-179 208l29 24l198 -219v-25z" />
    <glyph glyph-name="onequarter" unicode="&#xbc;" horiz-adv-x="960" 
d="M95 568l-15 27l132 77h32v-416h-38v376zM242 -11l-28 22l504 672l28 -22zM816 100h-205v27l204 289h36v-285h68v-31h-68v-100h-35v100zM816 366l-166 -235h166v235z" />
    <glyph glyph-name="onehalf" unicode="&#xbd;" horiz-adv-x="960" 
d="M95 568l-15 27l132 77h32v-416h-38v376zM242 -11l-28 22l504 672l28 -22zM888 0h-264v25l169 170q51 49 51 103q0 41 -25 66.5t-67 25.5q-50 0 -107 -36l-17 29q68 41 129 41q56 0 90.5 -33.5t34.5 -87.5q0 -69 -58 -124l-145 -146h209v-33z" />
    <glyph glyph-name="threequarters" unicode="&#xbe;" horiz-adv-x="960" 
d="M51 280l15 30q58 -30 111 -30q43 0 70 24t27 62q0 39 -31.5 63.5t-82.5 24.5h-25v30h25q47 0 76 23t29 60q0 36 -24.5 58.5t-63.5 22.5q-53 0 -105 -27l-14 30q63 29 124 29q54 0 87.5 -31t33.5 -79q0 -36 -21 -63t-56 -37q39 -11 63 -40.5t24 -66.5q0 -51 -36 -83
t-95 -32q-65 0 -131 32zM242 -11l-28 22l504 672l28 -22zM816 100h-205v27l204 289h36v-285h68v-31h-68v-100h-35v100zM816 366l-166 -235h166v235z" />
    <glyph glyph-name="questiondown" unicode="&#xbf;" horiz-adv-x="390" 
d="M44 -26q0 40 17 75.5t41.5 61.5t49.5 51t43 54t19 58l1 8h40v-11q0 -34 -17 -65.5t-40.5 -56t-47.5 -49.5t-41 -56t-17 -65q0 -61 39.5 -99.5t102.5 -38.5q76 0 156 55l20 -36q-86 -61 -182 -61q-81 0 -133 49q-51 50 -51 126zM207 427q-10 11 -10 27.5t10 26.5
q11 11 27.5 11t26.5 -11q11 -10 11 -26.5t-11 -27.5q-10 -11 -26.5 -11t-27.5 11z" />
    <glyph glyph-name="multiply" unicode="&#xd7;" 
d="M117 88l-29 29l171 171l-171 171l29 29l171 -171l171 171l29 -29l-171 -171l171 -171l-29 -29l-171 171z" />
    <glyph glyph-name="germandbls" unicode="&#xdf;" horiz-adv-x="604" 
d="M134 0h-47v532q0 84 52.5 134t138.5 50q76 0 125 -43t49 -106q0 -34 -14 -63.5t-31 -47.5t-31 -43.5t-14 -51.5q0 -33 20.5 -56t50 -38t58.5 -31t49.5 -45.5t20.5 -70.5q0 -60 -45 -96t-117 -36q-64 0 -136 33l14 37q63 -31 119 -31q54 0 86.5 25.5t32.5 67.5
q0 28 -15 49t-37 33.5t-48.5 27t-48.5 29t-37 40.5t-15 60q0 47 45 105t45 102q0 48 -36 79.5t-92 31.5q-65 0 -103.5 -40t-38.5 -107v-530z" />
    <glyph glyph-name="divide" unicode="&#xf7;" 
d="M518 268h-460v40h460v-40zM265 73q-9 9 -9 23t9 23t23 9t23 -9t9 -23t-9 -23t-23 -9t-23 9zM288 512q32 0 32 -32q0 -21 -20 -29.5t-35 6.5t-6.5 35t29.5 20z" />
    <glyph glyph-name="florin" unicode="&#x192;" 
d="M105 0l7 40q42 -11 68 -11q33 0 54.5 21t21.5 55v278h-105v39h105v148q0 50 33 82t84 32q36 0 84 -12l-8 -40q-41 11 -67 11q-33 0 -55 -21.5t-22 -54.5v-145h133v-39h-133v-281q0 -50 -32.5 -82t-83.5 -32q-37 0 -84 12z" />
    <glyph glyph-name="circumflex" unicode="&#x2c6;" horiz-adv-x="240" 
d="M5 564l-23 25l121 118h34l121 -118l-23 -25l-115 107z" />
    <glyph glyph-name="caron" unicode="&#x2c7;" horiz-adv-x="240" 
d="M103 567l-121 119l23 24l115 -106l115 106l23 -24l-121 -119h-34z" />
    <glyph glyph-name="breve" unicode="&#x2d8;" horiz-adv-x="240" 
d="M-18 691h35q2 -42 31 -68.5t72 -26.5t72 26.5t31 68.5h35q-2 -59 -41 -95.5t-97 -36.5t-97 36.5t-41 95.5z" />
    <glyph glyph-name="dotaccent" unicode="&#x2d9;" horiz-adv-x="240" 
d="M93 610q-10 11 -10 27.5t10 26.5q11 10 27.5 10t26.5 -10t10 -26.5t-10 -27.5q-10 -10 -26.5 -10t-27.5 10z" />
    <glyph glyph-name="ring" unicode="&#x2da;" horiz-adv-x="240" 
d="M26 637q0 40 26 66q28 26 68 26q42 0 68 -26t26 -66q0 -41 -25.5 -66.5t-66.5 -25.5q-42 0 -69 26t-27 66zM122 572q28 0 45.5 18t17.5 47q0 30 -18 47.5t-47 17.5t-47 -17.5t-18 -47.5q0 -29 19 -47t48 -18z" />
    <glyph glyph-name="ogonek" unicode="&#x2db;" horiz-adv-x="240" 
d="M8 -142q0 75 111 155l25 -13q-98 -77 -98 -135q0 -23 15.5 -37.5t38.5 -14.5q25 0 45 10l8 -31q-32 -12 -61 -12q-37 0 -60.5 21.5t-23.5 56.5z" />
    <glyph glyph-name="tilde" unicode="&#x2dc;" horiz-adv-x="240" 
d="M14 600l-34 10q7 29 28 47t48 18q21 0 66 -20q42 -19 59 -19q33 0 45 39l34 -11q-8 -29 -28.5 -46.5t-47.5 -17.5q-24 0 -66 19t-59 19q-34 0 -45 -38z" />
    <glyph glyph-name="hungarumlaut" unicode="&#x2dd;" horiz-adv-x="240" 
d="M18 558l-25 25l138 142l29 -29zM196 558l-26 25l138 142l29 -29z" />
    <glyph glyph-name="commaaccent" unicode="&#x326;" horiz-adv-x="240" 
d="M75 -269l-15 21q62 48 62 110q-15 -3 -26 7t-11 26t9.5 25.5t25.5 9.5q18 0 29 -14.5t11 -39.5q0 -91 -85 -145z" />
    <glyph glyph-name="uni0400" unicode="&#x400;" horiz-adv-x="595" 
d="M537 0h-427v672h411v-40h-362v-268h330v-40h-330v-284h378v-40zM340 752l-164 105l24 33l159 -110z" />
    <glyph glyph-name="afii10023" unicode="&#x401;" horiz-adv-x="595" 
d="M537 0h-427v672h411v-40h-362v-268h330v-40h-330v-284h378v-40zM205 861q22 2 31 -16.5t0 -37t-31 -16.5q-22 -2 -31.5 16.5t0 37t31.5 16.5zM405 861q22 2 31.5 -16.5t0 -37t-32.5 -16.5q-21 -2 -29.5 16.5t0 37t30.5 16.5z" />
    <glyph glyph-name="afii10051" unicode="&#x402;" horiz-adv-x="835" 
d="M257 631h-228v41h537v-41h-260v-282q139 29 239 29q113 0 177 -53t64 -143q0 -88 -61.5 -141t-166.5 -53q-67 0 -133 17l11 40q57 -15 117 -15q86 0 134.5 40.5t48.5 110.5q0 72 -52 114t-147 42q-97 0 -231 -29v-308h-49v631z" />
    <glyph glyph-name="afii10052" unicode="&#x403;" horiz-adv-x="531" 
d="M159 0h-49v672h392v-41h-343v-631zM265 752l-20 28l160 110l24 -33z" />
    <glyph glyph-name="afii10053" unicode="&#x404;" horiz-adv-x="651" 
d="M57 336q0 154 89 251t232 97q115 0 218 -71l-22 -35q-92 65 -191 65q-116 0 -193 -78q-74 -76 -82 -201h387v-40h-388q1 -130 78 -213q76 -82 198 -82q99 0 191 65l22 -35q-103 -71 -218 -71q-142 0 -232 97q-89 98 -89 251z" />
    <glyph glyph-name="afii10054" unicode="&#x405;" horiz-adv-x="574" 
d="M57 41l13 39q134 -51 214 -51q83 0 133.5 37.5t50.5 97.5q0 42 -22.5 71.5t-58.5 46t-79.5 29t-86.5 27t-79 34t-58.5 55t-22.5 85.5q0 78 63 124q63 48 163 48q95 0 205 -45l-13 -39q-104 43 -189 43q-81 0 -130.5 -36.5t-49.5 -94.5t41.5 -89t118.5 -55
q115 -32 157 -55q89 -51 89 -149q0 -78 -63 -128q-63 -48 -166 -48q-101 0 -230 53z" />
    <glyph glyph-name="afii10055" unicode="&#x406;" horiz-adv-x="269" 
d="M159 0h-49v672h49v-672z" />
    <glyph glyph-name="afii10056" unicode="&#x407;" horiz-adv-x="269" 
d="M35 861q22 2 31 -16.5t0 -37t-31 -16.5q-22 -2 -31.5 16.5t-0.5 37t32 16.5zM159 0h-49v672h49v-672zM235 861q22 2 31.5 -16.5t0 -37t-32.5 -16.5q-21 -2 -29.5 16.5t0 37t30.5 16.5z" />
    <glyph glyph-name="afii10057" unicode="&#x408;" horiz-adv-x="438" 
d="M28 5l8 40q58 -15 106 -15q60 0 98.5 38t38.5 98v506h49v-509q0 -76 -50 -126q-49 -49 -127 -49q-57 0 -123 17z" />
    <glyph glyph-name="afii10058" unicode="&#x409;" horiz-adv-x="1123" 
d="M13 -6l5 42q33 -6 53 -6q61 0 93.5 41t32.5 119v482h460v-284h210q91 0 149 -55t58 -139q0 -85 -58 -140q-58 -54 -149 -54h-256v631h-366v-443q0 -95 -44.5 -147.5t-124.5 -52.5q-26 0 -63 6zM657 347v-306h206q71 0 118 42q46 43 46 110q0 68 -46 111t-118 43h-206z
" />
    <glyph glyph-name="afii10059" unicode="&#x40a;" horiz-adv-x="1099" 
d="M158 0h-48v672h48v-300h429v300h46v-300h216q89 0 145 -51t56 -135t-56 -135t-145 -51h-262v332h-429v-332zM633 332v-293h212q71 0 114.5 41t43.5 106q0 64 -43.5 105t-114.5 41h-212z" />
    <glyph glyph-name="afii10060" unicode="&#x40b;" horiz-adv-x="835" 
d="M257 631h-228v41h537v-41h-260v-282q122 29 228 29q104 0 169 -59q66 -59 66 -153v-166h-50v163q0 77 -54 125q-53 49 -140 49q-101 0 -219 -29v-308h-49v631z" />
    <glyph glyph-name="afii10061" unicode="&#x40c;" horiz-adv-x="652" 
d="M158 0h-48v672h48v-308h104l275 308h58l-292 -326l306 -346h-59l-287 324h-105v-324zM302 752l-20 28l160 110l24 -33z" />
    <glyph glyph-name="uni040D" unicode="&#x40d;" horiz-adv-x="759" 
d="M159 0h-49v672h46v-603l444 603h49v-672h-46v603zM415 752l-164 105l24 33l159 -110z" />
    <glyph glyph-name="afii10062" unicode="&#x40e;" horiz-adv-x="630" 
d="M301 143l-255 529h51l229 -483l222 483h52l-264 -567q-57 -117 -164 -117q-39 0 -87 13l9 40q42 -11 73 -11q80 0 124 93zM185 880h35q2 -42 31 -68.5t72 -26.5t72 26.5t31 68.5h35q-2 -59 -41 -95.5t-97 -36.5t-97 36.5t-41 95.5z" />
    <glyph glyph-name="afii10145" unicode="&#x40f;" horiz-adv-x="759" 
d="M356 0h-246v672h49v-631h441v631h49v-672h-246v-176h-47v176z" />
    <glyph glyph-name="afii10017" unicode="&#x410;" horiz-adv-x="663" 
d="M81 0h-51l278 672h47l278 -672h-51l-82 200h-337zM332 613l-154 -374h307z" />
    <glyph glyph-name="afii10018" unicode="&#x411;" horiz-adv-x="631" 
d="M378 0h-268v672h420v-39h-372v-256h220q88 0 146 -53q57 -53 57 -136q0 -84 -57 -136q-56 -52 -146 -52zM158 338v-299h214q71 0 115.5 41.5t44.5 107.5t-44.5 108t-115.5 42h-214z" />
    <glyph glyph-name="afii10019" unicode="&#x412;" horiz-adv-x="646" 
d="M384 0h-274v672h258q84 0 136 -48q53 -48 53 -123q0 -52 -29 -93.5t-80 -60.5q62 -15 97.5 -60t35.5 -108q0 -80 -56 -130q-55 -49 -141 -49zM158 326v-287h220q68 0 111 40.5t43 103.5t-43 103t-111 40h-220zM158 633v-271h205q64 0 105 38t41 97q0 60 -41 98t-105 38
h-205z" />
    <glyph glyph-name="afii10020" unicode="&#x413;" horiz-adv-x="531" 
d="M159 0h-49v672h392v-41h-343v-631z" />
    <glyph glyph-name="afii10021" unicode="&#x414;" horiz-adv-x="767" 
d="M34 -176v217h48q85 151 85 350v281h455v-631h96v-217h-46v176h-591v-176h-47zM137 41h438v590h-360v-243q0 -192 -78 -347z" />
    <glyph glyph-name="afii10022" unicode="&#x415;" horiz-adv-x="595" 
d="M537 0h-427v672h411v-40h-362v-268h330v-40h-330v-284h378v-40z" />
    <glyph glyph-name="afii10024" unicode="&#x416;" horiz-adv-x="976" 
d="M103 0h-57l273 345l-259 327h55l244 -308h105v308h48v-308h105l244 308h55l-259 -327l273 -345h-57l-255 324h-106v-324h-48v324h-106z" />
    <glyph glyph-name="afii10025" unicode="&#x417;" horiz-adv-x="534" 
d="M26 37l16 39q114 -47 206 -47q79 0 129 41q51 40 51 105q0 67 -55.5 108.5t-147.5 41.5h-52v38h52q86 0 137 39t51 103q0 61 -45.5 99.5t-118.5 38.5q-89 0 -191 -43l-16 39q109 45 212 45q91 0 149 -49t58 -126q0 -60 -37.5 -104.5t-101.5 -58.5q72 -17 113.5 -64.5
t41.5 -110.5q0 -81 -63 -132q-62 -51 -160 -51q-114 0 -228 49z" />
    <glyph glyph-name="afii10026" unicode="&#x418;" horiz-adv-x="759" 
d="M159 0h-49v672h46v-603l444 603h49v-672h-46v603z" />
    <glyph glyph-name="afii10027" unicode="&#x419;" horiz-adv-x="759" 
d="M159 0h-49v672h46v-603l444 603h49v-672h-46v603zM237 880h35q2 -42 31 -68.5t72 -26.5t72 26.5t31 68.5h35q-2 -59 -40.5 -95.5t-97.5 -36.5t-97.5 36.5t-40.5 95.5z" />
    <glyph glyph-name="afii10028" unicode="&#x41a;" horiz-adv-x="652" 
d="M158 0h-48v672h48v-308h104l275 308h58l-292 -326l306 -346h-59l-287 324h-105v-324z" />
    <glyph glyph-name="afii10029" unicode="&#x41b;" horiz-adv-x="783" 
d="M13 -6l5 42q33 -6 53 -6q61 0 93.5 41t32.5 119v482h476v-672h-47v631h-381v-443q0 -95 -44.5 -147.5t-124.5 -52.5q-26 0 -63 6z" />
    <glyph glyph-name="afii10030" unicode="&#x41c;" horiz-adv-x="847" 
d="M156 0h-46v672h49l265 -358l264 358h49v-672h-46v603l-252 -343h-31l-252 343v-603z" />
    <glyph glyph-name="afii10031" unicode="&#x41d;" horiz-adv-x="759" 
d="M159 0h-49v672h49v-308h441v308h49v-672h-49v324h-441v-324z" />
    <glyph glyph-name="afii10032" unicode="&#x41e;" horiz-adv-x="759" 
d="M380 684q139 2 231.5 -97.5t90.5 -250.5q2 -151 -90.5 -250.5t-231.5 -97.5q-140 -2 -232.5 97.5t-90.5 250.5q-2 151 90.5 250.5t232.5 97.5zM380 29q118 0 195 86q77 88 77 221q0 134 -77 220q-77 87 -195 87q-118 2 -196.5 -86.5t-76.5 -220.5q-2 -132 76.5 -220.5
t196.5 -86.5z" />
    <glyph glyph-name="afii10033" unicode="&#x41f;" horiz-adv-x="759" 
d="M159 0h-49v672h539v-672h-49v631h-441v-631z" />
    <glyph glyph-name="afii10034" unicode="&#x420;" horiz-adv-x="614" 
d="M158 0h-48v672h238q94 0 156 -57q61 -55 61 -146q0 -89 -61 -146q-62 -57 -156 -57h-190v-266zM158 631v-325h185q76 0 124 45q49 46 49 118t-49 117q-48 45 -124 45h-185z" />
    <glyph glyph-name="afii10035" unicode="&#x421;" horiz-adv-x="643" 
d="M57 336q0 154 89 251t232 97q114 0 218 -72l-22 -35q-92 65 -191 65q-124 0 -200 -85q-76 -83 -76 -221q0 -137 76 -222q77 -84 200 -84q99 0 191 65l22 -35q-104 -72 -218 -72q-142 0 -232 97q-89 98 -89 251z" />
    <glyph glyph-name="afii10036" unicode="&#x422;" horiz-adv-x="595" 
d="M273 631h-244v41h537v-41h-244v-631h-49v631z" />
    <glyph glyph-name="afii10037" unicode="&#x423;" horiz-adv-x="630" 
d="M301 143l-255 529h51l229 -483l222 483h52l-264 -567q-57 -117 -164 -117q-39 0 -87 13l9 40q42 -11 73 -11q80 0 124 93z" />
    <glyph glyph-name="afii10038" unicode="&#x424;" horiz-adv-x="764" 
d="M359 614v90h46v-90q138 -3 223 -78q87 -74 87 -192t-87 -193q-86 -74 -223 -77v-106h-46v106q-138 3 -224 77q-86 75 -86 193q0 119 86 193t224 77zM359 115v458q-117 -2 -190 -66q-73 -63 -73 -163q0 -99 73 -163q73 -63 190 -66zM405 573v-458q115 3 189 66
q74 65 74 163q0 100 -74 163q-74 65 -189 66z" />
    <glyph glyph-name="afii10039" unicode="&#x425;" horiz-adv-x="671" 
d="M100 0h-57l261 344l-249 328h56l225 -295l224 295h56l-249 -328l261 -344h-57l-235 311z" />
    <glyph glyph-name="afii10040" unicode="&#x426;" horiz-adv-x="794" 
d="M699 0h-589v672h49v-631h441v631h49v-631h96v-217h-46v176z" />
    <glyph glyph-name="afii10041" unicode="&#x427;" horiz-adv-x="689" 
d="M66 498v174h50v-171q0 -81 53 -132q55 -50 141 -50q93 0 220 29v324h49v-672h-49v307q-133 -29 -229 -29q-105 0 -170 61q-65 62 -65 159z" />
    <glyph glyph-name="afii10042" unicode="&#x428;" horiz-adv-x="1091" 
d="M981 0h-871v672h49v-631h362v631h49v-631h362v631h49v-672z" />
    <glyph glyph-name="afii10043" unicode="&#x429;" horiz-adv-x="1126" 
d="M1029 0h-919v672h49v-631h362v631h49v-631h362v631h49v-631h96v-217h-48v176z" />
    <glyph glyph-name="afii10044" unicode="&#x42a;" horiz-adv-x="758" 
d="M238 631h-209v41h257v-284h216q90 0 148 -55q59 -56 59 -139q0 -84 -59 -140q-58 -54 -148 -54h-264v631zM286 347v-306h210q73 0 118.5 42.5t45.5 109.5q0 68 -46 111q-44 43 -118 43h-210z" />
    <glyph glyph-name="afii10045" unicode="&#x42b;" horiz-adv-x="899" 
d="M374 0h-264v672h48v-284h216q90 0 148 -55q59 -56 59 -139q0 -84 -59 -140q-58 -54 -148 -54zM158 347v-306h210q73 0 118.5 42.5t45.5 109.5q0 68 -46 111q-44 43 -118 43h-210zM789 0h-49v672h49v-672z" />
    <glyph glyph-name="afii10046" unicode="&#x42c;" horiz-adv-x="630" 
d="M374 0h-264v672h48v-284h216q90 0 148 -55q59 -56 59 -139q0 -84 -59 -140q-58 -54 -148 -54zM158 347v-306h210q73 0 118.5 42.5t45.5 109.5q0 68 -46 111q-44 43 -118 43h-210z" />
    <glyph glyph-name="afii10047" unicode="&#x42d;" horiz-adv-x="651" 
d="M55 59l22 35q92 -65 191 -65q121 0 197 82t79 213h-388v40h387q-8 126 -83 201q-75 78 -192 78q-99 0 -191 -65l-22 35q104 71 218 71q142 0 231.5 -97t89.5 -251t-89.5 -251t-231.5 -97q-114 0 -218 71z" />
    <glyph glyph-name="afii10048" unicode="&#x42e;" horiz-adv-x="1020" 
d="M159 0h-49v672h49v-307h169q8 142 96 230q89 89 221 89q137 2 228.5 -97.5t90.5 -250.5q1 -151 -90.5 -250.5t-228.5 -97.5q-137 0 -225.5 93.5t-92.5 241.5h-168v-323zM645 29q118 0 193 86q76 86 76 221t-76 220q-75 87 -193 87t-194 -86.5t-76 -220.5t76 -220.5
t194 -86.5z" />
    <glyph glyph-name="afii10049" unicode="&#x42f;" horiz-adv-x="646" 
d="M117 0h-55l204 287q-82 8 -130 59q-49 52 -49 131q0 86 59 140q58 55 150 55h240v-672h-48v282h-172zM136 477q0 -69 46 -112t120 -43h186v309h-186q-74 0 -120 -43t-46 -111z" />
    <glyph glyph-name="afii10065" unicode="&#x430;" horiz-adv-x="537" 
d="M50 129q0 75 58 116.5t161 41.5q56 0 117 -14v64q0 53 -36 86t-94 33q-77 0 -162 -35l-13 36q93 38 179 38q76 0 124.5 -44t48.5 -114v-260q0 -23 13.5 -36.5t36.5 -13.5q15 0 28 4l5 -38q-27 -5 -43 -5q-36 0 -59 22.5t-23 59.5v18q-24 -47 -71 -73.5t-105 -26.5
q-72 0 -118 40q-47 41 -47 101zM98 131q0 -45 36.5 -75.5t89.5 -30.5q73 0 117.5 46t44.5 121v48q-60 15 -113 15q-83 0 -129 -33t-46 -91z" />
    <glyph glyph-name="afii10066" unicode="&#x431;" horiz-adv-x="572" 
d="M58 281q0 322 239 390l155 45l10 -38l-156 -46q-86 -26 -133.5 -88t-62.5 -164q55 115 192 115q96 0 157 -69q62 -70 62 -175q0 -117 -64 -190t-165 -73q-106 0 -170 79t-64 214zM106 255q0 -101 52 -163q53 -63 133 -63q81 0 132 61q52 61 52 159q0 91 -51 148
q-50 57 -130 57q-83 0 -136 -56q-52 -55 -52 -143z" />
    <glyph glyph-name="afii10067" unicode="&#x432;" horiz-adv-x="489" 
d="M292 0h-205v483h197q61 0 99 -35t38 -91q0 -77 -74 -107q43 -12 67 -44t24 -76q0 -57 -41.5 -93.5t-104.5 -36.5zM132 231v-195h155q47 0 76.5 27t29.5 70q0 44 -29.5 71t-76.5 27h-155zM132 447v-184h147q44 0 70.5 24.5t26.5 65.5q0 42 -27 68t-70 26h-147z" />
    <glyph glyph-name="afii10068" unicode="&#x433;" horiz-adv-x="428" 
d="M135 0h-48v483h304v-39h-256v-444z" />
    <glyph glyph-name="afii10069" unicode="&#x434;" horiz-adv-x="572" 
d="M34 -160v199h32q55 103 55 242v202h344v-444h64v-199h-45v160h-405v-160h-45zM116 39h306v405h-258v-166q0 -140 -48 -239z" />
    <glyph glyph-name="afii10070" unicode="&#x435;" horiz-adv-x="529" 
d="M50 241q0 113 63 183q63 71 163 71q92 0 151 -68t59 -176v-20h-388q3 -92 58 -148q56 -57 141 -57q69 0 149 42l16 -35q-87 -45 -170 -45q-106 0 -174 71t-68 182zM98 264h342q-2 86 -47 139t-117 53q-75 0 -123.5 -52.5t-54.5 -139.5z" />
    <glyph glyph-name="afii10072" unicode="&#x436;" horiz-adv-x="737" 
d="M96 0h-52l192 249l-183 234h52l170 -216h71v216h45v-216h72l169 216h52l-183 -234l193 -249h-53l-178 228h-72v-228h-45v228h-72z" />
    <glyph glyph-name="afii10073" unicode="&#x437;" horiz-adv-x="425" 
d="M28 29l15 37q77 -39 154 -39q58 0 94 27.5t36 71.5q0 46 -39.5 75.5t-102.5 29.5h-42v33h42q59 0 94.5 27t35.5 70t-31.5 69t-85.5 26q-65 0 -143 -35l-15 36q87 38 163 38q71 0 115 -35.5t44 -93.5q0 -42 -27 -74.5t-72 -43.5q51 -12 81 -46.5t30 -79.5q0 -60 -47.5 -97
t-123.5 -37q-84 0 -175 41z" />
    <glyph glyph-name="afii10074" unicode="&#x438;" horiz-adv-x="572" 
d="M135 0h-48v483h45v-418l305 418h47v-483h-45v418z" />
    <glyph glyph-name="afii10075" unicode="&#x439;" horiz-adv-x="572" 
d="M135 0h-48v483h45v-418l305 418h47v-483h-45v418zM143 691h35q2 -42 31 -68.5t72 -26.5t72 26.5t31 68.5h35q-2 -59 -41 -95.5t-97 -36.5t-97 36.5t-41 95.5z" />
    <glyph glyph-name="afii10076" unicode="&#x43a;" horiz-adv-x="494" 
d="M134 0h-47v483h47v-216h70l190 216h55l-206 -234l215 -249h-56l-198 228h-70v-228z" />
    <glyph glyph-name="afii10077" unicode="&#x43b;" horiz-adv-x="588" 
d="M21 -8l5 40q26 -3 37 -3q87 0 87 112v342h350v-483h-46v444h-258v-306q0 -71 -34 -110.5t-94 -39.5q-24 0 -47 4z" />
    <glyph glyph-name="afii10078" unicode="&#x43c;" horiz-adv-x="636" 
d="M132 0h-45v483h47l182 -247l186 247h46v-483h-44v417l-175 -231h-26l-171 232v-418z" />
    <glyph glyph-name="afii10079" unicode="&#x43d;" horiz-adv-x="572" 
d="M135 0h-48v483h48v-217h301v217h48v-483h-48v227h-301v-227z" />
    <glyph glyph-name="afii10080" unicode="&#x43e;" horiz-adv-x="572" 
d="M50 241q0 113 66 183q68 71 170 71q104 0 169 -71q66 -70 66 -183q0 -111 -66 -182q-65 -71 -169 -71q-102 0 -170 71q-66 71 -66 182zM99 241q0 -95 52 -154q53 -59 135 -59q81 0 134 59q53 61 53 154t-53 154q-52 60 -134 60t-135 -60q-52 -59 -52 -154z" />
    <glyph glyph-name="afii10081" unicode="&#x43f;" horiz-adv-x="572" 
d="M135 0h-48v483h397v-483h-48v444h-301v-444z" />
    <glyph glyph-name="afii10082" unicode="&#x440;" horiz-adv-x="572" 
d="M135 -208h-48v691h39l6 -93q55 105 174 105q94 0 154 -71q61 -70 61 -183q0 -112 -61 -182q-60 -71 -154 -71q-116 0 -171 102v-298zM134 285v-87q0 -74 45 -122q47 -48 117 -48q78 0 127 60q50 61 50 153q0 93 -50 154q-49 60 -127 60q-70 0 -117 -48q-45 -48 -45 -122z
" />
    <glyph glyph-name="afii10083" unicode="&#x441;" horiz-adv-x="486" 
d="M50 241q0 112 65 183q66 71 169 71q86 0 162 -54l-21 -34q-67 47 -136 47q-83 0 -137 -60q-53 -59 -53 -153t53 -153q54 -59 137 -59q69 0 136 47l21 -35q-77 -53 -162 -53q-103 0 -169 71q-65 71 -65 182z" />
    <glyph glyph-name="afii10084" unicode="&#x442;" horiz-adv-x="454" 
d="M203 444h-174v39h396v-39h-174v-444h-48v444z" />
    <glyph glyph-name="afii10085" unicode="&#x443;" horiz-adv-x="508" 
d="M234 3l-203 480h50l176 -426l169 426h50l-230 -567q-29 -72 -64.5 -104t-86.5 -32q-20 0 -62 8l8 40q27 -7 51 -7q38 0 63.5 24t47.5 81z" />
    <glyph glyph-name="afii10086" unicode="&#x444;" horiz-adv-x="670" 
d="M50 241q0 107 72 177q74 71 191 75v211h45v-211q117 -5 189 -75q73 -70 73 -177q0 -106 -73 -176q-71 -70 -189 -76v-197h-45v197q-118 6 -191 76q-72 71 -72 176zM313 29v425q-95 -4 -158 -64q-60 -58 -60 -149q0 -90 60 -149q62 -59 158 -63zM358 453v-423q97 5 156 62
q61 58 61 149t-61 149q-60 58 -156 63z" />
    <glyph glyph-name="afii10087" unicode="&#x445;" horiz-adv-x="508" 
d="M92 0h-56l187 247l-179 236h55l155 -204l154 204h55l-179 -236l187 -247h-55l-162 215z" />
    <glyph glyph-name="afii10088" unicode="&#x446;" horiz-adv-x="590" 
d="M503 0h-416v483h48v-444h301v444h48v-444h64v-199h-45v160z" />
    <glyph glyph-name="afii10089" unicode="&#x447;" horiz-adv-x="524" 
d="M58 357v126h48v-123q0 -55 36 -89.5t94 -34.5q79 0 152 17v230h48v-483h-48v214q-80 -18 -161 -18q-74 0 -122 45q-47 45 -47 116z" />
    <glyph glyph-name="afii10090" unicode="&#x448;" horiz-adv-x="841" 
d="M753 0h-666v483h48v-444h261v444h48v-444h262v444h47v-483z" />
    <glyph glyph-name="afii10091" unicode="&#x449;" horiz-adv-x="860" 
d="M772 0h-685v483h48v-444h261v444h48v-444h262v444h47v-444h64v-199h-45v160z" />
    <glyph glyph-name="afii10092" unicode="&#x44a;" horiz-adv-x="572" 
d="M170 445h-141v38h186v-198h162q67 0 109.5 -39.5t42.5 -102.5t-42.5 -103t-108.5 -40h-208v445zM215 247v-209h157q50 0 81 29t31 76q0 46 -31.5 75t-81.5 29h-156z" />
    <glyph glyph-name="afii10093" unicode="&#x44b;" horiz-adv-x="710" 
d="M295 0h-208v483h45v-198h163q66 0 108.5 -39.5t42.5 -102.5t-42.5 -103t-108.5 -40zM132 247v-209h157q50 0 81 29t31 76q0 46 -31.5 75t-81.5 29h-156zM622 0h-46v483h46v-483z" />
    <glyph glyph-name="afii10094" unicode="&#x44c;" horiz-adv-x="489" 
d="M295 0h-208v483h45v-198h163q66 0 108.5 -39.5t42.5 -102.5t-42.5 -103t-108.5 -40zM132 247v-209h157q50 0 81 29t31 76q0 46 -31.5 75t-81.5 29h-156z" />
    <glyph glyph-name="afii10095" unicode="&#x44d;" horiz-adv-x="495" 
d="M49 41l20 32q68 -47 137 -47q82 0 134 57q53 58 56 147h-271v34h271q-8 86 -60 138q-53 54 -130 54q-73 0 -137 -46l-20 31q77 54 162 54q102 0 168 -72q66 -71 66 -182q0 -110 -66 -182q-66 -71 -168 -71q-83 0 -162 53z" />
    <glyph glyph-name="afii10096" unicode="&#x44e;" horiz-adv-x="778" 
d="M135 0h-48v483h48v-217h139q8 101 70 165q63 64 156 64q99 0 164 -71q64 -70 64 -183q0 -112 -64 -182q-65 -71 -164 -71q-96 0 -159 66q-63 69 -67 173h-139v-227zM321 241q0 -93 50 -154q50 -59 129 -59q80 0 130 59q50 61 50 154t-50 154q-50 60 -130 60t-129 -60
q-50 -61 -50 -154z" />
    <glyph glyph-name="afii10097" unicode="&#x44f;" horiz-adv-x="494" 
d="M95 0h-52l142 202q-55 6 -89.5 45t-34.5 93q0 62 42 102q44 41 110 41h194v-483h-45v196h-130zM220 233h142v212h-142q-50 0 -81.5 -29.5t-31.5 -76.5t31.5 -76.5t81.5 -29.5z" />
    <glyph glyph-name="uni0450" unicode="&#x450;" horiz-adv-x="529" 
d="M50 241q0 113 63 183q63 71 163 71q92 0 151 -68t59 -176v-20h-388q3 -92 58 -148q56 -57 141 -57q69 0 149 42l16 -35q-87 -45 -170 -45q-106 0 -174 71t-68 182zM98 264h342q-2 86 -47 139t-117 53q-75 0 -123.5 -52.5t-54.5 -139.5zM311 563l-164 105l24 33l159 -110z
" />
    <glyph glyph-name="afii10071" unicode="&#x451;" horiz-adv-x="529" 
d="M50 241q0 113 63 183q63 71 163 71q92 0 151 -68t59 -176v-20h-388q3 -92 58 -148q56 -57 141 -57q69 0 149 42l16 -35q-87 -45 -170 -45q-106 0 -174 71t-68 182zM98 264h342q-2 86 -47 139t-117 53q-75 0 -123.5 -52.5t-54.5 -139.5zM150 612q-10 10 -10 25.5t10 24.5
q10 10 25.5 10t25.5 -10q10 -9 10 -24.5t-10 -25.5t-25.5 -10t-25.5 10zM376 672q22 2 31.5 -16.5t0 -37t-31.5 -16.5q-22 -2 -31 16.5t0 37t31 16.5z" />
    <glyph glyph-name="afii10099" unicode="&#x452;" horiz-adv-x="572" 
d="M87 580h-74v37h74v87h48v-87h183v-37h-183v-195q24 52 70.5 81t106.5 29q80 0 130 -50t50 -130v-404q0 -57 -37.5 -94t-95.5 -37q-42 0 -88 13l7 39q39 -11 73 -11q42 0 67.5 26t25.5 67v395q0 65 -40 105t-103 40q-74 0 -120 -49q-46 -47 -46 -123v-282h-48v580z" />
    <glyph glyph-name="afii10100" unicode="&#x453;" horiz-adv-x="428" 
d="M135 0h-48v483h304v-39h-256v-444zM187 563l-20 28l160 110l24 -33z" />
    <glyph glyph-name="afii10101" unicode="&#x454;" horiz-adv-x="495" 
d="M50 241q0 111 66 182q66 72 168 72q86 0 162 -54l-20 -31q-64 46 -137 46q-79 0 -131 -54q-52 -52 -58 -138h270v-34h-271q3 -89 56 -147q53 -57 134 -57q70 0 137 47l20 -32q-77 -53 -162 -53q-102 0 -168 71q-66 72 -66 182z" />
    <glyph glyph-name="afii10102" unicode="&#x455;" horiz-adv-x="441" 
d="M50 25l12 37q86 -36 155 -36q57 0 91.5 26t34.5 68q0 40 -30 63.5t-72.5 35t-84.5 24.5t-72 43.5t-30 80.5q0 57 46 92.5t120 35.5q71 0 154 -33l-12 -37q-72 31 -139 31q-54 0 -88 -24.5t-34 -64.5q0 -38 30 -61t72 -34.5t84.5 -25t72.5 -45t30 -81.5q0 -58 -47.5 -95
t-122.5 -37q-80 0 -170 37z" />
    <glyph glyph-name="afii10103" unicode="&#x456;" horiz-adv-x="222" 
d="M84 610q-10 11 -10 27.5t10 26.5q10 11 26.5 11t27.5 -11q11 -10 11 -26.5t-11 -27.5q-11 -10 -27.5 -10t-26.5 10zM135 0h-48v483h48v-483z" />
    <glyph glyph-name="afii10104" unicode="&#x457;" horiz-adv-x="222" 
d="M11 672q22 2 31 -16.5t0 -37t-31 -16.5q-22 -2 -31.5 16.5t-0.5 37t32 16.5zM135 0h-48v483h48v-483zM211 672q22 2 31.5 -16.5t0 -37t-31.5 -16.5q-22 -2 -31 16.5t0 37t31 16.5z" />
    <glyph glyph-name="afii10105" unicode="&#x458;" horiz-adv-x="230" 
d="M-79 -207l8 39q39 -11 72 -11q42 0 68 26t26 67v569h48v-572q0 -57 -37.5 -94t-95.5 -37q-44 0 -89 13zM92 610q-10 11 -10 27.5t10 26.5q11 11 27.5 11t26.5 -11q11 -10 11 -26.5t-11 -27.5q-10 -10 -26.5 -10t-27.5 10z" />
    <glyph glyph-name="afii10106" unicode="&#x459;" horiz-adv-x="839" 
d="M21 -8l5 40q26 -3 37 -3q87 0 87 112v342h341v-198h154q67 0 109.5 -39.5t42.5 -102.5t-42.5 -103t-108.5 -40h-200v444h-250v-306q0 -71 -34 -110.5t-94 -39.5q-24 0 -47 4zM491 247v-209h149q49 0 80 29t31 76q0 46 -31 75t-81 29h-148z" />
    <glyph glyph-name="afii10107" unicode="&#x45a;" horiz-adv-x="823" 
d="M134 0h-47v483h47v-207h296v207h45v-207h159q64 0 105.5 -38t41.5 -100t-41 -100t-105 -38h-205v238h-296v-238zM475 239v-202h152q49 0 78.5 27.5t29.5 73.5t-30 73.5t-79 27.5h-151z" />
    <glyph glyph-name="afii10108" unicode="&#x45b;" horiz-adv-x="572" 
d="M87 580h-74v37h74v87h48v-87h183v-37h-183v-195q24 52 71 81t106 29q79 0 129 -50q51 -49 51 -126v-319h-48v313q0 62 -40.5 101.5t-102.5 39.5q-72 0 -119 -50t-47 -127v-277h-48v580z" />
    <glyph glyph-name="afii10109" unicode="&#x45c;" horiz-adv-x="494" 
d="M134 0h-47v483h47v-216h70l190 216h55l-206 -234l215 -249h-56l-198 228h-70v-228zM215 563l-20 28l160 110l24 -33z" />
    <glyph glyph-name="uni045D" unicode="&#x45d;" horiz-adv-x="572" 
d="M135 0h-48v483h45v-418l305 418h47v-483h-45v418zM321 563l-164 105l24 33l159 -110z" />
    <glyph glyph-name="afii10110" unicode="&#x45e;" horiz-adv-x="508" 
d="M234 3l-203 480h50l176 -426l169 426h50l-230 -567q-29 -72 -64.5 -104t-86.5 -32q-20 0 -62 8l8 40q27 -7 51 -7q38 0 63.5 24t47.5 81zM116 691h35q2 -42 31 -68.5t72 -26.5t72 26.5t31 68.5h35q-2 -59 -40.5 -95.5t-97.5 -36.5q-58 0 -97 36.5t-41 95.5z" />
    <glyph glyph-name="afii10193" unicode="&#x45f;" horiz-adv-x="572" 
d="M263 0h-176v483h48v-444h301v444h48v-483h-176v-160h-45v160z" />
    <glyph glyph-name="afii10050" unicode="&#x490;" horiz-adv-x="531" 
d="M159 0h-49v672h345v160h47v-201h-343v-631z" />
    <glyph glyph-name="afii10098" unicode="&#x491;" horiz-adv-x="428" 
d="M135 0h-48v483h259v160h45v-199h-256v-444z" />
    <glyph glyph-name="uni0492" unicode="&#x492;" horiz-adv-x="547" 
d="M126 300h-97v39h97v333h392v-41h-343v-292h205v-39h-205v-300h-49v300z" />
    <glyph glyph-name="uni0493" unicode="&#x493;" horiz-adv-x="436" 
d="M95 210h-80v38h80v235h304v-38h-256v-197h142v-38h-142v-210h-48v210z" />
    <glyph glyph-name="uni049A" unicode="&#x49a;" horiz-adv-x="693" 
d="M158 0h-48v672h48v-308h104l275 308h58l-292 -326l273 -305h83v-217h-47v176h-62l-287 324h-105v-324z" />
    <glyph glyph-name="uni049B" unicode="&#x49b;" horiz-adv-x="528" 
d="M134 0h-47v483h47v-216h70l190 216h55l-206 -234l186 -210h65v-199h-45v160h-47l-197 228h-71v-228z" />
    <glyph glyph-name="uni04A2" unicode="&#x4a2;" horiz-adv-x="794" 
d="M159 0h-49v672h49v-308h441v308h49v-631h96v-217h-46v176h-99v324h-441v-324z" />
    <glyph glyph-name="uni04A3" unicode="&#x4a3;" horiz-adv-x="590" 
d="M135 0h-48v483h48v-217h301v217h48v-444h64v-199h-45v160h-67v227h-301v-227z" />
    <glyph glyph-name="uni04AE" unicode="&#x4ae;" horiz-adv-x="588" 
d="M269 295l-247 377h55l217 -332l216 332h56l-248 -377v-295h-49v295z" />
    <glyph glyph-name="uni04AF" unicode="&#x4af;" horiz-adv-x="508" 
d="M230 4l-199 479h50l173 -424l172 424h50l-198 -479v-212h-48v212z" />
    <glyph glyph-name="uni04B0" unicode="&#x4b0;" horiz-adv-x="588" 
d="M255 318l-233 354h55l217 -332l216 332h56l-234 -354h146v-41h-160v-277h-49v277h-160v41h146z" />
    <glyph glyph-name="uni04B1" unicode="&#x4b1;" horiz-adv-x="508" 
d="M221 27l-190 456h50l173 -424l172 424h50l-189 -456h135v-36h-144v-199h-48v199h-145v36h136z" />
    <glyph glyph-name="uni04BA" unicode="&#x4ba;" horiz-adv-x="689" 
d="M159 0h-49v672h49v-307q128 29 229 29q104 0 169 -62t65 -158v-174h-49v171q0 80 -54 131t-140 51q-96 0 -220 -29v-324z" />
    <glyph glyph-name="uni04BB" unicode="&#x4bb;" horiz-adv-x="572" 
d="M135 0h-48v704h48v-319q24 52 71 81t106 29q79 0 129 -50q51 -49 51 -126v-319h-48v313q0 62 -40.5 101.5t-102.5 39.5q-72 0 -119 -50t-47 -127v-277z" />
    <glyph glyph-name="uni04D8" unicode="&#x4d8;" horiz-adv-x="702" 
d="M45 321v25h550q-3 131 -83 214t-205 83q-103 0 -208 -57l-18 37q115 61 231 61q144 2 239.5 -98t93.5 -250q1 -151 -87.5 -250.5t-222.5 -97.5q-128 0 -209 92q-81 93 -81 241zM595 310h-502q1 -122 69 -202q67 -79 173 -79q110 0 181 77t79 204z" />
    <glyph glyph-name="afii10846" unicode="&#x4d9;" horiz-adv-x="529" 
d="M42 232q0 15 1 20h388q-5 93 -59 147q-56 57 -140 57q-72 0 -149 -41l-17 34q85 46 170 46q106 0 174 -71t68 -183q0 -111 -63 -182t-163 -71q-93 0 -152 68q-58 67 -58 176zM431 219h-342q2 -86 46 -139q47 -54 117 -54q75 0 125 53q49 52 54 140z" />
    <glyph glyph-name="uni04E8" unicode="&#x4e8;" horiz-adv-x="759" 
d="M380 684q139 2 231.5 -97.5t90.5 -250.5q2 -151 -90.5 -250.5t-231.5 -97.5q-140 -2 -232.5 97.5t-90.5 250.5q-2 151 90.5 250.5t232.5 97.5zM654 325h-549q3 -131 80 -214t195 -83q117 0 194 83q77 85 80 214zM106 363h547q-8 125 -83 202q-76 79 -190 79
q-115 0 -191 -79q-75 -77 -83 -202z" />
    <glyph glyph-name="uni04E9" unicode="&#x4e9;" horiz-adv-x="572" 
d="M50 241q0 113 66 183q68 71 170 71q104 0 169 -71q66 -70 66 -183q0 -111 -66 -182q-65 -71 -169 -71q-102 0 -170 71q-66 71 -66 182zM476 229h-380q3 -90 56 -148q53 -56 134 -56q80 0 133 56q53 57 57 148zM97 262h378q-6 88 -58 142t-131 54t-131 -54t-58 -142z" />
    <glyph glyph-name="uni2010" unicode="&#x2010;" horiz-adv-x="320" 
d="M291 228h-262v39h262v-39z" />
    <glyph glyph-name="uni2011" unicode="&#x2011;" horiz-adv-x="320" 
d="M291 228h-262v39h262v-39z" />
    <glyph glyph-name="endash" unicode="&#x2013;" horiz-adv-x="480" 
d="M451 228h-422v39h422v-39z" />
    <glyph glyph-name="emdash" unicode="&#x2014;" horiz-adv-x="960" 
d="M931 228h-902v39h902v-39z" />
    <glyph glyph-name="afii00208" unicode="&#x2015;" horiz-adv-x="960" 
d="M931 228h-902v39h902v-39z" />
    <glyph glyph-name="quoteleft" unicode="&#x2018;" horiz-adv-x="236" 
d="M73 514q0 105 98 169l17 -23q-74 -56 -74 -131q17 2 30.5 -9t13.5 -28t-11.5 -28.5t-28.5 -11.5q-21 0 -33 16.5t-12 45.5z" />
    <glyph glyph-name="quoteright" unicode="&#x2019;" horiz-adv-x="236" 
d="M65 450l-17 23q74 57 74 131q-18 -2 -31 9t-13 28q0 18 11.5 29t28.5 11q21 0 33 -17t12 -45q0 -105 -98 -169z" />
    <glyph glyph-name="quotesinglbase" unicode="&#x201a;" horiz-adv-x="204" 
d="M65 -160l-17 23q74 56 74 131q-18 -2 -31 9t-13 28t11.5 28.5t28.5 11.5q21 0 33 -17t12 -45q0 -105 -98 -169z" />
    <glyph glyph-name="quotedblleft" unicode="&#x201c;" horiz-adv-x="413" 
d="M73 514q0 105 98 169l17 -23q-74 -56 -74 -131q17 2 30.5 -9t13.5 -28t-11.5 -28.5t-28.5 -11.5q-21 0 -33 16.5t-12 45.5zM251 514q0 105 98 169l17 -23q-74 -56 -74 -131q18 2 31 -9t13 -28t-11.5 -28.5t-28.5 -11.5q-21 0 -33 16.5t-12 45.5z" />
    <glyph glyph-name="quotedblright" unicode="&#x201d;" horiz-adv-x="413" 
d="M65 450l-17 23q74 57 74 131q-18 -2 -31 9t-13 28q0 18 11.5 29t28.5 11q21 0 33 -17t12 -45q0 -105 -98 -169zM242 450l-17 23q74 56 74 131q-18 -2 -31 9t-13 28q0 18 11 29t29 11q20 0 32.5 -17t12.5 -45q0 -105 -98 -169z" />
    <glyph glyph-name="quotedblbase" unicode="&#x201e;" horiz-adv-x="413" 
d="M65 -160l-17 23q74 56 74 131q-18 -2 -31 9t-13 28t11.5 28.5t28.5 11.5q21 0 33 -17t12 -45q0 -105 -98 -169zM242 -160l-17 23q74 56 74 131q-18 -2 -31 9t-13 28t11 28.5t29 11.5q20 0 32.5 -17t12.5 -45q0 -105 -98 -169z" />
    <glyph glyph-name="dagger" unicode="&#x2020;" horiz-adv-x="486" 
d="M223 455h-178v39h178v178h39v-178h179v-39h-179v-455h-39v455z" />
    <glyph glyph-name="daggerdbl" unicode="&#x2021;" horiz-adv-x="486" 
d="M223 178h-178v39h178v238h-178v39h178v178h39v-178h179v-39h-179v-238h179v-39h-179v-178h-39v178z" />
    <glyph glyph-name="bullet" unicode="&#x2022;" horiz-adv-x="480" 
d="M138 186q-42 42 -42 102t42 102t102 42t102 -42t42 -102t-42 -102t-102 -42t-102 42z" />
    <glyph glyph-name="ellipsis" unicode="&#x2026;" horiz-adv-x="960" 
d="M131 2q-11 12 -11 29t11 28q12 12 29 12t28 -12q12 -11 12 -28t-12 -29q-11 -11 -28 -11t-29 11zM451 2q-11 12 -11 29t11 28q12 12 29 12t28 -12q12 -11 12 -28t-12 -29q-11 -11 -28 -11t-29 11zM771 2q-11 12 -11 29t11 28q12 12 29 12t28 -12q12 -11 12 -28t-12 -29
q-11 -11 -28 -11t-29 11z" />
    <glyph glyph-name="perthousand" unicode="&#x2030;" horiz-adv-x="1241" 
d="M50 504q0 80 45 129q45 51 114 51q70 0 115 -51q45 -49 45 -129q0 -79 -45 -130q-45 -50 -115 -50t-115 50q-44 52 -44 130zM89 504q0 -66 33.5 -106.5t86.5 -40.5q54 0 87.5 40.5t33.5 106.5q0 65 -33.5 106t-87.5 41q-53 0 -86.5 -41t-33.5 -106zM194 -11l-28 22
l504 672l28 -22zM495 168q0 79 44 129q45 51 116 51q69 0 114 -51q45 -49 45 -129q0 -79 -45 -130q-44 -50 -114 -50q-71 0 -116 50q-44 50 -44 130zM534 168q0 -66 33.5 -106.5t87.5 -40.5q53 0 86.5 40.5t33.5 106.5q0 65 -33.5 106t-86.5 41q-54 0 -87.5 -41t-33.5 -106z
M872 168q0 79 44 129q45 51 114 51q70 0 115 -51q45 -49 45 -129q0 -79 -45 -130q-44 -50 -114 -50t-115 50q-44 50 -44 130zM910 168q0 -65 34 -106t87 -41t87 41t34 106t-34 106t-87 41t-87 -41t-34 -106z" />
    <glyph glyph-name="guilsinglleft" unicode="&#x2039;" horiz-adv-x="300" 
d="M228 16l-197 219v25l197 219l29 -24l-178 -208l178 -207z" />
    <glyph glyph-name="guilsinglright" unicode="&#x203a;" horiz-adv-x="300" 
d="M71 16l-29 24l179 207l-179 208l29 24l198 -219v-25z" />
    <glyph glyph-name="fraction" unicode="&#x2044;" horiz-adv-x="192" 
d="M-142 -11l-28 22l504 672l28 -22z" />
    <glyph glyph-name="Euro" unicode="&#x20ac;" 
d="M117 255h-80v34h77q-3 23 -3 47q0 36 4 63h-78v34h84q23 115 93 183q71 68 170 68q86 0 167 -45l-19 -35q-71 40 -144 40q-81 0 -140 -57.5t-78 -153.5h263v-34h-272q-3 -30 -3 -63q0 -7 2 -47h273v-34h-267q17 -105 76.5 -166t145.5 -61q73 0 144 40l19 -35
q-83 -45 -167 -45q-103 0 -175 72q-73 74 -92 195z" />
    <glyph glyph-name="afii61248" unicode="&#x2105;" horiz-adv-x="838" 
d="M42 511q0 75 45 121q45 48 114 48q52 0 108 -35l-17 -29q-43 31 -87 31q-55 0 -90 -38t-35 -98t35 -97.5t90 -37.5q44 0 87 29l17 -27q-55 -35 -108 -35q-69 0 -114 47q-45 48 -45 121zM184 -11l-27 22l504 672l27 -22zM478 161q0 74 44 121q45 47 115 47t114 -47
q45 -46 45 -121t-45 -122q-44 -47 -114 -47t-115 47q-44 47 -44 122zM517 161q0 -60 33.5 -98t86.5 -38t86.5 38t33.5 98t-33.5 98t-86.5 38t-86.5 -38t-33.5 -98z" />
    <glyph glyph-name="litre" unicode="&#x2113;" horiz-adv-x="366" 
d="M87 119v448q0 66 35 107.5t92 41.5q54 0 88 -42q35 -43 35 -105q0 -83 -54 -162t-151 -142v-143q0 -41 26.5 -67t67.5 -26q28 0 74 11l8 -39q-42 -13 -88 -13q-58 0 -95.5 37t-37.5 94zM132 566v-255q79 55 122.5 120.5t43.5 133.5q0 48 -23.5 79t-60.5 31
q-36 0 -59 -30.5t-23 -78.5z" />
    <glyph glyph-name="numero" unicode="&#x2116;" horiz-adv-x="1161" 
d="M156 0h-46v672h49l444 -603v603h46v-672h-49l-444 603v-603zM801 513q0 74 44 121q45 47 115 47t114 -47q45 -47 45 -121q0 -75 -45 -122q-44 -47 -114 -47t-115 47q-44 47 -44 122zM1116 239h-312v31h312v-31zM840 513q0 -60 33.5 -98t86.5 -38t86.5 38t33.5 98
t-33.5 98t-86.5 38t-86.5 -38t-33.5 -98z" />
    <glyph glyph-name="uni2117" unicode="&#x2117;" horiz-adv-x="832" 
d="M95 145q-47 85 -47 190q0 107 46.5 190.5t131.5 131.5q85 47 190 47t189.5 -47t131.5 -131q47 -85 47 -191q0 -105 -47 -189t-131 -131q-85 -47 -190 -47t-189.5 46.5t-131.5 130.5zM173 579q-95 -95 -95 -243t95 -243t243 -95t243 95t95 243t-95 243t-243 95t-243 -95z
M332 128h-37v416h152q60 0 98 -35.5t38 -93.5q0 -57 -38 -92.5t-98 -35.5h-115v-159zM332 512v-193h112q45 0 73.5 26.5t28.5 69.5t-28.5 70t-73.5 27h-112z" />
    <glyph glyph-name="uni2120" unicode="&#x2120;" horiz-adv-x="921" 
d="M44 280l12 31q69 -30 130 -30q49 0 78.5 21.5t29.5 57.5q0 33 -25.5 53t-61.5 30t-72 21.5t-61.5 38t-25.5 68.5q0 48 38.5 78.5t101.5 30.5t132 -28l-12 -31q-66 26 -118 26q-47 0 -75.5 -21.5t-28.5 -54.5t25.5 -52.5t61.5 -29.5t72 -21.5t61.5 -38t25.5 -69.5
q0 -50 -40 -81t-104 -31q-72 0 -144 32zM487 256h-36v416h40l158 -214l157 214h40v-416h-37v362l-148 -202h-25l-149 202v-362z" />
    <glyph glyph-name="trademark" unicode="&#x2122;" horiz-adv-x="935" 
d="M175 639h-149v33h338v-33h-150v-383h-39v383zM501 256h-36v416h40l157 -214l158 214h40v-416h-37v362l-149 -202h-24l-149 202v-362z" />
    <glyph glyph-name="uni2126" unicode="&#x2126;" horiz-adv-x="777" 
d="M322 0h-264v41h197q-179 116 -179 320q0 142 87 232q87 91 225 91q136 2 225.5 -90.5t87.5 -232.5q0 -203 -180 -320h197v-41h-263v35q197 123 197 324q0 124 -74 204t-190 80t-190 -80q-73 -79 -73 -204q0 -202 197 -324v-35z" />
    <glyph glyph-name="estimated" unicode="&#x212e;" horiz-adv-x="960" 
d="M864 336q0 -13 -1 -16h-623v-196q95 -108 240 -108q148 0 243 112h66q-55 -67 -136 -105.5t-173 -38.5q-117 0 -212.5 59.5t-141.5 155.5q-46 98 -21.5 206.5t103.5 179.5q77 73 195.5 95.5t225.5 -20.5q105 -41 170 -128.5t65 -195.5zM240 548v-196h480v196
q-97 108 -240 108t-240 -108z" />
    <glyph glyph-name="uni215F" unicode="&#x215f;" 
d="M95 568l-15 27l132 77h32v-416h-38v376zM242 -11l-28 22l504 672l28 -22z" />
    <glyph glyph-name="arrowleft" unicode="&#x2190;" horiz-adv-x="960" 
d="M345 -25l-313 313l313 313l33 -32l-264 -259h814v-44h-814l264 -259z" />
    <glyph glyph-name="arrowup" unicode="&#x2191;" horiz-adv-x="960" 
d="M199 390l-32 33l313 313l313 -313l-32 -33l-259 264v-814h-44v814z" />
    <glyph glyph-name="arrowright" unicode="&#x2192;" horiz-adv-x="960" 
d="M846 266h-814v44h814l-264 259l33 32l313 -313l-313 -313l-33 32z" />
    <glyph glyph-name="arrowdown" unicode="&#x2193;" horiz-adv-x="960" 
d="M480 -160l-313 313l32 33l259 -264v814h44v-814l259 264l32 -33z" />
    <glyph glyph-name="uni2196" unicode="&#x2196;" horiz-adv-x="960" 
d="M209 162l-46 1v442h442l1 -46l-368 3l574 -575l-31 -31l-575 574z" />
    <glyph glyph-name="uni2197" unicode="&#x2197;" horiz-adv-x="960" 
d="M179 -44l-31 31l575 576l-369 -4l1 46h442v-442l-46 -1l4 369z" />
    <glyph glyph-name="uni2198" unicode="&#x2198;" horiz-adv-x="960" 
d="M723 13l-575 576l31 31l576 -575l-4 369l46 -1v-442h-442l-1 46z" />
    <glyph glyph-name="uni2199" unicode="&#x2199;" horiz-adv-x="960" 
d="M605 -29h-442v442l46 1l-4 -369l576 575l31 -31l-575 -576l369 4z" />
    <glyph glyph-name="partialdiff" unicode="&#x2202;" horiz-adv-x="572" 
d="M50 251q0 106 63 175t159 69q64 0 114 -29.5t77 -85.5q-6 145 -58 220.5t-146 75.5q-70 0 -141 -38l-18 37q84 41 162 41q251 0 251 -410q0 -148 -64 -233q-63 -85 -169 -85q-102 0 -166 73t-64 190zM97 249q0 -97 51 -159q52 -61 133 -61t133 69q52 68 52 177
q0 76 -53 127q-52 52 -132 52q-81 0 -133 -58q-51 -57 -51 -147z" />
    <glyph glyph-name="uni2206" unicode="&#x2206;" horiz-adv-x="663" 
d="M624 0h-585v28l269 644h47l269 -644v-28zM332 613l-239 -572h477z" />
    <glyph glyph-name="product" unicode="&#x220f;" horiz-adv-x="777" 
d="M159 -208h-49v912h557v-912h-49v871h-459v-871z" />
    <glyph glyph-name="summation" unicode="&#x2211;" horiz-adv-x="627" 
d="M49 -208v32l339 432l-323 416v32h518v-41h-452l305 -394v-26l-321 -410h484v-41h-550z" />
    <glyph glyph-name="minus" unicode="&#x2212;" 
d="M518 267h-460v42h460v-42z" />
    <glyph glyph-name="uni2215" unicode="&#x2215;" horiz-adv-x="192" 
d="M-142 -11l-28 22l504 672l28 -22z" />
    <glyph glyph-name="radical" unicode="&#x221a;" horiz-adv-x="652" 
d="M17 97l-12 40l209 67l120 -352l250 858l41 -11l-265 -907h-50l-123 359z" />
    <glyph glyph-name="infinity" unicode="&#x221e;" horiz-adv-x="777" 
d="M42 288q0 80 44 132q45 52 118 52q58 0 99.5 -34t84.5 -114q43 79 85 113.5t99 34.5q74 0 117 -52q45 -51 45 -132q0 -80 -45 -132q-43 -52 -117 -52q-57 0 -99 34.5t-85 113.5q-43 -80 -84.5 -114t-99.5 -34q-73 0 -118 51q-44 53 -44 133zM87 288q0 -63 34 -103.5
t88 -40.5q47 0 82.5 33.5t74.5 110.5q-39 77 -74.5 110.5t-82.5 33.5q-54 0 -88 -40.5t-34 -103.5zM411 288q39 -78 74 -111t82 -33q56 0 89.5 40t33.5 104t-33.5 104t-89.5 40q-47 0 -82 -33t-74 -111z" />
    <glyph glyph-name="integral" unicode="&#x222b;" horiz-adv-x="393" 
d="M94 -207l11 39q28 -11 54 -11q37 0 61 32t24 81q0 89 -51 244q-2 8 -15 47t-17 51.5t-15 48t-15 52.5t-11.5 47t-11 49.5t-6 43t-2.5 42.5q0 69 36 113t92 44q38 0 71 -13l-12 -39q-27 11 -53 11q-37 0 -61 -32t-24 -81q0 -90 50 -245q15 -43 43 -129q50 -155 50 -251
q0 -69 -35.5 -113t-91.5 -44q-36 0 -71 13z" />
    <glyph glyph-name="approxequal" unicode="&#x2248;" 
d="M77 144l-25 35q59 52 137 52q36 0 101.5 -24t96.5 -24q59 0 112 45l25 -34q-61 -53 -137 -53q-35 0 -101 24t-97 24q-63 0 -112 -45zM77 348l-25 34q61 53 137 53q36 0 101.5 -24t96.5 -24q63 0 112 45l25 -35q-61 -52 -137 -52q-35 0 -101 24t-97 24q-59 0 -112 -45z
" />
    <glyph glyph-name="notequal" unicode="&#x2260;" 
d="M204 167h-146v42h167l79 158h-246v42h267l75 151l38 -19l-67 -132h147v-42h-168l-78 -158h246v-42h-267l-75 -150l-38 18z" />
    <glyph glyph-name="lessequal" unicode="&#x2264;" 
d="M518 0h-460v42h460v-42zM505 127l-447 208v42l447 208l17 -39l-407 -190l407 -189z" />
    <glyph glyph-name="greaterequal" unicode="&#x2265;" 
d="M71 127l-17 40l407 189l-407 190l17 39l447 -208v-42zM518 0h-460v42h460v-42z" />
    <glyph glyph-name="uni22C5" unicode="&#x22c5;" horiz-adv-x="236" 
d="M89 218q-11 12 -11 29t11 28q12 12 29 12t28 -12q12 -11 12 -28t-12 -29q-11 -11 -28 -11t-29 11z" />
    <glyph glyph-name="lozenge" unicode="&#x25ca;" 
d="M267 0l-215 336l215 336h42l215 -336l-215 -336h-42zM288 626l-185 -290l185 -292l185 292z" />
    <glyph glyph-name="uniE000" unicode="&#xe000;" horiz-adv-x="485" 
d="M485 0h-485v485h485v-485z" />
    <glyph glyph-name="afii10066.locl" unicode="&#xe700;" horiz-adv-x="524" 
d="M42 201q0 77 47.5 142.5t130.5 103.5q-102 59 -102 133q0 57 42 90.5t113 33.5h155v-39h-150q-54 0 -84 -22.5t-30 -62.5q0 -30 23.5 -55.5t58.5 -44t76.5 -44t76.5 -53.5t58.5 -74t23.5 -104q0 -94 -62 -156q-61 -61 -157 -61t-158 59q-62 60 -62 154zM89 204
q0 -78 48 -127q49 -49 125 -49t124 50t48 129q0 70 -40.5 119.5t-133.5 98.5q-80 -36 -125.5 -95t-45.5 -126z" />
    <glyph glyph-name="afii10068.alt" unicode="&#xe701;" horiz-adv-x="441" 
d="M50 120q0 50 30 81.5t72 45t84.5 25t72.5 34.5t30 61q0 40 -34 64.5t-88 24.5q-67 0 -139 -31l-12 37q82 33 154 33q74 0 120 -35.5t46 -92.5q0 -50 -30 -80.5t-72 -43.5t-84.5 -24.5t-72.5 -35t-30 -63.5q0 -42 35 -68t91 -26q71 0 155 36l12 -37q-87 -37 -170 -37
q-75 0 -122.5 37t-47.5 95z" />
    <glyph glyph-name="afii10069.alt" unicode="&#xe702;" horiz-adv-x="572" 
d="M50 241q0 113 60 183q62 71 156 71q118 0 173 -105l6 93h39v-503q0 -88 -63 -144q-64 -56 -161 -56q-82 0 -179 41l15 38q92 -39 161 -39q79 0 128 45q51 44 51 113v112q-52 -102 -170 -102q-94 0 -156 71q-60 71 -60 182zM99 241q0 -94 49 -153q49 -60 127 -60
q72 0 117 48t45 122v87q0 75 -45 122.5t-117 47.5q-77 0 -127 -60q-49 -59 -49 -154z" />
    <glyph glyph-name="afii10081.alt" unicode="&#xe703;" horiz-adv-x="572" 
d="M135 0h-48v483h39l6 -101q24 53 72 83t108 30q79 0 129 -50q51 -49 51 -126v-319h-48v313q0 62 -40.5 101.5t-102.5 39.5q-72 0 -119 -50t-47 -127v-277z" />
    <glyph glyph-name="afii10084.alt" unicode="&#xe704;" horiz-adv-x="897" 
d="M135 0h-48v483h39l6 -97q23 52 68.5 80.5t103.5 28.5q59 0 103 -32t60 -85q24 55 71 86t107 31q76 0 124 -48q48 -47 48 -120v-327h-47v321q0 58 -38.5 95.5t-97.5 37.5q-69 0 -114 -48q-44 -47 -44 -121v-285h-48v321q0 58 -38 95.5t-97 37.5q-69 0 -114 -48
q-44 -47 -44 -121v-285z" />
    <glyph glyph-name="commaaccent.alt" unicode="&#xea01;" horiz-adv-x="240" 
d="M80 607q0 91 85 145l15 -21q-62 -48 -62 -110q15 2 26 -8t11 -25q0 -16 -9.5 -25.5t-25.5 -9.5q-18 0 -29 14.5t-11 39.5z" />
    <glyph glyph-name="caron.alt" unicode="&#xea02;" horiz-adv-x="240" 
d="M126 552l-34 12l64 163l38 -14z" />
    <glyph glyph-name="ringacute" unicode="&#xea03;" horiz-adv-x="240" 
d="M26 631q0 49 38 75l166 113l22 -32l-109 -69q32 -7 51.5 -30.5t19.5 -56.5q0 -41 -25 -66t-67 -25t-69 25t-27 66zM122 565q28 0 45.5 18.5t17.5 47.5t-18 47t-47 18t-47 -18t-18 -47t19 -47.5t48 -18.5z" />
    <glyph glyph-name="registered.alt" unicode="&#xec00;" horiz-adv-x="512" 
d="M95 303q-63 63 -63 161t63 161t161 63t161 -63t63 -161t-63 -161t-161 -63t-161 63zM112 608q-56 -56 -56 -144t56 -144t144 -56t144 56t56 144t-56 144t-144 56t-144 -56zM205 344h-25v240h88q34 0 56.5 -20t22.5 -51q0 -27 -16.5 -46t-44.5 -23l69 -100h-30l-66 96h-54
v-96zM205 562v-99h61q24 0 39.5 14t15.5 36t-15 35.5t-40 13.5h-61z" />
    <glyph glyph-name="apple" unicode="&#xf8ff;" horiz-adv-x="591" 
d="M238 0h-138v659h391v-65h-326v-529h73v-65zM491 202h-261v65h196v66h-196v195h261v-65h-196v-65h196v-196z" />
    <glyph glyph-name="CR.001" horiz-adv-x="333" 
 />
    </font>
</defs>
</svg>
