<svg width="28" height="28" viewBox="0 0 28 28" fill="none" xmlns="http://www.w3.org/2000/svg">
<path d="M14 0C6.28062 0 0 6.28008 0 14C0 21.7199 6.28062 28 14 28C21.7194 28 28 21.7199 28 14C28 6.28008 21.7194 0 14 0ZM21.805 9.331L13.1896 19.0233C12.9775 19.2618 12.6818 19.3846 12.3841 19.3846C12.1477 19.3846 11.9102 19.3071 11.7115 19.1488L6.32692 14.8411C5.86277 14.4701 5.78738 13.7922 6.15892 13.3275C6.52992 12.8628 7.20838 12.7874 7.67254 13.1589L12.2586 16.8275L20.195 7.89923C20.5892 7.45446 21.2708 7.41462 21.7151 7.80985C22.1598 8.20562 22.2002 8.88623 21.805 9.331Z" fill="#50E039"/>
</svg>
