<svg width="24" height="24" viewBox="0 0 24 24" fill="none" xmlns="http://www.w3.org/2000/svg">
<g clip-path="url(#clip0)">
<path d="M10.372 12.6204C10.372 12.47 10.2501 12.3483 10.0997 12.3483H9.14918C8.99891 12.3483 8.87695 12.47 8.87695 12.6204V13.5707C8.87695 13.7212 8.99891 13.8431 9.14918 13.8431H10.0997C10.2501 13.8431 10.372 13.7212 10.372 13.5707V12.6204Z" fill="black"/>
<path d="M12.7475 12.6204C12.7475 12.47 12.6255 12.3483 12.4754 12.3483H11.5248C11.3745 12.3483 11.2526 12.47 11.2526 12.6204V13.5707C11.2526 13.7212 11.3745 13.8431 11.5248 13.8431H12.4754C12.6255 13.8431 12.7475 13.7212 12.7475 13.5707V12.6204Z" fill="black"/>
<path d="M15.123 12.6204C15.123 12.47 15.0011 12.3483 14.8508 12.3483H13.9003C13.7499 12.3483 13.6279 12.47 13.6279 12.6204V13.5707C13.6279 13.7212 13.7499 13.8431 13.9003 13.8431H14.8508C15.0011 13.8431 15.123 13.7212 15.123 13.5707V12.6204Z" fill="black"/>
<path d="M10.372 14.996C10.372 14.8454 10.2501 14.7238 10.0997 14.7238H9.14918C8.99891 14.7238 8.87695 14.8454 8.87695 14.996V15.9462C8.87695 16.0966 8.99891 16.2184 9.14918 16.2184H10.0997C10.2501 16.2184 10.372 16.0966 10.372 15.9462V14.996Z" fill="black"/>
<path d="M12.7475 14.996C12.7475 14.8454 12.6255 14.7238 12.4754 14.7238H11.5248C11.3745 14.7238 11.2526 14.8454 11.2526 14.996V15.9462C11.2526 16.0966 11.3745 16.2184 11.5248 16.2184H12.4754C12.6255 16.2184 12.7475 16.0966 12.7475 15.9462V14.996Z" fill="black"/>
<path d="M15.123 14.996C15.123 14.8454 15.0011 14.7238 14.8509 14.7238H13.9003C13.7499 14.7238 13.6279 14.8454 13.6279 14.996V15.9462C13.6279 16.0966 13.7499 16.2184 13.9003 16.2184H14.8509C15.0011 16.2184 15.123 16.0966 15.123 15.9462V14.996Z" fill="black"/>
<path d="M16.8226 7.33614V8.78774C16.8226 9.44385 16.2903 9.97257 15.6343 9.97257H14.8847C14.2287 9.97257 13.6894 9.44385 13.6894 8.78774V7.33093H10.3107V8.78774C10.3107 9.44385 9.77144 9.97257 9.11548 9.97257H8.36574C7.70975 9.97257 7.17752 9.44385 7.17752 8.78774V7.33614C6.60418 7.35343 6.13306 7.82784 6.13306 8.41097V16.918C6.13306 17.5121 6.61458 18 7.20866 18H16.7914C17.3846 18 17.867 17.5111 17.867 16.918V8.41097C17.867 7.82784 17.3959 7.35343 16.8226 7.33614ZM16.4744 16.3883C16.4744 16.645 16.2663 16.8533 16.0094 16.8533H7.97018C7.71334 16.8533 7.50518 16.645 7.50518 16.3883V11.9941C7.50518 11.7372 7.71332 11.5289 7.97018 11.5289H16.0094C16.2662 11.5289 16.4744 11.7372 16.4744 11.9941L16.4744 16.3883Z" fill="black"/>
<path d="M8.3631 9.19437H9.10455C9.32961 9.19437 9.51208 9.01217 9.51208 8.78712V6.40741C9.51208 6.18233 9.32961 6 9.10455 6H8.3631C8.13802 6 7.95557 6.18233 7.95557 6.40741V8.78712C7.95557 9.01217 8.13802 9.19437 8.3631 9.19437Z" fill="black"/>
<path d="M14.8752 9.19437H15.6166C15.8415 9.19437 16.024 9.01217 16.024 8.78712V6.40741C16.024 6.18233 15.8415 6 15.6166 6H14.8752C14.6501 6 14.4677 6.18233 14.4677 6.40741V8.78712C14.4677 9.01217 14.6501 9.19437 14.8752 9.19437Z" fill="black"/>
</g>
<defs>
<clipPath id="clip0">
<rect width="12" height="12" fill="white" transform="translate(6 6)"/>
</clipPath>
</defs>
</svg>
