<svg width="24" height="24" viewBox="0 0 24 24" fill="none" xmlns="http://www.w3.org/2000/svg">
<path d="M14.9375 6H10.0625C7.81919 6 6 7.81919 6 10.0625V14.9375C6 17.1808 7.81919 19 10.0625 19H14.9375C17.1808 19 19 17.1808 19 14.9375V10.0625C19 7.81919 17.1808 6 14.9375 6ZM17.7812 14.9375C17.7812 16.5056 16.5056 17.7812 14.9375 17.7812H10.0625C8.49437 17.7812 7.21875 16.5056 7.21875 14.9375V10.0625C7.21875 8.49437 8.49437 7.21875 10.0625 7.21875H14.9375C16.5056 7.21875 17.7812 8.49437 17.7812 10.0625V14.9375Z" fill="white"/>
<path d="M12.5 9.25C10.7052 9.25 9.25 10.7052 9.25 12.5C9.25 14.2948 10.7052 15.75 12.5 15.75C14.2948 15.75 15.75 14.2948 15.75 12.5C15.75 10.7052 14.2948 9.25 12.5 9.25ZM12.5 14.5312C11.3804 14.5312 10.4688 13.6196 10.4688 12.5C10.4688 11.3796 11.3804 10.4688 12.5 10.4688C13.6196 10.4688 14.5312 11.3796 14.5312 12.5C14.5312 13.6196 13.6196 14.5312 12.5 14.5312Z" fill="white"/>
<path d="M15.9937 9.43936C16.2329 9.43936 16.4268 9.24548 16.4268 9.0063C16.4268 8.76713 16.2329 8.57324 15.9937 8.57324C15.7546 8.57324 15.5607 8.76713 15.5607 9.0063C15.5607 9.24548 15.7546 9.43936 15.9937 9.43936Z" fill="white"/>
</svg>
