<?xml version="1.0" encoding="utf-8"?>
<!-- Generator: Adobe Illustrator 21.0.2, SVG Export Plug-In . SVG Version: 6.00 Build 0)  -->
<svg version="1.1" id="Слой_1" xmlns="http://www.w3.org/2000/svg" xmlns:xlink="http://www.w3.org/1999/xlink" x="0px" y="0px"
	 viewBox="0 0 1158.6 442.8" style="enable-background:new 0 0 1158.6 442.8;" xml:space="preserve">
<style type="text/css">
	.st0{fill:#7CB82F;}
	.st1{fill:#525657;}
</style>
<g>
	<path class="st0" d="M502.7,276.7c0,9-1.3,17.1-3.8,24.5c-2.6,7.3-6.1,13.8-10.6,19.4c-4.5,5.6-9.9,10.4-16.1,14.5
		c-6.2,4-13.1,7.4-20.7,10c-7.5,2.6-15.5,4.5-24.1,5.8c-8.5,1.2-18,1.9-28.5,1.9h-69.3c-4.4,0-8.2-1.3-11.2-3.8
		c-3-2.5-4.5-6.7-4.5-12.4V115.8c0-5.7,1.5-9.9,4.5-12.4c3-2.5,6.7-3.8,11.2-3.8h65.5c16,0,29.5,1.3,40.6,3.9
		c11.1,2.6,20.4,6.6,28,11.8c7.6,5.3,13.4,12,17.4,20c4,8.1,6,17.6,6,28.6c0,6.1-0.8,11.9-2.4,17.3c-1.6,5.4-4,10.3-7.1,14.8
		c-3.1,4.4-6.9,8.3-11.4,11.7c-4.5,3.4-9.6,6.1-15.4,8.2c7.4,1.3,14.2,3.6,20.4,6.8c6.2,3.3,11.7,7.5,16.3,12.6
		c4.6,5.2,8.3,11.2,11,18.1C501.3,260.4,502.7,268.1,502.7,276.7z M434.2,170.1c0-5.1-0.8-9.6-2.4-13.7c-1.6-4-4-7.4-7.3-10.1
		c-3.2-2.7-7.3-4.7-12.2-6.2c-4.9-1.4-11.5-2.2-19.6-2.2h-26.8v65.7h29.6c7.7,0,13.8-0.9,18.3-2.6c4.6-1.8,8.4-4.2,11.4-7.2
		c3-3.1,5.3-6.7,6.7-10.8C433.4,179,434.2,174.7,434.2,170.1z M447.7,278.5c0-5.9-1-11.1-3-15.7c-2-4.6-5-8.5-8.9-11.6
		c-3.9-3.1-8.9-5.5-14.9-7.2c-6-1.7-13.9-2.5-23.6-2.5h-31.4v72h38.3c7.4,0,13.6-0.7,18.6-2.3c5-1.5,9.4-3.7,13.1-6.7
		c3.7-2.9,6.6-6.6,8.7-11C446.6,289.1,447.7,284.1,447.7,278.5z"/>
	<path class="st0" d="M711.1,253.7c0,6-1.4,10.4-4.1,13.3c-2.8,2.9-6.5,4.3-11.4,4.3H586.2c0,7.4,0.9,14.2,2.7,20.2
		s4.7,11.2,8.7,15.5c4,4.2,9.1,7.5,15.3,9.7c6.2,2.2,13.7,3.3,22.5,3.3c8.9,0,16.7-0.6,23.4-1.9c6.7-1.2,12.5-2.6,17.4-4.1
		c4.9-1.5,9-2.9,12.2-4.1c3.2-1.2,5.8-1.9,7.9-1.9c1.2,0,2.2,0.2,3,0.7c0.8,0.5,1.5,1.3,2,2.4c0.5,1.2,0.9,2.8,1.1,5
		s0.3,4.9,0.3,8.1c0,2.9-0.1,5.3-0.2,7.3c-0.1,2-0.3,3.8-0.6,5.2c-0.3,1.4-0.7,2.6-1.2,3.6c-0.5,1-1.2,1.9-2.1,2.8
		c-0.9,0.9-3.3,2.2-7.2,3.7c-3.9,1.6-8.9,3.1-14.9,4.6c-6,1.5-13,2.8-20.8,3.9c-7.8,1.1-16.1,1.7-25,1.7c-16,0-30-2-42-5.9
		c-12-3.9-22.1-9.8-30.1-17.8c-8.1-8-14.1-18-18-30.1c-4-12.1-5.9-26.3-5.9-42.6c0-15.5,2.1-29.5,6.2-42c4.2-12.5,10.2-23,18.1-31.7
		c7.9-8.7,17.6-15.3,28.9-19.9c11.3-4.6,24.1-6.8,38.4-6.8c15,0,27.9,2.2,38.6,6.5c10.7,4.3,19.4,10.3,26.3,17.9
		c6.8,7.6,11.9,16.7,15.1,27.1c3.2,10.4,4.8,21.8,4.8,34V253.7z M661.9,239.6c0.4-13.8-2.5-24.7-8.6-32.6
		c-6.1-7.9-15.5-11.8-28.3-11.8c-6.4,0-12.1,1.2-16.8,3.5c-4.8,2.3-8.7,5.5-11.9,9.5c-3.2,4-5.6,8.7-7.3,14.1
		c-1.7,5.4-2.7,11.2-2.9,17.3H661.9z"/>
	<path class="st1" d="M905,120.6c0,3.9-0.2,7.2-0.5,9.9c-0.3,2.7-0.9,4.8-1.6,6.4c-0.7,1.6-1.6,2.7-2.5,3.5c-0.9,0.8-2,1.2-3.2,1.2
		h-85.2v68.1h80c1.2,0,2.3,0.3,3.2,1c0.9,0.7,1.8,1.8,2.5,3.3c0.7,1.6,1.3,3.7,1.6,6.3c0.3,2.6,0.5,5.9,0.5,9.8s-0.2,7.2-0.5,9.8
		c-0.3,2.6-0.9,4.8-1.6,6.5c-0.7,1.7-1.6,2.9-2.5,3.6c-0.9,0.7-2,1.1-3.2,1.1h-80v94.3c0,1.4-0.4,2.7-1.2,3.7
		c-0.8,1-2.3,1.9-4.3,2.6c-2.1,0.7-4.8,1.3-8.2,1.7c-3.4,0.4-7.7,0.6-12.9,0.6c-5.1,0-9.4-0.2-12.8-0.6s-6.1-0.9-8.2-1.7
		c-2-0.7-3.5-1.6-4.3-2.6c-0.9-1-1.3-2.3-1.3-3.7V115.8c0-5.7,1.5-9.9,4.5-12.4c3-2.5,6.7-3.8,11.2-3.8h122.7c1.2,0,2.3,0.4,3.2,1.1
		c0.9,0.7,1.8,1.9,2.5,3.5c0.7,1.6,1.3,3.8,1.6,6.6C904.8,113.4,905,116.7,905,120.6z"/>
	<path class="st1" d="M1002.5,112.4c0,9.9-2.1,16.8-6.2,20.5c-4.2,3.8-11.9,5.7-23.2,5.7c-11.4,0-19.1-1.8-23.1-5.5
		c-4-3.6-5.9-10.2-5.9-19.8c0-9.9,2-16.8,6.1-20.6c4.1-3.8,11.9-5.8,23.3-5.8c11.3,0,18.9,1.9,23,5.6
		C1000.5,96.3,1002.5,102.9,1002.5,112.4z M998.7,346c0,1.3-0.4,2.4-1.2,3.4c-0.8,1-2.2,1.8-4.1,2.4c-1.9,0.7-4.5,1.1-7.8,1.5
		c-3.2,0.3-7.3,0.5-12.3,0.5c-5,0-9.1-0.2-12.3-0.5c-3.2-0.3-5.8-0.8-7.8-1.5c-1.9-0.7-3.3-1.5-4.1-2.4c-0.8-1-1.2-2.1-1.2-3.4
		V171.9c0-1.3,0.4-2.4,1.2-3.4s2.2-1.8,4.1-2.5c1.9-0.7,4.5-1.3,7.8-1.7c3.2-0.4,7.3-0.6,12.3-0.6c5,0,9.1,0.2,12.3,0.6
		c3.2,0.4,5.8,0.9,7.8,1.7c1.9,0.7,3.3,1.6,4.1,2.5s1.2,2.1,1.2,3.4V346z"/>
	<path class="st1" d="M1158.6,328.8c0,5.7-0.4,10.1-1.1,13.2c-0.7,3.1-1.7,5.2-2.9,6.5c-1.2,1.2-3,2.3-5.3,3.3
		c-2.4,1-5.1,1.8-8.3,2.5c-3.2,0.7-6.6,1.3-10.3,1.7c-3.7,0.4-7.4,0.6-11.2,0.6c-10.1,0-18.8-1.2-26.2-3.7
		c-7.4-2.5-13.5-6.3-18.3-11.4c-4.8-5.2-8.4-11.6-10.7-19.5c-2.3-7.8-3.4-17.1-3.4-27.8v-89.4h-21.6c-2.6,0-4.5-1.5-5.8-4.6
		c-1.3-3.1-2-8.2-2-15.4c0-3.8,0.2-7,0.5-9.6c0.3-2.6,0.8-4.7,1.5-6.2c0.7-1.5,1.5-2.6,2.5-3.2c1-0.7,2.2-1,3.5-1h21.4v-38.9
		c0-1.3,0.4-2.5,1.1-3.5c0.7-1,2.1-1.9,4-2.6c1.9-0.7,4.6-1.2,7.9-1.6c3.3-0.3,7.4-0.5,12.2-0.5c5,0,9.1,0.2,12.4,0.5
		c3.3,0.3,5.9,0.8,7.8,1.6c1.9,0.7,3.2,1.6,4,2.6c0.8,1,1.2,2.2,1.2,3.5v38.9h39.1c1.3,0,2.5,0.3,3.5,1c1,0.7,1.8,1.7,2.5,3.2
		c0.7,1.5,1.2,3.6,1.5,6.2c0.3,2.6,0.5,5.8,0.5,9.6c0,7.2-0.7,12.3-2,15.4c-1.3,3.1-3.3,4.6-5.8,4.6h-39.3v82
		c0,9.5,1.5,16.7,4.6,21.4c3.1,4.8,8.6,7.1,16.5,7.1c2.7,0,5.1-0.2,7.3-0.7c2.1-0.5,4.1-1,5.7-1.6c1.7-0.6,3.1-1.1,4.2-1.6
		c1.1-0.5,2.2-0.7,3.1-0.7c0.8,0,1.6,0.2,2.3,0.7c0.7,0.5,1.3,1.4,1.7,2.7c0.4,1.4,0.8,3.2,1.1,5.6
		C1158.4,322.1,1158.6,325.1,1158.6,328.8z"/>
</g>
<g>
	<path class="st1" d="M0,52.8c0.2-1.6,0.5-3.2,0.5-4.8c0-13.6,0-27.2,0-40.9c0-6,0.9-6.9,7-7c2.9,0,5.7,0.1,8.6,0.5
		c2.5,0.3,4,1.8,4.3,4.5c0.2,2.5,0.5,5,0.5,7.5c0,22.4,0,44.7,0,67.1c0,11,2,12.9,12.9,12.9c12.1,0,14.2-2.1,14.2-14.1
		c0-23.6-0.1-47.2-0.1-70.9c0-6.5,1-7.6,7.7-7.4C66.9,0.4,67.3,0.6,67.4,12c0.1,22,0,44,0.1,66c0,12.8,1.6,14.4,14.5,14.4
		c2,0,4,0,6-0.4c3.5-0.7,5.9-2.8,6.2-6.6c0.3-3.7,0.5-7.5,0.5-11.2c0-22-0.1-44-0.1-66c0-7.6,1.1-8.7,8.8-8.2c9.6,0.6,10,1,10,10.6
		c0,34.5,0.2,69-0.1,103.5c-0.1,6.5-1.1,13.3-3.3,19.4c-4.4,12-13.7,19.9-26.2,20.9c-17.5,1.3-35.2,1.5-52.7,0.1
		c-16.2-1.3-27.8-14.4-29.5-30.7c-0.9-8.7-0.6-17.5-1-26.2c-0.1-1.7-0.3-3.4-0.5-5.2C0,79.3,0,66,0,52.8z"/>
	<path class="st0" d="M164.3,442.8c-0.6-0.5-1.1-1.5-1.7-1.6c-8.2-0.6-13.5-8.3-14.5-16.3c-0.8-6.1-1.5-12.3-1.5-18.4
		c0-7.1,4.2-11.5,11.4-12.2c5.1-0.5,10.2-0.2,15.2-0.9c5.8-0.8,11.5-2.2,17.2-3.6c5.4-1.4,10.7-3.3,16.1-4.9
		c1.7-0.5,6.2,2.6,6.3,4.5c0.2,7.7,0.5,15.3,0.2,23c-0.2,4.9-1.1,9.8-2,14.6c-1.6,8.4-7.5,12.4-15.3,14.3c-1,0.2-1.9,1.1-2.9,1.6
		C183.3,442.8,173.8,442.8,164.3,442.8z"/>
	<path class="st1" d="M212.7,145.8c-0.6,36.2-1.2,72.4-1.8,108.7c-0.1,5.9-0.7,11.7-1.1,17.6c-0.2,2.4-1.1,4.4-4.1,4.4
		c-18.5-0.5-37-0.7-55.1-5c-10.8-2.6-13.6-6.6-14.9-17.7c-3-26.8-2.6-53.6-2.2-80.5c0.6-35.8,1.3-71.7,2.4-107.5
		c0.4-13.9,0.9-28,4.9-41.6c3.8-13.1,12.1-21,25.7-23c10.3-1.5,20.4-1.1,30.4,2c9.8,3.1,12.3,6.7,13.1,17.1
		c2.6,37.2,2.2,74.4,2.3,111.6c0,4.6,0,9.2,0,13.9C212.3,145.8,212.5,145.8,212.7,145.8z"/>
	<path class="st1" d="M94.3,220.4c0,14.7,0,29.5,0,44.2c0,5.8-1.6,7.4-7.3,6.4c-12.7-2.1-25.3-4.5-37.9-6.9
		c-8.5-1.6-16.9-3.2-25.4-4.7c-3.4-0.6-5.1-2.4-5.3-5.7c-0.3-6.3-0.8-12.7-0.9-19c-0.1-19.9-0.1-39.7-0.1-59.6
		c0-7.3,1.7-9.6,9.1-9.9c15.7-0.6,31.4-0.7,47.2-0.9c4.2-0.1,8.5,0.4,12.7,0.5c3.8,0.1,6.1,2,6.6,5.8c0.3,2.7,0.7,5.5,0.7,8.2
		c0.1,13.9,0,27.7,0,41.6C93.8,220.4,94.1,220.4,94.3,220.4z"/>
	<path class="st0" d="M15.2,295c0-7.2,0.2-14.5-0.1-21.7c-0.2-5.2,4.2-7.8,8.8-7.3c4.6,0.5,9.3,0.8,13.9,1.6
		c7.8,1.3,15.6,2.9,23.4,4.3c6.1,1.1,12.4,1.8,18.4,3.3c4.4,1.1,8.9,2.8,12.7,5.1c4.4,2.7,4.8,7.8,4.9,12.5
		c0.2,8.9,0.2,17.7-0.1,26.6c-0.1,1.7-1.6,3.9-3.1,4.8c-2.3,1.3-5.1,2.2-7.7,2.2c-13.4,0.4-26.9,0.7-40.3,0.8
		c-6.1,0-12.2,0-18.2-0.8c-4.5-0.6-9.8-0.6-11.9-6c-0.4-1.1-0.8-2.3-0.8-3.5C15.1,309.4,15.2,302.2,15.2,295z"/>
	<path class="st1" d="M47,384.2c-8.1,0-16.2,0.1-24.4,0c-5.9-0.1-8.4-2.3-8.5-8.1c-0.3-12.7-0.3-25.5-0.2-38.2
		c0-4.6,1.4-5.8,5.9-5.8c10.5,0,21-0.1,31.5,0.1c12.9,0.3,25.9,0.8,38.8,1.2c6.1,0.2,8,1.8,7.9,7.9c-0.1,8.6,0,17.3-1.3,25.7
		C95,377.4,89,382.2,78.4,383c-10.4,0.9-20.9,1.2-31.4,1.8C47,384.6,47,384.4,47,384.2z"/>
	<path class="st0" d="M61.5,390.4c9,0,18,0,27,0c6.7,0,7.5,0.8,9,7.4c2.3,10.2,2.1,20.3-0.8,30.4c-1.3,4.6-6.9,9.1-11.5,9.9
		c-13.5,2.4-27.1,2.7-40.8,2.1c-6.2-0.2-12.7-0.6-18.6-2.5c-3.3-1.1-6.7-4.7-8.3-8.1c-4.7-9.7-3.7-20.2-2.3-30.6
		c0.7-4.7,4.8-7.9,9.7-7.9c12.2-0.1,24.4,0,36.6,0C61.5,390.9,61.5,390.7,61.5,390.4z"/>
	<path class="st0" d="M189.6,336.8c4.6,0.4,9.1,0.7,13.7,1.1c4.9,0.5,8.6,3.2,9.3,8c1.2,8,2,16.2,2.4,24.3c0.2,5.4-5,8.6-11.9,9.5
		c-8.1,1.1-16,3-24,4.8c-7.7,1.7-15.2,4.3-23.3,3.3c-3.6-0.4-6.7-2.5-7.5-6c-2.2-9.5-3.1-19-0.6-28.6c0.3-1.2,0.4-2.5,0.2-3.7
		c-1-6.3,4.5-10.8,10.8-11C169,338.3,179.3,337.5,189.6,336.8z"/>
	<path class="st1" d="M177.2,329.8c-6.6,0-13.2,0.1-19.8,0c-6.2-0.1-8.9-2.3-9.2-8.4c-0.4-10.1-0.5-20.2-0.1-30.3
		c0.3-6.6,3.7-9.2,10.3-10.2c16.6-2.5,32.5,0.4,48.2,5.5c3.6,1.2,5.7,3.5,5.6,7.4c-0.1,7.7,0.2,15.5-0.3,23.1
		c-0.5,8.9-3.3,11.7-12.3,12.3c-7.4,0.5-15,0.1-22.4,0.1C177.2,329.5,177.2,329.6,177.2,329.8z"/>
</g>
</svg>
