<svg width="125" height="43" viewBox="0 0 125 43" fill="none" xmlns="http://www.w3.org/2000/svg">
  <g clip-path="url(#clip0)">
    <path fill-rule="evenodd" clip-rule="evenodd" d="M1.87943 8.39466C1.84216 8.35751 1.8049 8.32036 1.76764 8.24606L1.87943 8.39466Z" fill="#00FF00"/>
    <path fill-rule="evenodd" clip-rule="evenodd" d="M8.25039 31.907C7.28171 31.8698 5.26983 31.7955 4.78542 31.7584C3.92853 31.7212 3.2578 31.6841 1.91665 31.5726C1.84212 31.5726 1.61855 31.5355 1.50676 31.3869C1.32044 31.2011 1.39497 30.9041 1.39497 30.7926C1.4695 30.3098 1.4695 29.2326 1.39497 27.5982C1.39497 27.4867 1.43223 27.264 1.58128 27.0781C1.80486 26.7439 2.10296 26.5953 2.2146 26.558C2.43817 26.4465 2.62449 26.4465 2.84791 26.4094C2.84791 26.4094 3.03422 26.3722 3.22054 26.4094C4.301 26.4465 5.86588 26.818 5.86588 26.818C6.35015 26.9295 7.0954 27.1152 8.06407 27.3381C8.17586 27.3753 8.4367 27.4867 8.62286 27.7468C8.95808 28.1554 8.92096 28.6382 8.92096 28.7497C8.92096 29.604 8.92096 30.4954 8.92096 31.3497C8.92096 31.3869 8.8837 31.6469 8.66013 31.7954C8.51123 31.9068 8.32491 31.9068 8.25039 31.9068V31.907Z" fill="#68D522"/>
    <path fill-rule="evenodd" clip-rule="evenodd" d="M7.20722 26.4468C5.60523 26.1126 3.96582 25.7782 2.36383 25.444C1.84215 25.444 1.39515 24.9983 1.39515 24.4782L1.395 17.5322C1.395 17.0121 1.84201 16.5665 2.36368 16.5665H7.98958C8.51126 16.5665 8.95826 17.0121 8.95826 17.5322C8.95826 20.3552 8.921 23.1411 8.921 25.964C8.921 26.0755 8.921 26.1498 8.88374 26.1869C8.73454 26.5211 8.06411 26.6326 7.20722 26.4468Z" fill="black"/>
    <path fill-rule="evenodd" clip-rule="evenodd" d="M10.7467 0.2972H9.14456V6.46319C9.14456 6.46319 9.14456 6.50034 9.14456 6.53749V7.24319C9.14456 7.31749 9.1073 7.35464 9.1073 7.42894C8.92099 7.87459 8.47398 8.32038 7.87778 8.35754C7.02089 8.39468 6.53663 7.54039 6.46196 7.42894C6.35017 7.20604 6.27564 6.98329 6.23838 6.83469L6.23853 0.2229H4.45008V7.13174C4.41281 7.20604 4.37555 7.31749 4.33829 7.39179C4.26376 7.50324 3.7795 8.39468 2.92246 8.32038C2.32641 8.28324 1.91652 7.83759 1.73036 7.42894V0.2229H0.0165764V11.8119C0.0165764 11.9976 -0.0206862 12.2205 0.0165764 12.4433C0.0165764 12.5176 0.0165764 12.5547 0.0538389 12.629C0.426464 14.4121 2.99713 15.8978 5.4189 15.8235C7.84052 15.8978 10.4113 14.4119 10.784 12.629C10.784 12.5919 10.784 12.5547 10.784 12.5547L10.8212 12.555V0.297348H10.7469L10.7467 0.2972Z" fill="black"/>
    <path fill-rule="evenodd" clip-rule="evenodd" d="M7.84055 37.7757H2.3637C1.80491 37.7757 1.3205 37.3301 1.3205 36.7357V34.0242C1.3205 33.4671 1.7675 32.9842 2.3637 32.9842L7.84055 32.984C8.39934 32.984 8.88375 33.4297 8.88375 34.0241V36.7356C8.88375 37.33 8.39949 37.7756 7.84055 37.7756V37.7757Z" fill="#42A900"/>
    <path fill-rule="evenodd" clip-rule="evenodd" d="M7.9896 42.8646C6.20115 42.8646 4.45025 42.8646 2.6618 42.8646C2.55001 42.8646 2.25191 42.8646 1.9167 42.6417C1.54407 42.3445 1.50681 41.973 1.4697 41.8988C1.4697 41.156 1.4697 40.413 1.4697 39.6701C1.4697 39.2986 1.7678 38.9644 2.17754 38.9644C4.11489 38.8901 6.05225 38.7787 8.02686 38.7044C8.06413 38.7044 8.32496 38.6301 8.58565 38.8158C8.77197 38.9273 8.80923 39.113 8.84649 39.1873C8.84649 40.6732 8.84649 41.7874 8.80923 42.2703C8.80923 42.3446 8.80923 42.5304 8.66018 42.716C8.39934 42.9387 7.98945 42.8646 7.98945 42.8646H7.9896Z" fill="#68D522"/>
    <path fill-rule="evenodd" clip-rule="evenodd" d="M19.1294 26.8553C17.5274 26.7067 15.9253 26.5211 14.286 26.3725C14.1742 26.3354 13.9879 26.2611 13.839 26.0753C13.4291 25.6297 13.6155 24.9981 13.6527 24.961C13.6155 17.3465 13.5782 9.76893 13.5782 2.15439C13.5782 0.965892 14.5469 -4.58049e-06 15.7391 -4.58049e-06L18.3471 -0.000152588C19.5392 -0.000152588 20.508 0.965596 20.508 2.15424C20.508 10.1031 20.508 18.0892 20.508 26.0379C20.508 26.0751 20.4707 26.5207 20.061 26.7808C19.614 27.0409 19.1668 26.8923 19.1296 26.8552L19.1294 26.8553Z" fill="black"/>
    <path fill-rule="evenodd" clip-rule="evenodd" d="M19.3529 32.687H15.6645C15.0684 32.687 14.584 32.2042 14.584 31.6098C14.6213 30.6069 14.6585 29.6411 14.6958 28.6382C14.6958 28.6011 14.584 28.1926 14.8821 27.8954C15.143 27.5982 15.5528 27.6353 15.59 27.6353C16.8567 27.7096 18.1235 27.7839 19.353 27.8954C19.9491 27.8954 20.4335 28.3782 20.4335 28.9726V31.6099C20.4708 32.2042 19.9865 32.687 19.353 32.687H19.3529Z" fill="#42A900"/>
    <path fill-rule="evenodd" clip-rule="evenodd" d="M20.2099 37.1815C20.0608 37.3301 19.8747 37.3673 19.8 37.3673C19.2412 37.4787 17.6018 37.7388 15.3665 38.073C15.2547 38.073 14.9566 38.073 14.7705 37.8501C14.5841 37.6643 14.5469 37.4414 14.5469 37.293C14.5841 36.3272 14.6214 35.5844 14.6214 35.0643C14.6214 34.47 14.6214 34.1728 14.8077 33.8758C15.1803 33.3557 15.9627 33.3557 16.2981 33.3557C17.4531 33.3928 18.6453 33.3928 19.8003 33.43C19.8748 33.43 19.9866 33.4671 20.1355 33.5786C20.2846 33.69 20.3218 33.8386 20.3591 33.9128C20.3964 34.6185 20.4336 35.3243 20.4709 36.03C20.508 36.4017 20.508 36.9216 20.2099 37.1817V37.1815Z" fill="#68D522"/>
    <path fill-rule="evenodd" clip-rule="evenodd" d="M19.4646 42.6047C19.3901 42.679 19.2783 42.7533 19.1294 42.8276C18.6824 43.0876 18.3843 42.9762 17.3784 42.9762C16.447 42.9762 16.1489 43.0505 15.739 42.8276C15.5899 42.7533 15.4781 42.6418 15.4038 42.5675C15.1429 42.3446 14.8077 42.0104 14.6959 41.4903C14.6214 41.2303 14.6587 41.1561 14.6587 40.4503C14.6214 39.4474 14.5469 39.2618 14.6587 39.0759C14.9195 38.6672 15.5528 38.6302 15.9254 38.5931C17.1549 38.5188 18.4961 38.4073 20.0237 38.2589C20.0982 38.2589 20.21 38.2589 20.2846 38.3332C20.2846 38.3332 20.3591 38.4075 20.3963 38.5189C20.4709 38.7047 20.4336 39.7447 20.3591 41.119C20.3591 41.1561 20.3591 41.1561 20.3591 41.1933C20.3218 41.379 20.2473 41.6389 20.0982 41.899C19.9118 42.2702 19.6511 42.4931 19.4646 42.6045V42.6047Z" fill="#42A900"/>
    <path fill-rule="evenodd" clip-rule="evenodd" d="M51.128 28.6439C51.128 29.6762 50.9623 30.626 50.7138 31.4932C50.4239 32.3603 50.0098 33.1036 49.5126 33.7642C49.0157 34.4249 48.3945 34.9617 47.6902 35.4574C46.9862 35.9116 46.1992 36.3246 45.3294 36.6135C44.4595 36.9027 43.5484 37.1503 42.5958 37.2742C41.6433 37.4394 40.5662 37.4807 39.365 37.4807L31.4957 37.4811C30.9986 37.4811 30.5843 37.3159 30.2117 37.0267C29.8805 36.7377 29.7148 36.2423 29.7148 35.5814V9.85522C29.7148 9.19451 29.8805 8.69913 30.2117 8.40992C30.543 8.12086 30.9986 7.95569 31.4957 7.95569H38.951C40.7735 7.95569 42.306 8.12086 43.5485 8.40992C44.7911 8.69913 45.868 9.19451 46.7378 9.77263C47.6076 10.392 48.2703 11.1766 48.726 12.1264C49.1817 13.076 49.4301 14.1911 49.4301 15.4711C49.4301 16.1731 49.3471 16.8751 49.14 17.4945C48.9745 18.1139 48.6844 18.692 48.353 19.2288C48.0218 19.7655 47.5662 20.2197 47.069 20.5915C46.5722 21.0045 45.9921 21.2935 45.3296 21.5413C46.158 21.7065 46.9449 21.9542 47.6491 22.3259C48.353 22.6975 48.9745 23.1931 49.5129 23.8123C50.0514 24.4317 50.4656 25.1337 50.7555 25.9183C51.0042 26.7443 51.1284 27.6527 51.1284 28.6437L51.128 28.6439ZM42.637 16.5861C42.637 16.3797 42.6784 15.8016 42.5542 15.2647C42.5542 15.1821 42.4298 14.7281 42.1814 14.3563L42.14 14.315C42.0572 14.2324 41.8915 13.9848 41.6015 13.8196C41.5601 13.7783 41.5187 13.7783 41.4773 13.737C41.4359 13.6957 41.1872 13.613 40.856 13.4891C40.6489 13.4478 40.359 13.3652 40.0276 13.3652C38.8679 13.3652 37.7497 13.3652 36.5898 13.4065C36.5898 15.3886 36.5898 17.3706 36.5898 19.3529C38.5364 19.3941 40.0276 19.3941 40.6489 19.3529C40.8146 19.3529 41.0631 19.3116 41.3529 19.1464C41.4773 19.1051 41.7257 18.9399 41.9742 18.5683C42.554 17.9077 42.5953 17.082 42.6369 16.5863L42.637 16.5861ZM44.0453 29.1808C44.211 28.4375 44.1283 27.8594 44.0867 27.6943C44.0453 27.4052 43.9623 27.0335 43.7139 26.5795C43.5068 26.2491 43.2583 26.0426 43.0926 25.8776C42.7613 25.5884 42.4299 25.4232 42.0572 25.2582C41.7671 25.1342 41.5187 25.0103 41.353 24.969C39.7791 24.969 38.2053 24.969 36.6312 24.969C36.6312 27.1164 36.6312 29.2223 36.6312 31.3696C38.288 31.3696 39.9033 31.3696 41.56 31.3696C41.8913 31.3283 42.1813 31.2455 42.3469 31.1631C42.4713 31.1218 42.7197 30.9979 43.0097 30.7915C43.1753 30.6674 43.341 30.5022 43.5481 30.2546C43.8796 29.8827 43.9623 29.4697 44.0451 29.1807L44.0453 29.1808Z" fill="#68D522"/>
    <path fill-rule="evenodd" clip-rule="evenodd" d="M74.2814 26.0836C74.3228 26.2077 74.447 26.9922 73.95 27.7355C73.4944 28.3962 72.7904 28.6027 72.6247 28.6027C68.7313 28.6027 64.8795 28.6027 60.9861 28.644C60.9861 29.0157 61.0275 29.6351 61.276 30.2958C61.4004 30.6261 61.6488 31.2868 62.2701 31.8649C63.1399 32.6495 64.2582 32.7321 64.9623 32.8147C65.0867 32.8147 65.5836 32.8147 66.5362 32.7734C67.696 32.7321 68.3173 32.6907 68.7315 32.6082C69.1871 32.5255 69.8084 32.4018 70.5124 32.0714C70.9267 31.8649 71.2579 31.6585 71.8792 31.5347C72.5005 31.4107 72.7076 31.5347 72.8318 31.6173C73.0389 31.7414 73.1218 31.989 73.2046 32.1954C73.3289 32.4845 73.3289 32.6908 73.3289 32.8149C73.3289 32.98 73.3289 33.0626 73.3289 33.3102C73.3289 33.7233 73.3703 33.7233 73.3703 34.26C73.3703 34.5904 73.3703 34.8794 73.3289 35.1272C73.3289 35.3751 73.2874 35.5403 73.246 35.7466C73.2046 35.9118 73.163 36.0358 73.1216 36.1597C73.0802 36.2836 72.9974 36.3661 72.8731 36.4899C72.7903 36.6139 72.5003 36.7376 72.0861 36.9028C71.6305 37.068 71.0921 37.2745 70.4294 37.4396C69.7667 37.6048 68.9797 37.7698 68.1097 37.8939C67.2399 38.0179 66.2873 38.1003 65.2934 38.1003C63.5123 38.1003 61.9384 37.8939 60.5714 37.4396C59.2046 36.9854 58.0863 36.2834 57.175 35.3749C56.2637 34.4663 55.6011 33.3102 55.1455 31.9062C54.6897 30.5022 54.4828 28.8503 54.4828 26.9922C54.4828 25.2168 54.7314 23.565 55.1869 22.161C55.6425 20.7156 56.3466 19.5182 57.2165 18.486C58.1277 17.4949 59.2046 16.7103 60.4886 16.1734C61.7726 15.6365 63.2221 15.3888 64.796 15.3888C66.4942 15.3888 67.9439 15.6365 69.1452 16.1321C70.3462 16.6274 71.3403 17.3296 72.086 18.1968C72.873 19.0639 73.4113 20.1376 73.7842 21.3351C74.157 22.5325 74.3226 23.854 74.3226 25.258L74.3229 26.0832H74.2815L74.2814 26.0836ZM67.7785 23.8952C67.8199 23.6473 68.027 22.3672 67.1572 21.335C66.6604 20.7155 65.9975 20.5091 65.7076 20.3852C65.5419 20.3439 64.7549 20.055 63.7609 20.2613C63.4709 20.3026 63.0569 20.3852 62.6427 20.6743C61.98 21.0872 61.6486 21.7066 61.5244 21.9544C61.1102 22.7803 61.1932 23.5235 61.2344 23.8952C63.3881 23.8952 65.5833 23.8952 67.7785 23.8952Z" fill="#68D522"/>
    <path d="M96.4204 11.2794C96.4204 11.7278 96.4047 12.1003 96.365 12.4044C96.3254 12.7085 96.2618 12.9517 96.1747 13.1342C96.0874 13.309 95.9924 13.4457 95.8892 13.5294C95.7782 13.6205 95.6514 13.6663 95.5165 13.6663H85.6676V21.4202H94.9058C95.0485 21.4202 95.1754 21.4583 95.2786 21.5342C95.3897 21.6026 95.4848 21.7318 95.572 21.9066C95.6593 22.0891 95.7146 22.3247 95.7543 22.6212C95.7939 22.9176 95.8177 23.2902 95.8177 23.7386C95.8177 24.1795 95.7939 24.5521 95.7543 24.8485C95.7146 25.1448 95.6591 25.3882 95.572 25.5859C95.4847 25.7759 95.3897 25.9128 95.2786 25.9965C95.1754 26.0801 95.0485 26.1181 94.9058 26.1181H85.6676V36.8595C85.6676 37.0192 85.6199 37.1636 85.5247 37.2851C85.4375 37.3991 85.271 37.498 85.025 37.5816C84.7872 37.6652 84.47 37.7261 84.0895 37.7716C83.7008 37.8172 83.2013 37.84 82.5985 37.84C82.0118 37.84 81.5201 37.8172 81.1236 37.7716C80.7271 37.7261 80.41 37.6652 80.1802 37.5816C79.9501 37.5055 79.7836 37.3991 79.6805 37.2851C79.5773 37.1635 79.5298 37.019 79.5298 36.8595V10.7243C79.5298 10.0706 79.7042 9.59932 80.0532 9.31041C80.4023 9.0215 80.8303 8.87704 81.3457 8.87704H95.5165C95.6514 8.87704 95.7782 8.91508 95.8892 8.9987C95.9924 9.08233 96.0876 9.21154 96.1747 9.40158C96.262 9.58407 96.3254 9.8348 96.365 10.1465C96.4047 10.4582 96.4204 10.8383 96.4204 11.2792V11.2794ZM106.888 36.9508C106.888 37.0952 106.84 37.2245 106.745 37.3386C106.658 37.4525 106.499 37.5439 106.269 37.6199C106.047 37.6883 105.746 37.7491 105.381 37.7872C105.008 37.8252 104.533 37.8405 103.962 37.8405C103.391 37.8405 102.915 37.8252 102.542 37.7872C102.178 37.7491 101.876 37.6883 101.654 37.6199C101.424 37.5439 101.265 37.4527 101.178 37.3386C101.083 37.2246 101.035 37.0952 101.035 36.9508V17.11C101.035 16.9655 101.083 16.8363 101.178 16.7222C101.265 16.6082 101.424 16.5095 101.654 16.4334C101.876 16.3498 102.178 16.289 102.542 16.2434C102.915 16.1978 103.391 16.175 103.962 16.175C104.533 16.175 105.008 16.1978 105.381 16.2434C105.746 16.289 106.047 16.3498 106.269 16.4334C106.499 16.5095 106.658 16.6082 106.745 16.7222C106.84 16.8361 106.888 16.9655 106.888 17.11V36.9508ZM107.364 10.3138C107.364 11.4465 107.126 12.2219 106.642 12.6552C106.158 13.0886 105.27 13.3013 103.962 13.3013C102.645 13.3013 101.749 13.0961 101.297 12.678C100.838 12.2599 100.608 11.5074 100.608 10.4279C100.608 9.29516 100.845 8.5122 101.321 8.07129C101.789 7.63792 102.685 7.41754 104.009 7.41754C105.31 7.41754 106.198 7.63038 106.666 8.05619C107.134 8.47417 107.364 9.22678 107.364 10.3139L107.364 10.3138ZM125 34.9971C125 35.6508 124.96 36.1526 124.873 36.5022C124.786 36.8519 124.675 37.0951 124.532 37.2319C124.397 37.3763 124.191 37.5055 123.921 37.6119C123.644 37.7259 123.326 37.8248 122.962 37.9009C122.605 37.9845 122.209 38.0453 121.78 38.0909C121.352 38.1365 120.924 38.1593 120.488 38.1593C119.33 38.1593 118.323 38.0148 117.466 37.7336C116.618 37.4522 115.912 37.019 115.349 36.4337C114.794 35.8483 114.382 35.1109 114.12 34.2138C113.858 33.3245 113.724 32.2677 113.724 31.0515V20.8726H111.21C110.916 20.8726 110.686 20.6978 110.536 20.3481C110.377 19.9983 110.298 19.4131 110.298 18.592C110.298 18.1587 110.314 17.7937 110.353 17.4973C110.393 17.2008 110.456 16.9651 110.536 16.7903C110.607 16.623 110.71 16.5015 110.829 16.4254C110.94 16.3493 111.083 16.3115 111.233 16.3115H113.723V11.8643C113.723 11.7198 113.763 11.5829 113.85 11.4615C113.938 11.3476 114.096 11.2487 114.318 11.1651C114.54 11.0815 114.849 11.0206 115.23 10.9826C115.611 10.9446 116.079 10.9293 116.642 10.9293C117.213 10.9293 117.688 10.9446 118.069 10.9826C118.45 11.0206 118.751 11.0815 118.973 11.1651C119.187 11.2487 119.346 11.3476 119.433 11.4615C119.528 11.5831 119.576 11.72 119.576 11.8643V16.3115H124.072C124.23 16.3115 124.365 16.3495 124.476 16.4254C124.595 16.5015 124.69 16.623 124.77 16.7903C124.849 16.9651 124.904 17.2008 124.944 17.4973C124.984 17.7937 124.999 18.1587 124.999 18.592C124.999 19.4129 124.92 19.9983 124.769 20.3481C124.611 20.6978 124.389 20.8726 124.095 20.8726H119.575V30.2077C119.575 31.2948 119.75 32.1081 120.107 32.6479C120.463 33.1877 121.098 33.4614 122.01 33.4614C122.319 33.4614 122.597 33.4386 122.842 33.3853C123.088 33.332 123.31 33.2713 123.5 33.2028C123.699 33.142 123.857 33.0811 123.992 33.028C124.119 32.9747 124.246 32.9519 124.349 32.9519C124.444 32.9519 124.531 32.9747 124.619 33.028C124.698 33.0813 124.769 33.18 124.817 33.3397C124.857 33.4916 124.904 33.7045 124.944 33.9705C124.983 34.2442 124.999 34.5787 124.999 34.9968L125 34.9971Z" fill="black"/>
  </g>
  <defs>
    <clipPath id="clip0">
      <path d="M0 0H125V43H0V0Z" fill="white"/>
    </clipPath>
  </defs>
</svg>
