<?xml version="1.0" encoding="UTF-8" standalone="no"?>
<svg width="20px" height="20px" viewBox="0 0 20 20" version="1.1" xmlns="http://www.w3.org/2000/svg" xmlns:xlink="http://www.w3.org/1999/xlink">
    <!-- Generator: Sketch 3.8.3 (29802) - http://www.bohemiancoding.com/sketch -->
    <title>Icons/person</title>
    <desc>Created with Sketch.</desc>
    <defs></defs>
    <g id="Guides" stroke="none" stroke-width="1" fill="none" fill-rule="evenodd">
        <g id="profile" transform="translate(-24.000000, -270.000000)">
            <g id="Личный-кабинет-Copy-2" transform="translate(0.000000, 244.000000)">
                <g id="Icons/account-3" transform="translate(24.000000, 26.000000)">
                    <path d="M10,10 C11.8416667,10 13.3333333,8.50833333 13.3333333,6.66666667 C13.3333333,4.825 11.8416667,3.33333333 10,3.33333333 C8.15833333,3.33333333 6.66666667,4.825 6.66666667,6.66666667 C6.66666667,8.50833333 8.15833333,10 10,10 L10,10 Z M10,11.6666667 C7.775,11.6666667 3.33333333,12.7833333 3.33333333,15 L3.33333333,16.6666667 L16.6666667,16.6666667 L16.6666667,15 C16.6666667,12.7833333 12.225,11.6666667 10,11.6666667 L10,11.6666667 Z" id="Shape" fill="#FFFFFF"></path>
                    <polygon id="Shape" points="0 0 20 0 20 20 0 20"></polygon>
                </g>
            </g>
        </g>
    </g>
</svg>