<svg width="24" height="24" viewBox="0 0 24 24" fill="none" xmlns="http://www.w3.org/2000/svg">
<g clip-path="url(#clip0)">
<path fill-rule="evenodd" clip-rule="evenodd" d="M16.9095 13.6533C17.4071 14.1391 17.9323 14.5962 18.3785 15.131C18.5757 15.3686 18.7623 15.6138 18.9051 15.8896C19.1074 16.2817 18.9241 16.7131 18.5726 16.7365L16.3874 16.7355C15.8237 16.7823 15.3741 16.5554 14.9961 16.1701C14.6935 15.8619 14.4133 15.5339 14.1224 15.2153C14.0032 15.0851 13.8783 14.9626 13.7292 14.8658C13.4309 14.6721 13.1719 14.7314 13.0015 15.0425C12.8278 15.359 12.7885 15.7094 12.7714 16.0621C12.748 16.5766 12.5925 16.7119 12.0756 16.7355C10.9709 16.7876 9.92256 16.6205 8.94866 16.0632C8.09004 15.5719 7.42422 14.8784 6.84469 14.0933C5.71634 12.5645 4.85225 10.8845 4.07563 9.15751C3.90082 8.76841 4.02867 8.55955 4.45798 8.55215C5.17087 8.53831 5.88366 8.53929 6.59738 8.55117C6.88712 8.55541 7.07894 8.72159 7.19081 8.99531C7.5765 9.94368 8.04844 10.846 8.64084 11.6823C8.79859 11.905 8.95945 12.1276 9.18853 12.2844C9.44194 12.4579 9.63489 12.4004 9.75411 12.1181C9.82976 11.9391 9.86287 11.7463 9.87993 11.5546C9.93641 10.895 9.94385 10.2366 9.84479 9.57933C9.78397 9.16914 9.55293 8.9036 9.14363 8.82597C8.93476 8.7864 8.96586 8.70868 9.06699 8.58946C9.24264 8.38385 9.40784 8.25586 9.73715 8.25586H12.2068C12.5956 8.33259 12.682 8.50726 12.7352 8.89847L12.7373 11.6418C12.7331 11.7932 12.813 12.2426 13.0857 12.3429C13.3041 12.4142 13.448 12.2396 13.579 12.1011C14.1703 11.4736 14.5923 10.7319 14.9693 9.96389C15.1366 9.6262 15.2805 9.27549 15.4199 8.92508C15.5232 8.66506 15.6853 8.53712 15.9782 8.54279L18.3551 8.54491C18.4256 8.54491 18.4969 8.54594 18.5652 8.55762C18.9657 8.62588 19.0754 8.79818 18.9517 9.1893C18.7568 9.80293 18.3776 10.3143 18.0068 10.828C17.6104 11.3765 17.1864 11.9062 16.7934 12.4579C16.4322 12.9618 16.4609 13.2157 16.9095 13.6533Z" fill="white"/>
</g>
<defs>
<clipPath id="clip0">
<rect x="4" y="5" width="15" height="15" fill="white"/>
</clipPath>
</defs>
</svg>
